<?xml version="1.0" encoding="utf-8"?>
<!-- Generator: Adobe Illustrator 25.2.0, SVG Export Plug-In . SVG Version: 6.00 Build 0)  -->
<svg version="1.1" id="Layer_36" xmlns="http://www.w3.org/2000/svg" xmlns:xlink="http://www.w3.org/1999/xlink" x="0px" y="0px"
	 viewBox="0 0 276.69 275" style="enable-background:new 0 0 276.69 275;" xml:space="preserve">
<style type="text/css">
	.st0{fill:#FE9B72;}
	.st1{fill:#19193F;}
	.st2{fill:#542816;}
	.st3{fill:#66311F;}
	.st4{fill:#F18366;}
	.st5{fill:#FFFFFF;}
	.st6{fill:#454384;}
	.st7{fill:#36366B;}
	.st8{fill:#E0745F;}
	.st9{fill:#020202;}
	.st10{fill:#53508F;}
	.st11{fill:#FE7B73;}
	.st12{fill:#FF9971;}
	.st13{fill:#EA825E;}
	.st14{fill:#222A52;}
	.st15{fill:#10182D;}
	.st16{fill:#FFBC73;}
	.st17{fill:#161C35;}
	.st18{fill:#BA5728;}
	.st19{fill:#C7633D;}
	.st20{fill:#FB986F;}
	.st21{fill:#9B421F;}
	.st22{fill:#BF3A2C;}
	.st23{fill:#222A53;}
	.st24{fill:#13192E;}
	.st25{fill:#12182C;}
	.st26{fill:#EFDE07;}
	.st27{fill:#2A2666;}
	.st28{fill:#323266;}
	.st29{fill:#5B5BA5;}
	.st30{fill:#2E3049;}
	.st31{fill:#7F7FC9;}
	.st32{fill:#0B070B;}
	.st33{fill:#8282CA;}
	.st34{fill:#6B68AA;}
	.st35{fill:#29296D;}
	.st36{fill:#E27C64;}
	.st37{fill:none;stroke:#0C0302;stroke-linecap:round;stroke-miterlimit:10;}
	.st38{fill:none;stroke:#CE6C59;stroke-width:1.5;stroke-miterlimit:10;}
	.st39{fill:#0C0302;}
	.st40{fill:#EF896A;}
	.st41{fill:#070506;}
	.st42{fill:#3A376C;}
	.st43{fill:#9E0418;}
	.st44{fill:#555CC9;}
	.st45{fill:#2E2C6F;}
	.st46{fill:#FDE9EB;}
	.st47{fill:#F6ADBD;}
	.st48{fill:#FBDAE2;}
	.st49{fill:#ED294B;}
	.st50{fill:none;stroke:#9E0418;stroke-linecap:round;stroke-miterlimit:10;}
</style>
<g>
	<g>
		<g>
			<path class="st0" d="M223.48,239.31c0,0.13-0.02,0.23-0.06,0.29c-0.32,0.49-0.64,3.92-0.84,8.54c-0.19,4.63-0.42,6.86-4.4,7.22
				c-3.69,0.33-4.08-3.04-4.27-4.66c-0.06-0.5,0.22-1.66,0.65-3.06c0.96-3.11,2.64-7.38,2.91-8.14c0.39-1.1-0.58-3.52-0.58-3.52
				h5.92C222.81,235.98,223.53,238.4,223.48,239.31z"/>
		</g>
		<g>
			<path class="st1" d="M223.48,239.31c0,0.13-0.02,0.23-0.06,0.29c-0.32,0.49-0.64,3.92-0.84,8.54c-0.19,4.63-0.42,6.86-4.4,7.22
				c-3.69,0.33-4.08-3.04-4.27-4.66c-0.06-0.5,0.22-1.66,0.65-3.06v1.6c0,0,3.95-0.74,6.7,0
				C221.26,249.24,222.39,240.59,223.48,239.31z"/>
		</g>
		<g>
			<path class="st0" d="M263.65,255.8c-4.34,0.08-5.82-6.7-5.82-8.59c0-1.89-0.88-2.05-0.88-2.05v3.98h-0.8c0,0-0.24-1.89-0.28-3.42
				c-0.04-1.52-0.28-2.85-1.04-4.25c-0.5-0.93-0.12-2.16,0.31-3.01c0,0,0,0,0,0c0.22-0.44,0.45-0.78,0.58-0.92
				c0.36-0.4,0-1.77,0-1.77l5.94-0.28c0,0,0.32,4.18,0.32,5.22s3.94,8.27,3.94,8.27s0.15,0.49,0.29,1.21
				C266.56,252.12,266.82,255.74,263.65,255.8z"/>
		</g>
		<g>
			<path class="st1" d="M263.65,255.8c-4.34,0.08-5.82-6.7-5.82-8.59c0-1.89-0.88-2.05-0.88-2.05v3.98h-0.8c0,0-0.24-1.89-0.28-3.42
				c-0.04-1.52-0.28-2.85-1.04-4.25c-0.5-0.93-0.12-2.16,0.31-3.01c0.02,0.14,0.51,2.87,1.26,3.66c0.76,0.8,2.49,2.65,2.73,5.1
				c0.24,2.45,3.37,5.58,6.62,3.25c0.16-0.11,0.31-0.2,0.45-0.28C266.56,252.12,266.82,255.74,263.65,255.8z"/>
		</g>
		<g>
			<path class="st2" d="M212.81,21.13c-2.62,1.56-2.14,3.76-2.14,3.76s-4.86-2.2-6.68,2.79c0,0-6.61,1.1-4.73,6.94
				c0,0-1.82,2.72-3.37,2.92c-1.56,0.19-2.46,4.15-0.84,5.25c0,0-6.03,3.24-1.75,7.26c0,0-3.18,1.94-2.53,5.38
				c0.65,3.44,5.77,3.82,5.77,3.82s-0.84,2.4-1.36,2.4c-0.52,0-2.79,5.7,5.9,4.73c8.69-0.97,44.28-1.1,44.28-1.1s7.2,0.71,6.29-7.52
				c0,0,4.76-2.66,0.08-6.03c0,0,2.9-1.56,2.06-4.02s-4.21-4.34-4.21-4.34s0.65-6.16-4.15-6.42c0,0-0.58-8.1-6.81-7.58
				c0,0-0.78-4.93-5.32-4.15c0,0-2.85-5.12-7.13-2.98c0,0-4.47-3.82-7.39-1.1C218.77,21.13,216.18,19.12,212.81,21.13z"/>
		</g>
		<g>
			<path class="st3" d="M237.09,39.11c-2.79-0.27-3.1-1.81-3.1-5.02c0-0.76-0.25-1.37-0.73-1.83c-1.16-1.09-3.31-0.97-3.33-0.97
				l-0.19,0.01l-0.05-0.18c-0.4-1.62-1.06-2.61-1.97-2.95c-1.22-0.45-2.52,0.45-2.53,0.46l-0.26-0.37c0.06-0.04,1.5-1.05,2.95-0.52
				c1.02,0.38,1.77,1.42,2.21,3.09c0.59,0,2.38,0.06,3.48,1.1c0.58,0.55,0.88,1.27,0.88,2.16c0,3.34,0.35,4.35,2.69,4.57
				L237.09,39.11z"/>
		</g>
		<g>
			<path class="st3" d="M239.38,57.48c-0.1-0.04-0.19-0.08-0.28-0.12c-0.64-0.26-1.07-0.44-1.33-1.43c-0.15-0.55,0.16-1.13,0.45-1.7
				c0.35-0.67,0.54-1.1,0.28-1.36c-0.12-0.12-0.31-0.24-0.53-0.38c-0.99-0.62-2.5-1.57-1.41-5.16c1.2-3.97-0.79-4.85-0.88-4.89
				l0.17-0.42c0.1,0.04,2.46,1.06,1.14,5.44c-0.99,3.27,0.29,4.06,1.22,4.65c0.23,0.14,0.45,0.28,0.61,0.44
				c0.52,0.52,0.14,1.25-0.2,1.89c-0.25,0.49-0.52,0.99-0.42,1.37c0.21,0.78,0.46,0.88,1.07,1.13c0.09,0.04,0.18,0.08,0.28,0.12
				L239.38,57.48z"/>
		</g>
		<g>
			<path class="st3" d="M245.9,45.56c-0.03-1.67-0.36-2.78-0.98-3.31c-0.65-0.55-1.56-0.42-2.36-0.3c-0.69,0.1-1.29,0.19-1.64-0.19
				c-0.26-0.28-0.3-0.77-0.13-1.54c0.88-3.84-2.2-4.87-2.34-4.91l0.14-0.43c0.04,0.01,3.62,1.19,2.64,5.45
				c-0.17,0.73-0.08,1.02,0.02,1.13c0.18,0.2,0.7,0.12,1.24,0.04c0.85-0.12,1.91-0.28,2.72,0.41c0.73,0.62,1.11,1.81,1.14,3.64
				L245.9,45.56z"/>
		</g>
		<g>
			<path class="st3" d="M243.17,62.43l-0.31-0.33c0.29-0.27,1.06-1.12,1.05-1.74c0-0.19-0.08-0.34-0.23-0.47
				c-0.72-0.63-1.32-1.8-0.04-3.85c0.86-1.39,1.06-3.39-0.43-4.76c-1.73-1.59-0.4-3.76-0.39-3.78l0.38,0.24
				c-0.05,0.08-1.14,1.88,0.31,3.21c1.68,1.54,1.47,3.79,0.51,5.33c-0.89,1.43-0.9,2.53-0.04,3.27c0.25,0.22,0.38,0.49,0.38,0.81
				C244.38,61.31,243.22,62.39,243.17,62.43z"/>
		</g>
		<g>
			<path class="st3" d="M234.86,59.26c-0.59-0.02-1.05-0.23-1.38-0.62c-0.69-0.84-0.48-2.2-0.47-2.26l0.02-0.1l0.08-0.06
				c0.01,0,0.63-0.43,0.77-1.23c0.11-0.65-0.13-1.37-0.71-2.15c-1.9-2.54,0.46-5.37,0.48-5.39l0.35,0.29
				c-0.09,0.1-2.15,2.58-0.46,4.83c0.66,0.88,0.93,1.72,0.79,2.5c-0.14,0.8-0.66,1.29-0.87,1.46c-0.03,0.29-0.09,1.24,0.38,1.81
				c0.24,0.29,0.58,0.44,1.04,0.46L234.86,59.26z"/>
		</g>
		<g>
			<path class="st3" d="M248.17,60.32l-0.43-0.14c0.02-0.05,0.41-1.19,1.23-2.28c0.73-0.98,0.55-1.89-0.74-3.77
				c-0.42-0.62-0.58-1.24-0.45-1.85c0.22-1.07,1.21-1.7,1.26-1.73l0.24,0.38c-0.01,0.01-0.87,0.56-1.05,1.44
				c-0.1,0.48,0.03,0.99,0.38,1.5c1.42,2.06,1.6,3.14,0.73,4.3C248.56,59.2,248.18,60.31,248.17,60.32z"/>
		</g>
		<g>
			<path class="st3" d="M203.26,63.57c-0.55,0-0.85-0.26-0.99-0.49c-0.35-0.54-0.27-1.44,0.23-2.4c0.2-0.39,0.18-0.51,0.17-0.54
				c-0.02-0.05-0.17-0.1-0.31-0.15c-0.31-0.11-0.79-0.28-1.15-0.83c-0.41-0.64,0.34-1.25,1.07-1.83c0.55-0.44,1.17-0.94,1.12-1.32
				c-0.03-0.22-0.31-0.45-0.8-0.66c-1.35-0.59-2.06-1.7-1.91-2.97c0.16-1.3,1.18-2.36,2.48-2.57c0.94-0.16,1.54-0.6,1.71-1.24
				c0.15-0.6-0.12-1.31-0.65-1.72c-1.24-0.95-0.91-2.39-0.9-2.45l0.05-0.22l0.22,0.05c0.02,0,1.72,0.35,2.39-0.48
				c0.44-0.54,0.36-1.5-0.23-2.84c-0.99-2.24-1.22-3.8-0.71-4.77c0.43-0.83,1.3-1.1,2.09-1.26c1.54-0.31,1.77-0.71,1.7-3.07
				c-0.04-1.39,0.25-2.36,0.86-2.86c0.46-0.38,1.08-0.49,1.84-0.32c2.06,0.45,4.51,0.75,5.16-0.9c0.55-1.41,1.98-2.63,3.18-2.73
				c0.64-0.05,1.18,0.22,1.51,0.77c0.87,1.45,2.29,1.18,2.35,1.17l0.09,0.44c-0.02,0-1.8,0.35-2.83-1.38
				c-0.24-0.41-0.61-0.59-1.09-0.55c-1.03,0.08-2.31,1.2-2.8,2.45c-0.87,2.22-4.36,1.46-5.68,1.17c-0.62-0.13-1.1-0.06-1.45,0.23
				c-0.5,0.41-0.73,1.25-0.7,2.5c0.07,2.43-0.18,3.15-2.07,3.52c-0.69,0.14-1.43,0.37-1.77,1.02c-0.43,0.83-0.19,2.31,0.73,4.38
				c0.67,1.51,0.72,2.62,0.16,3.31c-0.68,0.84-2.05,0.75-2.6,0.68c-0.03,0.38,0.01,1.19,0.76,1.78c0.68,0.53,1.01,1.41,0.82,2.19
				c-0.12,0.48-0.55,1.32-2.07,1.58c-1.11,0.18-1.97,1.08-2.11,2.18c-0.13,1.06,0.48,2,1.64,2.5c0.67,0.29,1.02,0.62,1.07,1.02
				c0.09,0.63-0.61,1.19-1.29,1.73c-0.55,0.44-1.17,0.94-0.98,1.23c0.27,0.42,0.62,0.54,0.92,0.65c0.25,0.09,0.48,0.17,0.58,0.41
				c0.09,0.21,0.03,0.49-0.19,0.91c-0.41,0.79-0.5,1.56-0.25,1.95c0.13,0.2,0.36,0.3,0.69,0.28l0.03,0.45
				C203.33,63.57,203.3,63.57,203.26,63.57z"/>
		</g>
		<g>
			<path class="st3" d="M208.26,61.36c-1.03-0.42-1.57-1.25-1.54-2.31c0.05-1.56,1.35-3.26,2.88-3.77c0.58-0.2,0.91-0.45,1-0.77
				c0.2-0.71-0.69-1.79-1.64-2.93l-0.28-0.33c-0.44-0.53-0.63-1.09-0.56-1.67c0.15-1.31,1.58-2.39,2.84-3.35l0.11-0.09
				c0.22-0.17,0.33-0.37,0.32-0.61c-0.02-1.04-1.93-2.6-2.67-3.11l-0.5-0.35l0.61-0.06c0.02,0,2.27-0.25,2.96-1.52
				c0.32-0.59,0.26-1.33-0.18-2.2c-0.72-1.41-0.9-2.59-0.53-3.49c0.37-0.9,1.15-1.18,1.18-1.19l0.07-0.03l0.07,0.03
				c0.02,0.01,1.78,0.62,2.94-0.03c0.49-0.28,0.81-0.75,0.95-1.42c0.63-3.01,6.46-4.04,6.71-4.08l0.08,0.45
				c-0.06,0.01-5.77,1.02-6.34,3.72c-0.17,0.8-0.56,1.38-1.17,1.72c-1.2,0.67-2.83,0.22-3.23,0.09c-0.17,0.08-0.61,0.33-0.85,0.91
				c-0.31,0.78-0.14,1.82,0.52,3.11c0.52,1.01,0.58,1.9,0.18,2.63c-0.58,1.07-1.99,1.5-2.77,1.67c0.8,0.62,2.4,2.01,2.43,3.15
				c0.01,0.39-0.16,0.72-0.5,0.98l-0.11,0.09c-1.13,0.86-2.53,1.92-2.66,3.04c-0.05,0.45,0.1,0.88,0.46,1.32l0.27,0.33
				c1.07,1.29,1.99,2.41,1.73,3.34c-0.14,0.48-0.56,0.83-1.3,1.07c-1.35,0.45-2.52,1.99-2.57,3.35c-0.02,0.61,0.18,1.43,1.26,1.88
				L208.26,61.36z"/>
		</g>
		<g>
			<path class="st3" d="M198.58,58.39c-0.06,0-1.38-0.01-2.12-0.95c-0.48-0.62-0.59-1.48-0.32-2.55c0.75-3.01-1.53-4.2-1.63-4.25
				l-0.08-0.04l-0.03-0.09c-0.02-0.05-0.44-1.29,0.18-2.21c0.38-0.56,1.06-0.87,2.01-0.91c0.94-0.04,1.53-0.23,1.84-0.57
				c0.41-0.46,0.37-1.25,0.31-2.26c-0.02-0.28-0.03-0.59-0.04-0.9c-0.02-0.56-0.09-1.13-0.17-1.68c-0.17-1.22-0.31-2.28,0.24-2.94
				c0.3-0.36,0.77-0.54,1.43-0.57l0.02,0.45c-0.53,0.02-0.89,0.15-1.1,0.41c-0.42,0.5-0.28,1.51-0.13,2.58
				c0.08,0.56,0.16,1.14,0.17,1.72c0.01,0.31,0.03,0.61,0.04,0.89c0.06,1.11,0.12,1.99-0.42,2.59c-0.4,0.44-1.08,0.67-2.16,0.72
				c-0.8,0.04-1.36,0.28-1.65,0.72c-0.42,0.62-0.22,1.47-0.15,1.73c0.46,0.28,2.53,1.7,1.78,4.71c-0.23,0.93-0.15,1.66,0.24,2.16
				c0.6,0.77,1.75,0.78,1.76,0.78L198.58,58.39z"/>
		</g>
		<g>
			<path class="st3" d="M235.77,30.82c-0.62,0-1.09-0.17-1.41-0.5c-0.39-0.42-0.37-0.93-0.37-0.95c0-1.31-0.37-2.27-1.1-2.84
				c-1.23-0.96-3.11-0.5-3.13-0.5l-0.13,0.03l-0.09-0.1c-0.78-0.83-1.54-1.21-2.28-1.12c-1.22,0.15-2,1.53-2.01,1.54l-0.4-0.22
				c0.04-0.07,0.9-1.6,2.35-1.77c0.86-0.1,1.73,0.29,2.58,1.16c0.48-0.1,2.17-0.34,3.38,0.6c0.84,0.66,1.27,1.74,1.27,3.21
				c0,0.01-0.01,0.36,0.25,0.63c0.22,0.23,0.58,0.35,1.07,0.35V30.82z"/>
		</g>
		<g>
			<path class="st3" d="M213.02,59.07c-0.01-0.06-0.2-1.57,1.51-2.71c0.69-0.46,1.02-0.83,1.03-1.16c0.02-0.35-0.3-0.76-1.05-1.36
				c-0.87-0.7-1.66-1.88-1.46-2.92c0.08-0.45,0.39-1.05,1.4-1.37l0.14,0.43c-0.63,0.2-1,0.55-1.09,1.03
				c-0.14,0.73,0.4,1.75,1.3,2.48c0.65,0.53,1.25,1.1,1.22,1.74c-0.02,0.5-0.4,0.96-1.24,1.52c-1.48,0.99-1.32,2.25-1.31,2.27
				L213.02,59.07z"/>
		</g>
		<g>
			<path class="st0" d="M232.35,45.9c-0.94,3.9-3.82,6.9-3.82,6.9l0.59,8.35h-11.07V53c-2.42-1.99-2.77-7.6-2.77-7.6
				c-2.34-0.7-1.44-2.08-1.44-2.08c2.85,0.3,2.3-5.72,2.3-5.72c5.73-0.86,3.51-6.7,4.25-6.12c0.74,0.59,3.24-1.52,3.24-1.52
				c0.15,2.5,5.34,2.3,5.34,2.3c-0.63,1.99,1.52,5.42,2.45,5.92c0.94,0.51,1.05,1.17,0.98,2.77c-0.08,1.6,2.46,1.13,2.46,1.13
				C235.12,45.43,232.35,45.9,232.35,45.9z"/>
		</g>
		<g>
			<path class="st4" d="M227.48,53.54c0,0-2.83,5.74-9.43,2.98V53C218.04,53,222.99,58.03,227.48,53.54z"/>
		</g>
		<g>
			<path class="st5" d="M216.91,58.85c0,0,0.53-0.64,1.3-0.26c0.77,0.39,7.54,1.48,10.38,0.26c2.84-1.22,2.13,1.29,2.58,2.45
				s0.26,17.15-0.39,19.98c-0.64,2.84-6.32,19.21-6.32,19.21s-5.22-0.39-6.32-7.93c-1.1-7.54-1.68-17.53-1.8-20.11
				C216.21,69.87,215.61,59.1,216.91,58.85z"/>
		</g>
		<g>
			<path class="st6" d="M218.08,57.78c0,0-0.85,1.52-0.85,3.83s0.28,16.86,1.04,21.57s2.75,12.08,2.75,12.08l3.7,0.16
				c0,0,5.41-16.93,5.41-21.28s-1.04-17.21-1.04-17.21s4.96,3.88,6.02,5.06c0,0,5.52,2.26,7.13,2.41c1.61,0.14,6.14,0.55,7.13,4.89
				c0.99,4.34,2.65,15.22,2.65,15.22s0.44,18.49-1,19.93c-1.45,1.45-7.85,3.2-7.85,3.2s-0.15,1.5,1.03,5.52
				c1.19,4.03,7.38,25.39,7.54,26.48s2.22,8.88,2.32,16.52c0.1,7.64,0,25.55,0,25.55l0.05,4.23c0,0,3,7.02,4.08,11.77
				c1.08,4.75,4.03,24.83,4.34,29.52c0.31,4.7,0.52,9.55,0.52,9.55h-8.83c0,0-7.85-23.59-8.83-26.69c-0.98-3.1-5.1-16.67-5.26-19.1
				s-8.98-26.58-8.98-26.58l-8-22.4c0,0-1.8,17.58-2.62,26.5c-0.83,8.93-0.38,23.55,0.23,31.06s3.15,37.21,3.15,37.21h-8.4
				c0,0-11.78-34.21-11.85-42.98s0.08-17.25-0.45-20.7c-0.53-3.45-11.78-30.61-9.38-38.41l-0.98-0.3c0,0,5.78-21.53,9-23.7
				c0,0-8.4-1.8-9-2.93c-0.6-1.13,2.85-23.78,2.85-23.78s3.72-17.81,5.46-18.29c1.74-0.49,8.65-2.5,9.91-3.42
				C212.33,61.35,216.44,57.6,218.08,57.78z"/>
		</g>
		<g>
			<path class="st7" d="M217.79,95.22l-10.61-23.44l3.25-3.2c-0.45-0.19-1.07-0.45-1.56-0.58c-0.22-0.06-0.39-0.21-0.49-0.42
				c-0.39-0.91,0.86-3.42,1.41-4.45l0.8,0.43c-0.81,1.52-1.44,3.13-1.39,3.6c0.94,0.27,2.16,0.85,2.21,0.88l0.58,0.28l-3.73,3.68
				l10.35,22.86L217.79,95.22z"/>
		</g>
		<g>
			<path class="st7" d="M228.24,95.55l-0.65-0.63c3.19-3.28,8.45-20.86,9.21-23.43l-3.7-2.58l4.11-0.69
				c-0.26-1.21-1.48-3.87-2.28-5.44l0.81-0.41c0.25,0.49,2.43,4.8,2.43,6.22v0.38l-2.73,0.46l2.42,1.69l-0.09,0.31
				C237.52,72.26,231.83,91.87,228.24,95.55z"/>
		</g>
		<g>
			<path class="st7" d="M237.35,108.86c-5.07,0-10.33-1.4-14.34-2.82c-6.07-2.14-10.67-4.76-10.72-4.79l-0.38-0.22l0.2-0.39
				c0.77-1.5,1.06-5.94,1.07-5.99l0.03-0.48l0.48,0.06c0.11,0.01,11.23,1.41,13.67,1.65c1.83,0.18,8.15,0.23,12.33,0.26
				c1.45,0.01,2.69,0.02,3.48,0.03c3.38,0.05,4.66,1.87,4.71,1.95l-0.75,0.51c-0.04-0.06-1.1-1.51-3.97-1.55
				c-0.8-0.01-2.03-0.02-3.48-0.03c-4.45-0.03-10.54-0.08-12.41-0.26c-2.16-0.21-11.06-1.32-13.23-1.59
				c-0.09,1.13-0.37,3.94-0.95,5.46c2.59,1.41,18.73,9.81,29.95,6.55l0.25,0.87C241.42,108.63,239.4,108.86,237.35,108.86z"/>
		</g>
		<g>
			<path class="st7" d="M206.04,96.38c-3.46-3.4-1.69-17.41-1.3-20.19c0.79-5.63-0.76-8.67-0.78-8.7l0.8-0.42
				c0.07,0.13,1.71,3.3,0.87,9.26c-1.05,7.46-1.41,17.02,1.03,19.42L206.04,96.38z"/>
		</g>
		<g>
			<path class="st7" d="M199.23,98.12l-0.39-0.82c0.18-0.09,4.51-2.1,7.64-1.24l-0.24,0.87C203.43,96.16,199.27,98.1,199.23,98.12z"
				/>
		</g>
		<g>
			<path class="st7" d="M199.42,103.81l-0.78-0.47c0.16-0.27,4.05-6.62,7.69-6.8l0.04,0.91
				C203.76,97.58,200.47,102.09,199.42,103.81z"/>
		</g>
		<g>
			<path class="st7" d="M215.43,112.52c-0.66,0-1.33-0.01-2.02-0.03c-6.28-0.21-11.59-1.34-11.65-1.35l0.19-0.89
				c0.21,0.04,20.91,4.4,29.02-2.76l0.6,0.68C228.3,111.06,222.87,112.52,215.43,112.52z"/>
		</g>
		<g>
			<path class="st7" d="M202.54,135.77c-4.45,0-8.44-0.58-8.78-0.63l0.13-0.9c0.04,0.01,4.43,0.66,9.12,0.61
				c6.06-0.05,9.85-1.19,10.96-3.29c2.86-5.44,7.73-20,7.78-20.14l0.86,0.29c-0.2,0.6-4.94,14.77-7.84,20.28
				C213.17,135.04,207.56,135.77,202.54,135.77z"/>
		</g>
		<g>
			<path class="st7" d="M242.89,135.49c-2.23,0-4.8-0.09-7.5-0.34c-8.36-0.8-12.15-22.81-12.31-23.75l0.89-0.15
				c0.01,0.06,0.97,5.69,2.9,11.33c2.51,7.33,5.48,11.36,8.6,11.66c7.96,0.76,14.81,0.01,14.88,0l0.1,0.9
				C250.42,135.15,247.33,135.49,242.89,135.49z"/>
		</g>
		<g>
			<path class="st7" d="M223.98,139.9l-0.89-0.15c0.36-2.14,0.51-16.17,0.51-16.31l0.91,0.01
				C224.49,124.03,224.35,137.69,223.98,139.9z"/>
		</g>
		<g>
			<path class="st7" d="M213.7,163.28h-0.91c0-1.46-0.31-18.85-0.31-19.02l0.91-0.02C213.4,144.96,213.7,161.82,213.7,163.28z"/>
		</g>
		<g>
			<path class="st7" d="M219.4,236.85c-0.06-0.41-5.84-41.54-6.61-49.99c-0.77-8.47-0.78-14.35-0.78-14.41h0.91
				c0,0.06,0.01,5.91,0.78,14.33c0.77,8.44,6.54,49.54,6.6,49.95L219.4,236.85z"/>
		</g>
		<g>
			
				<rect x="254.58" y="187.27" transform="matrix(0.9775 -0.2109 0.2109 0.9775 -39.0413 58.5654)" class="st7" width="0.91" height="50.09"/>
		</g>
		<g>
			<path class="st4" d="M206.92,96.06c0,0,3.02-2.28,6.84-0.83c0,0-0.91,4.89-1.07,5.26s-2.02,0.9-3.74-0.78
				c-1.72-1.68-1.98-2.25-2.59-1.9S205.86,96.25,206.92,96.06z"/>
		</g>
		<g>
			<path class="st0" d="M236.29,96.22c0,0,2.55-4.07,2.58-5.16c0.03-1.09,1.95-3.31,4.1-3.27c0,0,0.66,0.1,0.23,0.93
				c0,0,0.76,0.56,0.36,1.69c0,0,0.33,0.56-0.03,1.29c-0.36,0.73-0.66,0.86-0.66,0.86s0.13,1.32-0.33,1.79
				c-0.46,0.46-2.54,2.02-2.54,2.02L236.29,96.22z"/>
		</g>
		<g>
			<path class="st7" d="M242.85,96.12c-0.16-1.06,0.23-2.43,0.61-3.75c0.19-0.68,0.38-1.32,0.48-1.89
				c0.29-1.62-0.33-9.44-1.17-13.29c-0.89-4.07,1.37-9.22,1.47-9.44l0.83,0.37c-0.02,0.05-2.24,5.1-1.41,8.87
				c0.88,4.01,1.49,11.92,1.18,13.65c-0.11,0.61-0.3,1.27-0.5,1.98c-0.35,1.23-0.72,2.5-0.59,3.37L242.85,96.12z"/>
		</g>
		<g>
			<path class="st2" d="M216.91,39.34c-0.13,0-0.27-0.06-0.36-0.17c-0.15-0.2-0.12-0.48,0.08-0.64c0.9-0.7,3.07-1.6,4.87,0.02
				c0.19,0.17,0.2,0.45,0.03,0.64c-0.17,0.19-0.45,0.2-0.64,0.03c-1.69-1.52-3.62-0.04-3.71,0.02
				C217.11,39.31,217.01,39.34,216.91,39.34z"/>
		</g>
		<g>
			<path class="st2" d="M230.75,39.14c-0.1,0-0.19-0.03-0.27-0.09c-2.49-1.88-4.26-0.3-4.33-0.23c-0.18,0.17-0.47,0.16-0.64-0.02
				c-0.17-0.18-0.16-0.47,0.02-0.64c0.02-0.02,2.38-2.17,5.5,0.17c0.2,0.15,0.24,0.44,0.09,0.64
				C231.02,39.08,230.89,39.14,230.75,39.14z"/>
		</g>
		<g>
			<path class="st8" d="M223.87,46.21c-0.03,0-0.07,0-0.11,0c-0.9-0.02-1.34-0.15-1.45-0.43c-0.06-0.15,0-0.3,0.08-0.39l0.32,0.32
				c0.05-0.05,0.01-0.11,0-0.12c0.01,0.01,0.15,0.14,1.05,0.16c0.56,0.02,0.92-0.09,1.02-0.29c0.12-0.24-0.06-0.69-0.5-1.25
				c-0.91-1.16,0.22-4.24,0.36-4.59l0.42,0.16c-0.33,0.88-1.06,3.33-0.42,4.15c0.58,0.73,0.76,1.32,0.55,1.74
				C225.02,46.03,224.58,46.21,223.87,46.21z"/>
		</g>
		<g>
			<path class="st5" d="M220.65,48.48h5.89c0,0-1.17,2.26-2.94,2.26S220.65,48.48,220.65,48.48z"/>
		</g>
		<g>
			<ellipse class="st9" cx="219.42" cy="41.11" rx="0.88" ry="1.13"/>
		</g>
		<g>
			<ellipse class="st9" cx="228.12" cy="41.11" rx="0.88" ry="1.13"/>
		</g>
	</g>
	<g>
		<g>
			<path class="st10" d="M107.83,232.53c-0.48,3.15-3.78,7.61-5.14,9.92c-0.57,0.96-0.75,2.56-0.76,4.09
				c-0.03,2.15,0.28,4.17,0.28,4.17c-8.03-3.22-4.73-9.4-4.05-11.04c0.69-1.64,0.51-4.12,0.51-4.12l-4.76,3.5l-0.62-0.65
				c0,0,3.91-4.91,4.8-6.5c0.89-1.6,4.8-1.56,5.49-1.7c0.68-0.14,0.41-4.8,0.41-4.8S108.31,229.38,107.83,232.53z"/>
		</g>
		<g>
			<path class="st11" d="M107.83,232.53c-0.48,3.15-3.78,7.61-5.14,9.92c-0.57,0.96-0.75,2.56-0.76,4.09h0
				c-5.09-1.22-1.35-10.51-1.35-10.51c1.19-1.03,3-5.83,3-5.83c0.68-0.14,0.41-4.8,0.41-4.8S108.31,229.38,107.83,232.53z"/>
		</g>
		<g>
			<path class="st12" d="M139.84,174.34H90.7c0,0,2.6,5.55,2.69,8.1c0.09,2.54-3.96,9.26,3.1,26.38
				c7.06,17.12,12.15,29.62,12.15,29.62s-0.09,7.83-0.82,9.82c-0.03,0.07-0.05,0.14-0.08,0.19c-0.8,1.62-0.44,6.39,3.23,6.24
				c3.67-0.15,3.89-5.94,3.82-7.33c-0.07-1.39,1.69-3.7,1.47-4.89c-0.21-1.16-2-3.88-2.12-4.05c0,0,0-0.01,0-0.01l-0.61-13.56
				c0,0,25.57-39.34,26.34-42.29C140.6,179.6,139.84,174.34,139.84,174.34z M112.22,197.27c0,0-0.76-5.21-0.96-8.92
				c-0.2-3.7,0.62-13.31,0.62-13.31h4.66c-0.27,2.68,3.57,10.02,3.57,10.02C115.45,186.64,112.22,197.27,112.22,197.27z"/>
		</g>
		<g>
			<path class="st10" d="M114.77,247.34c0.08,1.4-0.15,7.19-3.82,7.33c-3.67,0.15-4.03-4.62-3.23-6.24
				c0.03-0.05,0.05-0.12,0.08-0.19c0.34,1.04,1.03,2.32,2.29,2.32c2.13,0,4.12-1.71,4.53-4.66c0.4-2.87-0.47-7.28-0.51-7.51
				c0.11,0.17,1.91,2.89,2.12,4.05C116.46,243.64,114.7,245.95,114.77,247.34z"/>
		</g>
		<g>
			
				<rect x="112.64" y="197.26" transform="matrix(0.9989 -0.0464 0.0464 0.9989 -9.6809 5.4699)" class="st13" width="0.44" height="27.59"/>
		</g>
		<g>
			<path class="st14" d="M147.48,101.84l-4.72-6.89l7.6-7.25l-11.44-7.37c0,6.6-4.68,11.06-4.68,11.06s-0.09,1.62-1.53,10.54
				c0,0.03-0.01,0.05-0.01,0.08c-0.11,0.7-0.19,1.39-0.23,2.07c-0.5,7.97,3.39,14.93,5.75,25.89c2.57,11.92,2.53,45.52,2.53,45.52
				l-53.04,0.28l-4.14-22.61c0,0,0.14-71.41,0.91-82.11c0.78-10.7,13.17-12.61,13.17-12.61c1.96-0.22,4.46,1.27,6.86,3.25
				c-0.01,0.02-0.02,0.04-0.03,0.06c0,0-2.11,11.55-1.06,15.63h21.34c0,0-0.63-14.58-1.48-16.34c-0.06-0.12-0.13-0.28-0.21-0.47
				c0.23-0.22,0.44-0.43,0.63-0.62c2.97-2.97,8.92-1.98,8.92-1.98c21.4,8.96,29.59,24.79,30.76,27.13
				C164.56,87.46,147.48,101.84,147.48,101.84z"/>
		</g>
		<g>
			<path class="st12" d="M142.76,94.95c0,0-8.55,9.03-9.43,10.25c-0.89,1.22-1.98,0.61-1.7,4.57c0.27,3.96,1.64,6.55,0.82,8.39
				s1.7-0.75,2.18-4.77c0,0,0.75,9.27,1.3,10.16c0.55,0.89,0.68-16.16,0.68-16.16l11.47-6.05L142.76,94.95z"/>
		</g>
		<g>
			<path class="st15" d="M132.7,102.01c-0.11,0.7-0.19,1.39-0.23,2.07c-4.25,1.31-13.94,2.89-14.4,2.97c-0.01,0-0.02,0-0.02,0H105.8
				c-1.81-0.09-16.21-2.32-16.21-2.32s-0.17-2.33,0.6-1.78c0.78,0.55,15.6,1.78,15.6,1.78h12.26
				C122.45,104.85,129.95,102.81,132.7,102.01z"/>
		</g>
		<g>
			<path class="st16" d="M118.07,104.72v2.33c-0.01,0-0.02,0-0.02,0h-12.04v-2.33H118.07z"/>
		</g>
		<g>
			<path class="st17" d="M91.62,103.39c-0.04,0-0.07,0-0.11-0.01c-0.24-0.06-0.38-0.3-0.32-0.53c0.03-0.11,2.76-11.36-0.5-16.09
				c-3.5-5.06-1.96-10.42-1.9-10.64c0.07-0.23,0.32-0.37,0.55-0.3c0.23,0.07,0.37,0.32,0.3,0.55c-0.02,0.05-1.48,5.19,1.77,9.89
				c3.5,5.05,0.75,16.32,0.64,16.8C92,103.25,91.82,103.39,91.62,103.39z"/>
		</g>
		<g>
			<path class="st18" d="M114.72,19.45c0,0-9.39-1.21-12.58,8.19c-3.05,8.98-0.6,17.84-2.84,22.84c-2.24,5-13.01,14.74-9.31,26.54
				h48.43c0,0,1.55-11.29-5.6-19.99c-7.15-8.7-5.95-19.22-5.95-21.8S125.4,19.2,114.72,19.45z"/>
		</g>
		<g>
			<path class="st19" d="M124.95,31.84c-0.76-0.27-1.83-2.45-3.91-7.03l-0.2-0.43c-1.43-3.14-5.09-2.67-5.24-2.65l-0.09-0.66
				c0.04-0.01,4.3-0.56,5.94,3.03l0.2,0.43c1.17,2.58,2.94,6.47,3.52,6.68L124.95,31.84z"/>
		</g>
		<g>
			<path class="st19" d="M126.77,34.57c-2.83-0.44-7.59-5.35-8.63-8.9c-0.89-3.04-3.13-2.87-3.22-2.87l-0.06-0.66
				c0.03,0,2.87-0.24,3.92,3.34c0.96,3.29,5.5,8.02,8.09,8.43L126.77,34.57z"/>
		</g>
		<g>
			<path class="st19" d="M131.55,76.71l-0.65-0.14c0.9-4.13-0.73-15.93-4.36-22.11c-3.79-6.46-3.37-14.07-3.36-14.14l0.66,0.04
				c0,0.07-0.41,7.49,3.27,13.77C130.87,60.54,132.49,72.38,131.55,76.71z"/>
		</g>
		<g>
			<path class="st19" d="M128.72,76.7l-0.65-0.13c0.67-3.26-0.92-14.58-3.59-19.57c-2.66-4.96-2.86-12.66-2.86-12.99l0.66-0.01
				c0,0.08,0.2,7.87,2.78,12.69C127.85,61.88,129.42,73.28,128.72,76.7z"/>
		</g>
		<g>
			<path class="st19" d="M100.98,43.36l-0.66-0.01c0.06-2.97,1.2-5.72,2.18-7.78c0.95-2,2.14-4.49,4.01-6.36
				c0.68-0.68,1.48-1.22,2.26-1.74c0.6-0.4,1.22-0.82,1.76-1.29c1.4-1.21,2.58-2.65,3.55-3.9l0.52,0.41c-0.99,1.28-2.19,2.75-3.63,4
				c-0.58,0.5-1.21,0.93-1.83,1.34c-0.78,0.53-1.52,1.02-2.16,1.66c-1.79,1.79-2.95,4.22-3.88,6.17
				C102.14,37.86,101.04,40.52,100.98,43.36z"/>
		</g>
		<g>
			<path class="st19" d="M102,34.72l-0.66-0.09c0.02-0.12,1.75-12.07,11.71-13.6l0.1,0.65C103.68,23.14,102.02,34.61,102,34.72z"/>
		</g>
		<g>
			<path class="st19" d="M96.02,76.9c-0.62-0.46-0.99-1.37-1.11-2.7c-0.49-5.29,3.17-16.71,6.52-20.36
				c3.85-4.2,2.22-11.47,2.2-11.55l0.65-0.15c0.07,0.31,1.73,7.68-2.36,12.14c-3.26,3.56-6.82,14.7-6.35,19.85
				c0.1,1.12,0.4,1.89,0.85,2.23L96.02,76.9z"/>
		</g>
		<g>
			<path class="st19" d="M98.84,76.44c-1.21-1.53,0.93-14.64,4.03-18.81c2.93-3.96,2.77-12.37,2.76-12.46l0.66-0.02
				c0.01,0.35,0.18,8.73-2.89,12.87c-3.04,4.1-4.94,16.87-4.04,18.01L98.84,76.44z"/>
		</g>
		<g>
			<path class="st14" d="M124.77,77.39h-21.34c-1.06-4.08,1.06-15.63,1.06-15.63c0.01-0.02,0.02-0.04,0.03-0.06
				c4.22,3.49,8.11,8.53,8.11,8.53s7.11-6.39,10.45-9.65c0.08,0.19,0.15,0.35,0.21,0.47C124.14,62.82,124.77,77.39,124.77,77.39z"/>
		</g>
		<g>
			<path class="st12" d="M123.08,60.58c-3.34,3.25-10.45,9.65-10.45,9.65s-3.89-5.03-8.11-8.53c2.16-4.02,2.98-10.79,3.27-14.45
				c0,0,0,0,0,0c0.12-1.55,0.15-2.53,0.15-2.53l11.69-0.04c-0.06,1.08-0.02,2.21,0.1,3.36C120.24,53.16,122.21,58.57,123.08,60.58z"
				/>
		</g>
		<g>
			<path class="st16" d="M114.01,59.31c-0.04,0-0.08,0-0.12,0c-5.29-0.03-7.45-2.45-7.54-2.56c-0.08-0.09-0.07-0.23,0.02-0.31
				c0.09-0.08,0.23-0.07,0.31,0.02c0.02,0.02,2.13,2.37,7.21,2.4c0.04,0,0.08,0,0.11,0c5.99,0,6.77-2.88,6.78-2.91
				c0.03-0.12,0.15-0.19,0.27-0.16c0.12,0.03,0.19,0.15,0.16,0.26C121.18,56.2,120.37,59.31,114.01,59.31z"/>
		</g>
		<g>
			<path class="st13" d="M119.73,48.04c-1.28,1.77-2.98,3.23-5.1,3.23c-2.67,0-4.99-1.87-6.84-4.01c0,0,0,0,0,0
				c0.12-1.55,0.15-2.53,0.15-2.53l11.69-0.04C119.57,45.76,119.61,46.89,119.73,48.04z"/>
		</g>
		<g>
			<path class="st20" d="M114.63,25.39c0,0.07,1.42,0.82,1.59,0.94c1.85,1.34,2.6,3.47,3.89,5.26c0.76,1.07,1.67,2.25,2.87,2.86
				l2.07,0.3c0,0,0.38,5.27-2.4,5.86c0,0-2.64,9.32-8.01,9.32c-4.07,0-7.34-4.35-9.37-7.4c-0.8-1.2-1.19-2.16-1.28-3.61
				c-0.07-1.22-0.07-2.8,0.81-3.76C106.27,33.57,114.55,27.04,114.63,25.39z"/>
		</g>
		<g>
			<path class="st21" d="M120.57,33.8c-0.1,0-0.2-0.03-0.28-0.1c-2.05-1.73-3.56-0.33-3.63-0.27c-0.17,0.17-0.45,0.16-0.62-0.01
				c-0.17-0.17-0.17-0.45,0.01-0.62c0.02-0.02,2.13-2.03,4.81,0.23c0.19,0.16,0.21,0.44,0.05,0.62
				C120.82,33.75,120.7,33.8,120.57,33.8z"/>
		</g>
		<g>
			<path class="st21" d="M111.5,34.01c-0.15,0-0.3-0.08-0.38-0.22c-0.04-0.07-0.95-1.48-3.82-0.35c-0.23,0.09-0.48-0.02-0.57-0.25
				c-0.09-0.23,0.02-0.48,0.25-0.57c3.63-1.42,4.86,0.64,4.91,0.73c0.12,0.21,0.05,0.48-0.16,0.6
				C111.65,33.99,111.58,34.01,111.5,34.01z"/>
		</g>
		<g>
			<path class="st22" d="M114.36,40.55c-0.63,0-1.25-0.09-1.29-0.1l0.06-0.44c0.39,0.06,1.5,0.17,2.01,0.01
				c0.07-0.02,0.16-0.06,0.18-0.11c0.06-0.13-0.1-0.51-0.28-0.96c-0.1-0.25-0.22-0.54-0.34-0.88c-0.57-1.58,0.26-3.81,0.3-3.91
				l0.41,0.16c-0.01,0.02-0.81,2.18-0.29,3.6c0.12,0.34,0.24,0.62,0.33,0.87c0.26,0.66,0.41,1.02,0.27,1.32
				c-0.07,0.16-0.22,0.27-0.45,0.34C115.03,40.52,114.7,40.55,114.36,40.55z"/>
		</g>
		<g>
			<path class="st5" d="M111.67,42.85H117c0,0-0.91,2.31-2.66,2.31S111.67,42.85,111.67,42.85z"/>
		</g>
		<g>
			<ellipse cx="109.61" cy="35.32" rx="0.67" ry="0.85"/>
		</g>
		<g>
			<ellipse cx="118.76" cy="35.32" rx="0.67" ry="0.85"/>
		</g>
		<g>
			<path class="st20" d="M34.15,247.75c0.37,6.06-3.5,8.91-6.2,8.62c-2.7-0.3-2.26-7.08-2.26-7.08s0.61-1.35,1.3-2.91
				c0.81-1.85,1.72-4.01,1.84-4.61c0.22-1.1-0.8-13.65-0.8-13.65l7.15,1.02c0,0-1.26,11.4-1.06,17.71
				C34.12,247.16,34.14,247.46,34.15,247.75z"/>
		</g>
		<g>
			<path class="st23" d="M27.95,256.36c-2.7-0.3-2.26-7.08-2.26-7.08s0.61-1.35,1.3-2.91c0.23,2.12,0.86,5.55,2.35,4.52
				c1.4-0.97,3.52-2.87,4.78-4.04c0.01,0.31,0.02,0.61,0.04,0.9C34.52,253.8,30.65,256.65,27.95,256.36z"/>
		</g>
		<g>
			<path class="st20" d="M73.57,255.7c-1.75,1.24-5.33-3.36-6.17-4.33c-0.6-0.69,0.05-5.09,0.5-8.39c0.18-1.32,0.32-2.46,0.34-3.12
				c0.08-2.34-1.68-10.29-1.68-10.29l6.93-0.59c0,0-0.07,1.1-0.44,5.7c-0.37,4.6,0.8,7,1.9,11.68c0.02,0.07,0.03,0.14,0.04,0.21
				C76.03,251.15,75.3,254.48,73.57,255.7z"/>
		</g>
		<g>
			<path class="st23" d="M73.57,255.7c-1.75,1.24-5.33-3.36-6.17-4.33c-0.6-0.69,0.05-5.09,0.5-8.39c0.38,0.7,0.74,1.7,0.71,2.94
				c-0.08,2.55,2.84,6.2,4.08,4.67c0.91-1.13,1.76-1.94,2.31-4.02C76.03,251.15,75.3,254.48,73.57,255.7z"/>
		</g>
		<g>
			<path class="st23" d="M81,157.54l-2.82,71.48c0,0-1.1,2.01-5.75,2.74c-4.65,0.73-7.94-1.83-7.94-1.83s-3.65-36.43-4.11-44.46
				c-0.45-8.03-4.65-29.85-4.65-29.85l-16.44,73.13c0,0-3.1,2.1-7.03,2.1s-6.12-2.83-6.12-2.83c1.7-4.76,3.21-68.03,3.21-68.03
				l7.96-41.32l0.74-3.82l40.46,1.89l0.21,3.38L81,157.54z"/>
		</g>
		<g>
			<path class="st24" d="M78.71,120.13c-7.9-0.63-35.76-1.32-41.41-1.45l0.74-3.82l40.46,1.89L78.71,120.13z"/>
		</g>
		<g>
			<path class="st16" d="M54.61,119.46c-0.11,0-0.6-0.02-1.01-0.41c-0.37-0.35-0.56-0.89-0.56-1.59c0-2.02,1.34-2.2,1.36-2.2l3.48,0
				v0.44h-3.46c-0.01,0-0.94,0.15-0.94,1.76c0,0.57,0.14,1,0.41,1.26c0.32,0.31,0.72,0.29,0.72,0.29l3.26,0v0.44l-3.25,0
				C54.63,119.46,54.62,119.46,54.61,119.46z"/>
		</g>
		<g>
			<rect x="52.65" y="117.13" class="st16" width="3.15" height="0.44"/>
		</g>
		<g>
			<rect x="58.45" y="116.12" class="st16" width="0.44" height="2.98"/>
		</g>
		<g>
			<path class="st25" d="M50.39,12.63c-3.2,0.44-3.28,3.28-3.28,3.28s-2.1-1.29-3.33,0.27c-1.24,1.56,0,2.96,0,2.96
				s-2.8-1.45-4.46,1.18s0.43,4.62,0.43,4.62s-4.19,0.43-2.26,5.75c0,0-2.2,3.17,1.61,3.55c0,0-0.59,2.15,1.51,2.74
				c2.1,0.59,2.53-1.61,2.53-1.61s0.32,5.7,4.62,8.33l16.24-0.32c0,0,3.44-2.04,4.3-8.49s-3.33-12.8-7.96-14.73
				c0,0,1.29-2.2-0.11-3.28c-1.4-1.08-3.6-0.05-3.6-0.05s-0.43-2.42-2.8-1.83C53.83,15,52.76,12.31,50.39,12.63z"/>
		</g>
		<g>
			<path class="st26" d="M68.67,116.51l-29.73-1.56c0,0,4.89-24.14,5.7-30.97c0.81-6.83,0.11-27.74,0.81-28.23
				c0.3-0.21,1.12-0.34,2.02-0.47c1.22-0.17,2.58-0.3,2.98-0.55c0.37-0.23,0.49-2.44,0.54-4.5c0.04-1.9,0-3.67,0-3.67l10.58-0.28
				c0,0-0.1,1.7-0.16,3.53c-0.07,1.98-0.09,4.11,0.12,4.34c0.23,0.26,2.39,0.7,4.2,1.03c1.35,0.24,2.5,0.43,2.5,0.43L68.67,116.51z"
				/>
		</g>
		<g>
			<path class="st12" d="M65.75,55.73c0,3.84-4.1,6.96-9.15,6.96s-9.15-3.12-9.15-6.96c0-0.15,0-0.3,0.02-0.44
				c1.22-0.17,2.58-0.3,2.98-0.55c0.28-0.17,0.42-3.73,0.49-6.29c0.02-0.75,0.04-1.42,0.05-1.89c1.55-0.92,3.5,2.21,5.61,2.21
				c1.77,0,3.58-3.15,4.97-2.49c-0.02,0.52-0.04,1.3-0.07,2.16c-0.07,2.42-0.13,5.53,0.03,5.71c0.23,0.26,2.39,0.7,4.2,1.03
				C65.74,55.36,65.75,55.54,65.75,55.73z"/>
		</g>
		<g>
			<path class="st6" d="M45.91,55.56c0,0,0.08,31.09-2.11,41.19s-6.65,27.19-7.58,30.48s-3.7,19.7-3.96,22.98S30,161.26,30,161.26
				s-6.9-13.57-3.37-34.11c0,0-9.26-20.46-9.09-22.48c0.17-2.02,6.31-31.99,7.16-33.51c0.84-1.52,3.62-9.26,5.89-10.1
				C32.86,60.22,45.91,55.56,45.91,55.56z"/>
		</g>
		<g>
			
				<ellipse transform="matrix(0.4249 -0.9052 0.9052 0.4249 -93.923 100.6721)" class="st27" cx="32.27" cy="124.25" rx="6.78" ry="2.46"/>
		</g>
		<g>
			<path class="st12" d="M31.95,120.66c0,0,3.2,6.58,4.28,6.57s3.44-1,4.94,0c1.5,1,3.61,1.35,4.51,0.8
				c0.9-0.55,0.15,2.02-1.25,1.94c-1.4-0.08-5.06,0-5.06,0l1.65,1.97l-6.12,4.11c0,0-4.46-7.2-4.61-7.81
				c-0.15-0.61-1.25-2.39-1.25-2.39S30.75,120.86,31.95,120.66z"/>
		</g>
		<g>
			<path class="st6" d="M67.34,55.46c0,0,0.16,46.35,0.16,50.46s-0.13,20.4,0,25.03c0.13,4.63,0.33,30.31,0.33,30.31l15.19-0.46
				V137.6l10.37,0.39c0,0-2.67-35.53-3.32-42.89c-0.65-7.37-5.61-31.42-10.3-34.55C75.06,57.41,69.61,55.56,67.34,55.46z"/>
		</g>
		<g>
			<path class="st12" d="M87.78,137.77c0,0,1.14,6.82,0.5,8.79c-0.64,1.97-3.33,7.77-6.63,7.26c0,0-0.43-1.21,0.52-2.1
				c0.95-0.89,1.78-8.15,1.78-8.91c0,0-1.53-0.32-1.78,1.08c-0.26,1.4-1.39,3.56-2.06,3.63c-0.68,0.06,0.98-3.37,0.98-4.71
				c0-1.34,0.4-5.35,1.51-5.44L87.78,137.77z"/>
		</g>
		<g>
			<path class="st28" d="M67.96,109.41c-0.02,0-0.04,0-0.06-0.01c-0.18-0.03-0.3-0.21-0.26-0.39l7.46-39.58l-5.97-5.44l3.5-3.89
				l-4.87-3.82c-0.14-0.11-0.17-0.32-0.06-0.46c0.11-0.14,0.32-0.17,0.46-0.06l5.43,4.26l-3.54,3.93l5.76,5.25l-7.53,39.95
				C68.25,109.3,68.12,109.41,67.96,109.41z"/>
		</g>
		<g>
			<path class="st28" d="M82.43,137.7c-0.18,0-0.32-0.14-0.33-0.32c-0.01-0.27-0.91-27.45-0.91-33.39c0-6-1.17-22.81-1.76-26.61
				c-0.59-3.78,0.29-14.61,0.32-15.07c0.01-0.18,0.17-0.31,0.36-0.3c0.18,0.01,0.32,0.17,0.3,0.36c-0.01,0.11-0.9,11.22-0.33,14.92
				c0.59,3.82,1.76,20.69,1.76,26.71c0,5.92,0.9,33.09,0.91,33.37c0.01,0.18-0.14,0.34-0.32,0.34
				C82.44,137.7,82.43,137.7,82.43,137.7z"/>
		</g>
		<g>
			<path class="st28" d="M93,133.19H82.43c-0.18,0-0.33-0.15-0.33-0.33s0.15-0.33,0.33-0.33H93c0.18,0,0.33,0.15,0.33,0.33
				S93.18,133.19,93,133.19z"/>
		</g>
		<g>
			<path class="st28" d="M80.11,80.67c-0.17,0-0.32-0.13-0.33-0.3c-0.5-5.96,2.24-11.55,2.36-11.79c0.08-0.16,0.28-0.23,0.44-0.15
				c0.16,0.08,0.23,0.28,0.15,0.44c-0.03,0.06-2.78,5.66-2.29,11.44c0.02,0.18-0.12,0.34-0.3,0.36
				C80.12,80.67,80.11,80.67,80.11,80.67z"/>
		</g>
		<g>
			<ellipse class="st29" cx="71.09" cy="115.43" rx="1.24" ry="1.73"/>
		</g>
		<g>
			<ellipse class="st29" cx="71.09" cy="129.97" rx="1.24" ry="1.73"/>
		</g>
		<g>
			<path class="st28" d="M81.91,131.05c-0.07,0-0.13-0.02-0.19-0.06l-6.58-4.59l-0.58-8.86l7.17,5.75c0.14,0.11,0.17,0.32,0.05,0.47
				c-0.11,0.14-0.32,0.17-0.47,0.05l-6-4.81l0.46,7.04l6.32,4.41c0.15,0.1,0.19,0.31,0.08,0.46C82.12,131,82.01,131.05,81.91,131.05
				z"/>
		</g>
		<g>
			<path class="st28" d="M42.21,102.45c-0.15,0-0.29-0.11-0.32-0.26c-0.02-0.08-1.7-7.88-3.17-15.75c-3-16.1-2.2-16.78-1.86-17.07
				c1.27-1.07,4.42-4.23,5.59-5.42l-5.57-0.9l4.71-5.93c0.11-0.14,0.32-0.17,0.47-0.05c0.14,0.11,0.17,0.32,0.05,0.47l-4,5.04
				l5.71,0.92l-0.45,0.46c-0.18,0.19-4.49,4.57-6.08,5.91c-0.52,0.64,0.44,9.96,5.25,32.18c0.04,0.18-0.07,0.36-0.25,0.39
				C42.26,102.45,42.23,102.45,42.21,102.45z"/>
		</g>
		<g>
			<path class="st28" d="M35.64,118.6c-0.14,0-0.27-0.09-0.31-0.23l-5.07-15l0-0.06c0.01-0.2,0.76-20.11,0.67-26.84
				c-0.08-6.71-1.33-14.01-1.34-14.08c-0.03-0.18,0.09-0.35,0.27-0.38c0.18-0.03,0.35,0.09,0.38,0.27
				c0.01,0.07,1.27,7.42,1.35,14.18c0.08,6.56-0.63,25.58-0.67,26.81l5.03,14.89c0.06,0.17-0.03,0.36-0.21,0.42
				C35.71,118.59,35.68,118.6,35.64,118.6z"/>
		</g>
		<g>
			<path class="st28" d="M30.84,78.99c-0.17,0-0.31-0.13-0.33-0.3c-0.36-4.02-3.14-9.76-3.17-9.82c-0.08-0.16-0.01-0.36,0.15-0.44
				c0.16-0.08,0.36-0.01,0.44,0.15c0.12,0.24,2.86,5.9,3.23,10.05c0.02,0.18-0.12,0.34-0.3,0.36
				C30.86,78.99,30.85,78.99,30.84,78.99z"/>
		</g>
		<g>
			<path class="st28" d="M22.59,104.41c-0.14,0-0.27-0.09-0.31-0.23c-0.06-0.17,0.04-0.36,0.21-0.42c0.26-0.09,6.45-2.08,8.59,0.07
				c0.13,0.13,0.13,0.34,0,0.47c-0.13,0.13-0.34,0.13-0.47,0c-1.54-1.55-6.23-0.46-7.91,0.09
				C22.66,104.41,22.63,104.41,22.59,104.41z"/>
		</g>
		<g>
			<path class="st28" d="M30.65,101.97c-0.08,0-0.15-0.03-0.22-0.08c-2.68-2.33-8.47-2.53-8.53-2.53c-0.18-0.01-0.33-0.16-0.32-0.34
				c0.01-0.18,0.15-0.33,0.34-0.32c0.25,0.01,6.08,0.2,8.94,2.69c0.14,0.12,0.15,0.33,0.03,0.47
				C30.84,101.93,30.74,101.97,30.65,101.97z"/>
		</g>
		<g>
			<path class="st13" d="M61.57,46.28c-0.02,0.52-0.04,1.3-0.07,2.16c-0.98,1.17-2.22,2.19-3.74,2.72c0,0-3.29,1.24-6.82-2.72
				c0.02-0.75,0.04-1.42,0.05-1.89c1.55-0.92,3.5,2.21,5.61,2.21C58.36,48.77,60.17,45.62,61.57,46.28z"/>
		</g>
		<g>
			<path class="st20" d="M44.8,35.86c0,0,3.66-0.32,3.28-4.46c0,0,2.47-0.16,2.31-3.76c0,0,4.09,0.7,6.34-2.2
				c0,0,8.06-1.18,8.39,9.36c0,0,1.08-0.7,1.88-0.16c0.81,0.54,0.22,4.62-1.72,6.13c0,0-0.43-0.27-0.65,0.48
				c-0.22,0.75-2.26,6.99-6.88,8.6c0,0-5.97,2.26-10.48-9.03c0,0-0.32,0.54-0.97-0.05C45.66,40.16,42.99,36.56,44.8,35.86z"/>
		</g>
		<g>
			<circle class="st26" cx="46.74" cy="40.76" r="1.02"/>
		</g>
		<g>
			<circle class="st26" cx="65.23" cy="40" r="1.02"/>
		</g>
		<g>
			<path class="st30" d="M57.1,25.68l-0.73-0.5c0.01-0.01,0.98-1.46,1.12-3.05c0.19-2.07,2.69-2.39,2.79-2.4l0.11,0.88
				c-0.02,0-1.89,0.25-2.02,1.61C58.2,24.04,57.14,25.61,57.1,25.68z"/>
		</g>
		<g>
			<path class="st30" d="M41.89,32.14c-0.62-0.44-1.64-1.75-1.04-3.61c0.47-1.46,1.59-1.93,2.45-2.01
				c-0.21-0.78-0.37-2.11,0.58-2.98c1.38-1.26,3.03-0.46,3.1-0.43l-0.4,0.79c-0.05-0.02-1.18-0.56-2.11,0.29
				c-0.92,0.84-0.16,2.59-0.15,2.61l0.34,0.76l-0.82-0.15c-0.16-0.03-1.63-0.23-2.16,1.39c-0.55,1.69,0.65,2.58,0.7,2.62
				L41.89,32.14z"/>
		</g>
		<g>
			<path class="st30" d="M52.67,24.35c-0.52-0.49-1.23-1.79-0.15-3.26c0.37-0.5,0.83-0.79,1.38-0.85c1.1-0.13,2.12,0.74,2.16,0.78
				l-0.58,0.67c-0.21-0.18-0.9-0.64-1.49-0.57c-0.3,0.03-0.55,0.2-0.77,0.49c-0.88,1.2,0.01,2.05,0.04,2.09L52.67,24.35z"/>
		</g>
		<g>
			<path class="st30" d="M45.72,30.5c-0.01-0.08-0.23-1.94,0.83-3.17c0.57-0.67,1.39-1.02,2.43-1.05L49,27.16
				c-0.78,0.02-1.38,0.27-1.78,0.74c-0.81,0.94-0.63,2.48-0.63,2.49L45.72,30.5z"/>
		</g>
		<g>
			<path class="st25" d="M49.21,34.15c-0.13,0-0.25-0.06-0.34-0.16c-0.15-0.19-0.13-0.47,0.06-0.62c0.91-0.74,3.14-1.78,5.1-0.4
				c0.2,0.14,0.25,0.42,0.11,0.62c-0.14,0.2-0.42,0.25-0.62,0.11c-1.91-1.35-4.01,0.34-4.04,0.36
				C49.41,34.12,49.31,34.15,49.21,34.15z"/>
		</g>
		<g>
			<path class="st25" d="M63.08,34.15c-0.13,0-0.27-0.06-0.35-0.18c-0.44-0.58-0.95-0.92-1.53-1c-1.06-0.14-2.03,0.59-2.04,0.59
				c-0.19,0.15-0.47,0.11-0.62-0.08c-0.15-0.19-0.11-0.47,0.08-0.62c0.05-0.04,1.26-0.96,2.69-0.77c0.83,0.11,1.54,0.56,2.13,1.35
				c0.15,0.2,0.11,0.47-0.09,0.62C63.26,34.12,63.17,34.15,63.08,34.15z"/>
		</g>
		<g>
			<path class="st22" d="M56.9,40.98c-0.06,0-0.12,0-0.17,0l-1.45-0.05c-0.12,0-0.22-0.11-0.21-0.23c0-0.12,0.11-0.22,0.23-0.21
				l1.45,0.05c0.48,0.02,0.77-0.05,0.89-0.2c0.21-0.29-0.01-1.09-0.4-2.19c-0.78-2.18,0.41-3.85,0.46-3.92
				c0.07-0.1,0.21-0.12,0.31-0.05c0.1,0.07,0.12,0.21,0.05,0.31c-0.01,0.02-1.1,1.55-0.4,3.5c0.49,1.37,0.68,2.14,0.34,2.6
				C57.75,40.91,57.31,40.98,56.9,40.98z"/>
		</g>
		<g>
			<path class="st5" d="M53.56,42.85h5.32c0,0-0.91,2.31-2.66,2.31S53.56,42.85,53.56,42.85z"/>
		</g>
		<g>
			<ellipse class="st25" cx="52.72" cy="35.68" rx="0.87" ry="1.01"/>
		</g>
		<g>
			<ellipse class="st25" cx="60.11" cy="35.68" rx="0.87" ry="1.01"/>
		</g>
	</g>
	<g>
		<path d="M172.93,75.47c0,0-8.9,1-9.29,1.99c-0.39,0.98-3.32-11.1-3.32-11.1l5.33-16.1l7.27,13.33V75.47"/>
		<polygon class="st31" points="195.71,206.72 172.74,204.17 172.74,205.93 192.6,208.02 		"/>
		<polygon class="st32" points="196.51,207 172.95,208.22 172.95,209.83 197.04,208.41 		"/>
		<polygon class="st32" points="191.2,152.34 203.09,246.77 201.81,246.77 186.95,152.81 		"/>
		<polygon class="st33" points="171.39,193.48 177.17,241.78 176,241.78 168.57,194.43 		"/>
		<polygon class="st34" points="138.65,190.87 131.54,246.03 133.13,246.03 141.41,190.87 		"/>
		
			<rect x="150.86" y="148.09" transform="matrix(-1 -4.489266e-11 4.489266e-11 -1 349.4866 302.2403)" class="st32" width="47.77" height="6.05"/>
		<path class="st35" d="M164.75,80.46c0.18-0.38,0.34-0.72,0.49-1.04c-1.13-1.94-2.45-5.26-1.82-9.57
			c1.03-7.09,4.52-16.19,3.88-18.72c-0.64-2.53-2.28-0.38-2.28-0.38s-0.18,5.71-3.3,10.29C158.72,65.43,151.39,73.63,164.75,80.46z"
			/>
		<path class="st12" d="M166.21,55.24c-0.64,1.32-1.45,12.71,4.69,13.61v6.91c0,0,2.43,4.09,7.85,0c5.42-4.09,6.57-18.6,5.84-21.11
			c-0.72-2.51-8.27-6.48-18.94-4.39C165.66,50.25,166.85,53.92,166.21,55.24z"/>
		<path class="st36" d="M170.9,68.85v3.5c6.87-2.92,6.95-7.9,6.95-8.14C176.52,68.89,170.9,68.85,170.9,68.85z"/>
		<path class="st37" d="M176.45,55.92c0,0-1.75-1.41-4.09-0.51"/>
		<path class="st37" d="M169.24,55.11c0,0-1.75-1.19-3.03,0.13"/>
		<path class="st38" d="M169.84,55.92c0,0,0.9,1.32,0,2.77s-1.71,2.09-0.3,2.22s1.41,0.13,1.41,0.13"/>
		<path class="st5" d="M172.35,62.79h-4.26c0,0,0.73,1.49,1.77,1.58C170.9,64.45,172.35,62.79,172.35,62.79z"/>
		<ellipse class="st39" cx="172.93" cy="57.54" rx="0.57" ry="0.95"/>
		<ellipse class="st39" cx="168.09" cy="57.11" rx="0.57" ry="0.95"/>
		<path d="M183.78,43.56c5.37,3.7,0.38,6.48,4.29,11.44c3.91,4.96,13.91,14.68,7.24,20.4c0,0,0.57-4.86-1.91-6.1
			c0,0,1.62,5.43-0.1,7.15s-15.06,5.62-18.58,5.05c0,0,7.15-10.86,5.72-19.44c0,0,3.57-0.36,2.71-2.93
			c-0.86-2.57-3.47-0.88-3.47-0.88s-0.57-6.67-2.38-6.67c0,0-5.33,2.37-7.98,0.48c-2.65-1.89-3.41-0.32-3.41-0.32
			s-2.52-0.57-2.65-2.97c0,0-1.39,1.01-1.2,2.08c0,0-1.83-5.68,2.84-6.06c4.67-0.38,6.94,1.32,9.84-0.32S181.27,41.83,183.78,43.56z
			"/>
		<path class="st12" d="M187.74,77.57c4.29,0.49,6.54,3.17,6.63,8.35c0.1,5.18-13.27,1.11-13.27,1.11S179.95,76.68,187.74,77.57z"/>
		<path class="st40" d="M137.8,103.83c-0.05,1.02,1.75,8.03,2.48,8.32c0.73,0.29,0.88,0.63,0.88,0.63l0.49,4.92
			c0,0,6.43,1.66,9.44,0v-1.42c0,0,3.21,0.15,7.74,0.79s12.62,1.47,13,1.37c0.39-0.1,0.49-8.18,0.49-8.18l-16.21,0.39
			c0,0,0-3.21-1.66-4.77c-1.66-1.56-1.17-5.65-0.78-5.94c0,0,0.29-1.49-0.64-2.11v-1.89c0,0-4.72-1.31-13.48,0v1.89
			c0,0-0.88,0.61-1.02,1.7c0,0,0.54,0.55,1.56,0.6l0.05,2.3C140.14,102.42,137.85,102.81,137.8,103.83z"/>
		<path class="st41" d="M138.53,99.53c0,0,0.54,0.55,1.56,0.6l0.05,2.3l0.34,1.55c4.92,1.75,2.34,9.29,2.34,9.29l-1.65-0.48
			l0.49,4.92c0,0,6.43,1.66,9.44,0v-1.42c0,0,0.3-10.6,0.15-13.4c-0.15-2.8,2.44-2.95,2.44-2.95s0.26-1.36-0.52-2.02
			c-0.04-0.03-0.08-0.06-0.12-0.09v-1.89c0,0-4.72-1.31-13.48,0v1.89C139.55,97.83,138.68,98.44,138.53,99.53z"/>
		<path class="st42" d="M139.55,95.94v1.89c0,0,6.01,2.59,13.6,0.09c-0.04-0.03-0.08-0.06-0.12-0.09v-1.89
			C153.04,95.94,147.54,97.5,139.55,95.94z"/>
		<path class="st43" d="M170.01,113.26c0,0-7.42-0.03-7.15-3.61c0,0,5.46-0.71,7.15-0.21V113.26z"/>
		<path class="st12" d="M167.23,106.76c0,0,3.55,10.61,2.72,13.85l21.43-4.39l-0.26-3.76L167.23,106.76z"/>
		<polyline class="st44" points="141.04,103.79 147.85,104.22 147.85,112.54 143.06,112.4 		"/>
		<path class="st12" d="M136.16,220.32c-0.72,2.29,0.52,2.81,0.52,2.81c4.12-0.72,12.28-11.69,11.92-14.17
			c-0.35-2.48,2.97-12.08,3.29-14.37c0.33-2.29-5.94-3.72-5.94-3.72c0-1.44-0.65-16.07-0.65-16.07l-11.1,1.76
			c0,0,4.38,18.81,4.96,26.65c0.21,2.76-0.01,5.41-0.42,7.79C138,215.38,136.63,218.84,136.16,220.32z"/>
		<path class="st45" d="M136.68,223.13c4.12-0.72,12.28-11.69,11.92-14.17c-0.35-2.48,2.97-12.08,3.29-14.37
			c0.33-2.29-5.94-3.72-5.94-3.72s-0.91,12.67-1.31,14.56c-0.39,1.89-3.26,4.87-5.9,5.57c-0.75,4.38-2.12,7.84-2.58,9.32
			C135.44,222.61,136.68,223.13,136.68,223.13z"/>
		<path class="st46" d="M127.15,145.31c0.02,0.18,0.04,0.36,0.06,0.55c0.99,7.31,5.33,32.6,5.33,32.6l25.03-3.89l-2.22-7.76
			l-3.48-12.15l17.85-5.26l2.11-22.25c0,0-34.46,9.05-36.32,9.6C133.7,137.3,126.6,138.49,127.15,145.31z"/>
		<path class="st47" d="M172.68,133.79c0,0-3.18-2.99-4.42-3.28c-1.24-0.3-3.28-1.14-2.54-0.4s4.08,7.56,3.93,8.71
			s-0.43,2.59-2.43,1.79c-2-0.8-7.36-3.38-12.17-3.58c-4.81-0.2-14.96-0.25-14.96-0.25s25.72,6.37,25.62,7.56
			c-0.1,1.19-1.93,2.85-2.91,2.99s-8.34,0.29-13.91-1.9c-5.57-2.19-14.18-4.63-16.47-2.34l19.45,11.79l13.37-3.77L172.68,133.79z"/>
		<path class="st47" d="M127.15,145.31c0.02,0.18,0.04,0.36,0.06,0.55c0.99,7.31,5.33,32.6,5.33,32.6l25.03-3.89l-2.22-7.76
			l-0.3-0.38C145.3,170.69,128.52,147.26,127.15,145.31z"/>
		<path class="st12" d="M140.53,254.12c0,0,12.59,0.35,14.91-1.01c2.32-1.36,4.54-4.35,6.4-7.94c1.86-3.59,2.77-4.55,3.33-4.95
			c0.56-0.4,2.27-2.87,0.71-4.33c-1.56-1.46-4.03-3.88-4.03-3.88l2.27-8.11l-9.15-5.07c0,0-1.36,13.06-1.73,14.29
			c-0.37,1.23-2.17,10.83-5.85,14.76c0,0-3.78,3.22-5.19,3.43C140.78,251.5,140.48,253.01,140.53,254.12z"/>
		<path class="st45" d="M140.53,254.12c0,0,12.59,0.35,14.91-1.01c2.32-1.36,4.54-4.35,6.4-7.94c1.86-3.59,2.77-4.55,3.33-4.95
			c0.56-0.4,2.27-2.87,0.71-4.33c-1.56-1.46-4.03-3.88-4.03-3.88s-4.33,16.68-14.46,15.87c0,0-3.78,3.22-5.19,3.43
			C140.78,251.5,140.48,253.01,140.53,254.12z"/>
		<path class="st48" d="M146.42,218.87c0,0,4.61,0.67,9.94,3.54c0.72,0.39,1.46,0.82,2.2,1.29c0.44,0.28,0.87,0.53,1.29,0.74
			c1.59,0.8,3.07,1.14,4.38,1.22c3.27,0.21,5.44-1.21,5.44-1.21s3.02-14.13,3.52-17.73c0.49-3.59-1.12-7.31-1.12-7.31l9.94-33.64
			c0,0,6.58-4.1,12.96-13.8c0.79-1.2,1.58-2.49,2.35-3.87c7-12.49-5.28-24.41-5.55-25.77c-0.27-1.36,0-0.94,0-6.27
			c-1.55,0.76-10.62,0.38-16.65,0.04c-0.36-0.02-0.71-0.04-1.04-0.06c-2.6-0.15-4.41-0.29-4.41-0.29l0.42,13.02l-5.33,23.54
			l-9.79,14.25l-2.6,8.01L146.42,218.87z"/>
		<path class="st47" d="M156.37,222.41c-0.74,0.46-1.18,0.72-1.18,0.72l4.67,1.31l4.38,1.22c3.27,0.21,5.44-1.21,5.44-1.21
			s3.02-14.13,3.52-17.73c0.49-3.59-1.12-7.31-1.12-7.31l9.94-33.64c0,0,6.58-4.1,12.96-13.8c-4.33,2.82-19,11.82-34.31,15.12
			c0.79-0.14,20.21-3.5,22.19-5.21l-26.65,30.52c0,0,19.52-15.93,23.79-23.61c-3.31,7.96-16.74,38.76-27.43,41.97
			c0,0,14.95-0.92,18.47-10.23c0,0,1.51,8.97-1.43,12.32C167.25,215.56,159.37,220.55,156.37,222.41z"/>
		<path class="st47" d="M174.31,123.77c-0.09,2.22,0.3,5.57,0.3,5.57l4.74-8.53l-4.2,0.18l-0.03-4.88
			c-0.36-0.02-0.71-0.04-1.04-0.06v5.11h-3.13C170.96,121.16,174.4,121.55,174.31,123.77z"/>
		<ellipse class="st47" cx="172.08" cy="118.89" rx="0.6" ry="0.83"/>
		<path class="st35" d="M164.75,80.46c0.58,0.29,1.2,0.59,1.86,0.88c0,0-0.64-0.68-1.37-1.92
			C165.09,79.74,164.93,80.08,164.75,80.46z"/>
		<path class="st49" d="M160.34,91.64c0.29,2.08,3.88,13.95,2.52,18.01c0,0,9.83-1.5,18.3,2.23c0,0,9.73,3.1,14.19,1.4l-0.24-11.91
			c0,0,0,0,0.01,0c0.15-0.08,2.12-1.13,2.22-1.69l-2.86-13.85c0,0-8.59,3.97-16.62-0.43c-8.03-4.41-9.56-6.84-6.95-9.64
			c0,0-4.03-0.14-5.19,2.62c-0.12,0.29-0.28,0.64-0.47,1.05c0.72,1.25,1.37,1.92,1.37,1.92c-0.66-0.29-1.28-0.59-1.86-0.88
			C163.02,84.09,160.1,89.95,160.34,91.64z"/>
		<path class="st43" d="M192.27,100.67v1.52l2.84-0.82c0,0,0,0,0.01,0c0.15-0.08,2.12-1.13,2.22-1.69
			C192.92,101.06,192.27,100.67,192.27,100.67z"/>
		<path class="st12" d="M169.49,78.14c-0.03,0.38,1.98,7.02,9.84,8.37c0.88,0.15,1.77,0.5,2.8,0.5l1.03-7.34l-1.85-1.25l-3.46-2.34
			l-6.78-0.84C171.07,75.24,169.52,77.71,169.49,78.14z"/>
		<path d="M178.92,86.44c0.88,0.15,1.57,0.41,2.59,0.54l1.24-7.58l-1.85-1.25C180.23,79.15,179.06,82.33,178.92,86.44z"/>
		<path class="st12" d="M192.29,100.79c0,0,1.74,13.8-2.23,19.17c-3.97,5.37-28.62,38.11-28.62,38.11s-0.05-6.34,0.77-9.34
			c0.82-3,5.57-7.31,6.68-9.3c1.11-1.99,10.65-23.1,11.67-24.35c0,0,1.11-13.32,0.53-15.54c0,0,2.18,0,3.78,0.53
			S191.18,101.47,192.29,100.79z"/>
		<path class="st43" d="M181.11,99.53l0.14,1.2l0.03,1.65c0,0-4.17-0.47-4.33-2.1C176.95,99.28,180.76,99.44,181.11,99.53z"/>
		<line class="st50" x1="177.93" y1="86.52" x2="177.23" y2="100.28"/>
	</g>
</g>
</svg>
