<svg xmlns="http://www.w3.org/2000/svg" viewBox="0 0 248.87 243.79"><style><![CDATA[.z{fill:#ff9971}.AA{fill:#fe9b72}.AB{fill:#fb986f}.AC{fill:#454384}.AD{fill:#ea825e}.AE{fill:#ffbc73}.AF{fill:#12182c}.AG{fill:#9e0418}.AH{stroke-miterlimit:10}.AI{stroke-linecap:round}]]></style><path d="M205.94 226.71a.55.55 0 0 1-.06.29c-.32.49-.64 3.92-.84 8.54s-.42 6.86-4.4 7.22c-3.69.33-4.08-3-4.27-4.66a10.6 10.6 0 0 1 .65-3.06l2.91-8.14c.39-1.1-.58-3.52-.58-3.52h5.92a16.24 16.24 0 0 1 .67 3.33z" class="AA"/><path d="M205.94 226.71a.55.55 0 0 1-.06.29c-.32.49-.64 3.92-.84 8.54s-.42 6.86-4.4 7.22c-3.69.33-4.08-3-4.27-4.66a10.6 10.6 0 0 1 .65-3.06v1.6a18.47 18.47 0 0 1 6.7 0c0 0 1.13-8.65 2.22-9.93z" fill="#19193f"/><path d="M246.11 243.2c-4.34.08-5.82-6.7-5.82-8.59s-.88-2.05-.88-2.05v4h-.8s-.24-1.89-.28-3.42a8.9 8.9 0 0 0-1-4.25 3.45 3.45 0 0 1 .31-3h0a4.52 4.52 0 0 1 .58-.92c.36-.4 0-1.77 0-1.77l5.94-.28s.32 4.18.32 5.22 3.94 8.27 3.94 8.27.15.49.29 1.21c.31 1.9.57 5.52-2.6 5.58z" class="AA"/><path d="M246.11 243.2c-4.34.08-5.82-6.7-5.82-8.59s-.88-2.05-.88-2.05v4h-.8s-.24-1.89-.28-3.42a8.9 8.9 0 0 0-1-4.25 3.45 3.45 0 0 1 .31-3c0 .14.51 2.87 1.26 3.66a9 9 0 0 1 2.73 5.1c.24 2.45 3.37 5.58 6.62 3.25a6.27 6.27 0 0 1 .45-.28c.32 1.9.58 5.52-2.59 5.58z" fill="#19193f"/><path d="M195.27 8.53c-2.62 1.56-2.14 3.76-2.14 3.76s-4.86-2.2-6.68 2.79c0 0-6.61 1.1-4.73 6.94 0 0-1.82 2.72-3.37 2.92s-2.46 4.15-.84 5.25c0 0-6 3.24-1.75 7.26 0 0-3.18 1.94-2.53 5.38s5.77 3.82 5.77 3.82-.84 2.4-1.36 2.4-2.79 5.7 5.9 4.73 44.28-1.1 44.28-1.1 7.2.71 6.29-7.52c0 0 4.76-2.66.08-6 0 0 2.9-1.56 2.06-4s-4.21-4.34-4.21-4.34.65-6.16-4.15-6.42c0 0-.58-8.1-6.81-7.58 0 0-.78-4.93-5.32-4.15 0 0-2.85-5.12-7.13-3 0 0-4.47-3.82-7.39-1.1a5.35 5.35 0 0 0-5.97-.04z" fill="#542816"/><path d="M219.55 26.51c-2.79-.27-3.1-1.81-3.1-5a2.42 2.42 0 0 0-.73-1.83 5.17 5.17 0 0 0-3.33-1h-.19l-.05-.18c-.4-1.62-1.06-2.61-2-2.95a3.1 3.1 0 0 0-2.53.46l-.26-.37a3.53 3.53 0 0 1 2.95-.52c1 .38 1.77 1.42 2.21 3.09a5.32 5.32 0 0 1 3.48 1.1 2.85 2.85 0 0 1 .88 2.16c0 3.34.35 4.35 2.69 4.57zm2.29 18.37l-.28-.12a1.77 1.77 0 0 1-1.33-1.43 2.52 2.52 0 0 1 .45-1.7c.35-.67.54-1.1.28-1.36a3.34 3.34 0 0 0-.53-.38c-1-.62-2.5-1.57-1.41-5.16 1.2-4-.79-4.85-.88-4.89l.17-.42c.1 0 2.46 1.06 1.14 5.44-1 3.27.29 4.06 1.22 4.65a3.3 3.3 0 0 1 .61.44c.52.52.14 1.25-.2 1.89a2.29 2.29 0 0 0-.42 1.37c.21.78.46.88 1.07 1.13l.28.12zm6.52-11.92c0-1.67-.36-2.78-1-3.31a2.89 2.89 0 0 0-2.36-.3c-.69.1-1.29.19-1.64-.19s-.3-.77-.13-1.54c.88-3.84-2.2-4.87-2.34-4.91l.14-.43s3.62 1.19 2.64 5.45c-.17.73-.08 1 0 1.13s.7.12 1.24 0a3.28 3.28 0 0 1 2.72.41c.73.62 1.11 1.81 1.14 3.64zm-2.73 16.87l-.31-.33c.29-.27 1.06-1.12 1-1.74a.6.6 0 0 0-.23-.47c-.72-.63-1.32-1.8 0-3.85a3.69 3.69 0 0 0-.43-4.76c-1.73-1.59-.4-3.76-.39-3.78l.38.24a2.57 2.57 0 0 0 .31 3.21 4.13 4.13 0 0 1 .51 5.33c-.89 1.43-.9 2.53 0 3.27a1 1 0 0 1 .38.81c-.01.95-1.17 2.03-1.22 2.07zm-8.31-3.17a1.8 1.8 0 0 1-1.38-.62 3.2 3.2 0 0 1-.47-2.26v-.1l.08-.06a2 2 0 0 0 .77-1.23 2.86 2.86 0 0 0-.71-2.15c-1.9-2.54.46-5.37.48-5.39l.35.29c-.09.1-2.15 2.58-.46 4.83a3.24 3.24 0 0 1 .79 2.5 2.47 2.47 0 0 1-.87 1.46 2.66 2.66 0 0 0 .38 1.81 1.34 1.34 0 0 0 1 .46zm13.31 1.06l-.43-.14a9.19 9.19 0 0 1 1.26-2.28c.73-1 .55-1.89-.74-3.77a2.36 2.36 0 0 1-.45-1.85 3 3 0 0 1 1.19-1.73l.24.38a2.59 2.59 0 0 0-1.05 1.44 1.93 1.93 0 0 0 .38 1.5c1.42 2.06 1.6 3.14.73 4.3a9 9 0 0 0-1.13 2.15zm-44.91 3.25a1.09 1.09 0 0 1-1-.49 2.5 2.5 0 0 1 .23-2.4c.2-.39.18-.51.17-.54s-.17-.1-.31-.15a2.06 2.06 0 0 1-1.15-.83c-.41-.64.34-1.25 1.07-1.83.55-.44 1.17-.94 1.12-1.32 0-.22-.31-.45-.8-.66a2.85 2.85 0 0 1-1.91-3 3 3 0 0 1 2.48-2.57 1.91 1.91 0 0 0 1.71-1.24 1.73 1.73 0 0 0-.65-1.72 2.48 2.48 0 0 1-.9-2.45v-.22h.22s1.72.35 2.39-.48c.44-.54.36-1.5-.23-2.84-1-2.24-1.22-3.8-.71-4.77a2.76 2.76 0 0 1 2.09-1.26c1.54-.31 1.77-.71 1.7-3.07a3.46 3.46 0 0 1 .92-2.73 2.06 2.06 0 0 1 1.84-.32c2.06.45 4.51.75 5.16-.9a4.38 4.38 0 0 1 3.18-2.78 1.54 1.54 0 0 1 1.51.77 2.29 2.29 0 0 0 2.35 1.17l.09.44a2.78 2.78 0 0 1-2.83-1.38 1.07 1.07 0 0 0-1.09-.55 4 4 0 0 0-2.8 2.45c-.87 2.22-4.36 1.46-5.68 1.17a1.64 1.64 0 0 0-1.45.23 3.08 3.08 0 0 0-.7 2.5c.07 2.43-.18 3.15-2.07 3.52a2.37 2.37 0 0 0-1.77 1c-.43.83-.19 2.31.73 4.38.67 1.51.72 2.62.16 3.31a3 3 0 0 1-2.6.68 2 2 0 0 0 .76 1.78 2.19 2.19 0 0 1 .82 2.19c-.12.48-.55 1.32-2.07 1.58a2.55 2.55 0 0 0-2.11 2.18 2.4 2.4 0 0 0 1.64 2.5c.67.29 1 .62 1.07 1 .09.63-.61 1.19-1.29 1.73s-1.17.94-1 1.23a1.6 1.6 0 0 0 .92.65c.25.09.48.17.58.41s0 .49-.19.91a2.18 2.18 0 0 0-.25 2 .71.71 0 0 0 .69.28v.45zm5-2.21a2.31 2.31 0 0 1-1.54-2.31 4.48 4.48 0 0 1 2.88-3.77c.58-.2.91-.45 1-.77.2-.71-.69-1.79-1.64-2.93l-.28-.33a2.16 2.16 0 0 1-.56-1.67c.15-1.31 1.58-2.39 2.84-3.35l.11-.09a.71.71 0 0 0 .32-.61c0-1-1.93-2.6-2.67-3.11l-.5-.35.61-.06s2.27-.25 3-1.52a2.32 2.32 0 0 0-.18-2.2 4.26 4.26 0 0 1-.53-3.49 2.16 2.16 0 0 1 1.18-1.19h.07.07a4.21 4.21 0 0 0 2.94 0 2 2 0 0 0 .95-1.42c.63-3 6.46-4 6.71-4.08l.08.45c-.06 0-5.77 1-6.34 3.72a2.43 2.43 0 0 1-1.21 1.72 4.47 4.47 0 0 1-3.23.09 1.73 1.73 0 0 0-.85.91 3.88 3.88 0 0 0 .52 3.11 2.72 2.72 0 0 1 .18 2.63 4.14 4.14 0 0 1-2.77 1.67c.8.62 2.4 2 2.43 3.15a1.16 1.16 0 0 1-.5 1l-.11.09c-1.13.86-2.53 1.92-2.66 3a1.73 1.73 0 0 0 .42 1.35l.27.33c1.07 1.29 2 2.41 1.73 3.34a1.75 1.75 0 0 1-1.3 1.07 4 4 0 0 0-2.57 3.35 1.86 1.86 0 0 0 1.26 1.88zm-9.68-2.97a2.91 2.91 0 0 1-2.12-1 2.88 2.88 0 0 1-.32-2.55 3.58 3.58 0 0 0-1.63-4.25h-.08v-.09a2.74 2.74 0 0 1 .18-2.21 2.4 2.4 0 0 1 2-.91 2.61 2.61 0 0 0 1.84-.57c.41-.46.37-1.25.31-2.26v-.9a15.67 15.67 0 0 0-.17-1.68c-.17-1.22-.31-2.28.24-2.94a1.86 1.86 0 0 1 1.43-.57v.45a1.4 1.4 0 0 0-1.1.41c-.42.5-.28 1.51-.13 2.58a13.91 13.91 0 0 1 .17 1.72v.89c.06 1.11.12 2-.42 2.59a3 3 0 0 1-2.16.72 2 2 0 0 0-1.65.72 2.22 2.22 0 0 0-.15 1.73 4.1 4.1 0 0 1 1.78 4.73 2.06 2.06 0 0 0 2 2.94zm37.19-27.57a1.88 1.88 0 0 1-1.41-.5 1.41 1.41 0 0 1-.37-.95 3.41 3.41 0 0 0-1.1-2.84 4.15 4.15 0 0 0-3.13-.5h-.13l-.09-.1a2.77 2.77 0 0 0-2.28-1.12 3.23 3.23 0 0 0-2 1.54l-.4-.22a3.58 3.58 0 0 1 2.35-1.77 3.14 3.14 0 0 1 2.58 1.16 4.39 4.39 0 0 1 3.38.6 3.85 3.85 0 0 1 1.27 3.21.94.94 0 0 0 .25.63 1.43 1.43 0 0 0 1.07.35v.48zm-22.77 28.25a2.94 2.94 0 0 1 1.51-2.71c.69-.46 1-.83 1-1.16s-.3-.76-1.05-1.36a3.41 3.41 0 0 1-1.46-2.92 1.79 1.79 0 0 1 1.4-1.37l.14.43a1.4 1.4 0 0 0-1.09 1 3 3 0 0 0 1.3 2.48c.65.53 1.25 1.1 1.22 1.74s-.4 1-1.24 1.52a2.48 2.48 0 0 0-1.26 2.28z" fill="#66311f"/><path d="M214.81 33.3a17.07 17.07 0 0 1-3.82 6.9l.59 8.35h-11.07V40.4c-2.42-2-2.77-7.6-2.77-7.6-2.34-.7-1.44-2.08-1.44-2.08 2.85.3 2.3-5.72 2.3-5.72 5.73-.86 3.51-6.7 4.25-6.12s3.24-1.48 3.24-1.48c.15 2.5 5.34 2.3 5.34 2.3-.63 2 1.52 5.42 2.45 5.92s1.05 1.17 1 2.77 2.46 1.13 2.46 1.13c.24 3.31-2.53 3.78-2.53 3.78z" class="AA"/><path d="M209.94 40.94s-2.83 5.74-9.43 3V40.4s4.95 5 9.43.54z" fill="#f18366"/><path d="M199.37 46.25a1.08 1.08 0 0 1 1.3-.26c.77.39 7.54 1.48 10.38.26s2.13 1.29 2.58 2.45.26 17.15-.39 20-6.32 19.21-6.32 19.21-5.22-.39-6.32-7.93-1.68-17.53-1.8-20.11-.73-13.37.57-13.62z" fill="#fff"/><path d="M200.54 45.18a8.48 8.48 0 0 0-.85 3.83c0 2.31.28 16.86 1 21.57s2.77 12.08 2.77 12.08l3.7.16s5.41-16.93 5.41-21.28-1-17.21-1-17.21 5 3.88 6 5.06c0 0 5.52 2.26 7.13 2.41s6.14.55 7.13 4.89 2.63 15.22 2.63 15.22.44 18.49-1 19.93-7.85 3.2-7.85 3.2-.15 1.5 1 5.52l7.54 26.48c.16 1.09 2.22 8.88 2.32 16.52v25.55l.05 4.23a88.54 88.54 0 0 1 4.08 11.77c1.08 4.75 4 24.83 4.34 29.52a311.8 311.8 0 0 1 .52 9.55h-8.83l-8.83-26.69c-.98-3.1-5.1-16.67-5.26-19.1s-9-26.58-9-26.58l-8-22.4-2.62 26.5c-.82 8.92-.38 23.55.23 31.06l3.15 37.21h-8.4s-11.78-34.21-11.85-43 .08-17.25-.45-20.7-11.78-30.61-9.38-38.41l-1-.3s5.78-21.53 9-23.7c0 0-8.4-1.8-9-2.93s2.94-23.74 2.94-23.74 3.72-17.81 5.46-18.29 8.65-2.5 9.91-3.42 5.37-4.69 7.01-4.51z" class="AC"/><g fill="#36366b"><path d="M200.25 82.62l-10.61-23.44 3.25-3.2a13.17 13.17 0 0 0-1.56-.58.76.76 0 0 1-.49-.42c-.39-.91.86-3.42 1.41-4.45l.8.43a11.06 11.06 0 0 0-1.39 3.6 16.29 16.29 0 0 1 2.21.88l.58.28-3.73 3.68 10.35 22.86zm10.45.33l-.65-.63c3.19-3.28 8.45-20.86 9.21-23.43l-3.7-2.58 4.11-.69a32.23 32.23 0 0 0-2.28-5.44l.81-.41c.25.49 2.43 4.8 2.43 6.22v.41l-2.73.46 2.42 1.69-.09.31c-.25.8-5.94 20.41-9.53 24.09z"/><path d="M219.81 96.26a44.79 44.79 0 0 1-14.35-2.86 72.62 72.62 0 0 1-10.72-4.79l-.38-.22.2-.39c.77-1.5 1.06-5.94 1.07-6v-.48l.48.06c.11 0 11.23 1.41 13.67 1.65 1.83.18 8.15.23 12.33.26h3.48c3.38 0 4.66 1.87 4.71 2l-.75.51c0-.06-1.1-1.51-4-1.55h-3.48c-4.45 0-10.54-.08-12.41-.26-2.16-.21-11.06-1.32-13.23-1.59a24.6 24.6 0 0 1-.95 5.46c2.59 1.41 18.73 9.81 29.95 6.55l.25.87a21.14 21.14 0 0 1-5.87.78zm-31.35-12.48c-3.46-3.4-1.69-17.41-1.3-20.19.79-5.63-.76-8.67-.78-8.7l.8-.42c.07.13 1.71 3.3.87 9.26-1 7.46-1.41 17 1 19.42z"/><path d="M181.69 85.52l-.39-.82c.18-.09 4.51-2.1 7.64-1.24l-.24.87c-2.81-.77-6.97 1.17-7.01 1.19z"/><path d="M181.88 91.21l-.78-.47c.16-.27 4.05-6.62 7.69-6.8v.91c-2.57.13-5.86 4.64-6.91 6.36zm16.01 8.71h-2a74.82 74.82 0 0 1-11.65-1.35l.19-.89c.21 0 20.91 4.4 29-2.76l.6.68c-3.27 2.86-8.7 4.32-16.14 4.32z"/><path d="M185 123.17a66 66 0 0 1-8.78-.63l.13-.9a64.44 64.44 0 0 0 9.12.61c6.06 0 9.85-1.19 11-3.29 2.86-5.44 7.73-20 7.78-20.14l.86.29c-.2.6-4.94 14.77-7.84 20.28-1.64 3.01-7.25 3.78-12.27 3.78zm40.35-.28c-2.23 0-4.8-.09-7.5-.34-8.36-.8-12.15-22.81-12.31-23.75l.89-.15a82.21 82.21 0 0 0 2.9 11.33c2.51 7.33 5.48 11.36 8.6 11.66a80.89 80.89 0 0 0 14.88 0l.1.9a72.3 72.3 0 0 1-7.56.35zm-18.89 4.41l-.89-.15c.36-2.14.51-16.17.51-16.31h.91c-.04.56-.18 14.25-.53 16.46zm-10.3 23.38h-.91c0-1.46-.31-18.85-.31-19h.91l.31 19zm5.7 73.57l-6.61-50c-.77-8.46-.78-14.35-.78-14.41h.91c0 .06 0 5.91.78 14.33s6.54 49.54 6.6 49.95zm29.92-48.948l.89-.192 10.568 48.962-.89.192z"/></g><path d="M189.38 83.46a7.52 7.52 0 0 1 6.84-.83c0 0-.91 4.89-1.07 5.26s-2 .9-3.74-.78-2-2.25-2.59-1.9-.5-1.56.56-1.75z" fill="#f18366"/><path d="M218.75 83.62s2.55-4.07 2.58-5.16 1.95-3.31 4.1-3.27c0 0 .66.1.23.93a1.44 1.44 0 0 1 .36 1.69 1.41 1.41 0 0 1 0 1.29c-.36.73-.66.86-.66.86s.13 1.32-.33 1.79-2.54 2-2.54 2z" class="AA"/><path d="M225.31 83.52a9.84 9.84 0 0 1 .61-3.75l.48-1.89c.29-1.62-.33-9.44-1.17-13.29-.89-4.07 1.37-9.22 1.47-9.44l.83.37s-2.24 5.1-1.41 8.87c.88 4 1.49 11.92 1.18 13.65-.11.61-.3 1.27-.5 2a9.49 9.49 0 0 0-.59 3.37z" fill="#36366b"/><path d="M199.37 26.74a.48.48 0 0 1-.36-.17.46.46 0 0 1 .08-.64 3.8 3.8 0 0 1 4.87 0c.12.109.172.274.138.432s-.151.286-.305.335-.323.012-.443-.097c-1.69-1.52-3.62 0-3.71 0a.38.38 0 0 1-.27.14zm13.84-.2a.44.44 0 0 1-.27-.09c-2.49-1.88-4.26-.3-4.33-.23-.182.171-.469.162-.64-.02s-.162-.469.02-.64c0 0 2.38-2.17 5.5.17a.46.46 0 0 1 .09.64.5.5 0 0 1-.37.17z" fill="#542816"/><path d="M206.33 33.61h-.11c-.9 0-1.34-.15-1.45-.43a.38.38 0 0 1 .08-.39l.32.32a.09.09 0 0 0 0-.12s.15.14 1 .16c.56 0 .92-.09 1-.29s-.06-.69-.5-1.25c-.91-1.16.22-4.24.36-4.59l.42.16c-.33.88-1.06 3.33-.42 4.15s.76 1.32.55 1.74-.54.54-1.25.54z" fill="#e0745f"/><path d="M203.11 35.88H209s-1.17 2.26-2.94 2.26-2.95-2.26-2.95-2.26z" fill="#fff"/><g fill="#020202"><ellipse cx="201.88" cy="28.51" rx=".88" ry="1.13"/><ellipse cx="210.58" cy="28.51" rx=".88" ry="1.13"/></g><path d="M90.29 219.93c-.48 3.15-3.78 7.61-5.14 9.92a8.88 8.88 0 0 0-.76 4.09 28.56 28.56 0 0 0 .28 4.17c-8-3.22-4.73-9.4-4-11a10.86 10.86 0 0 0 .51-4.12l-4.76 3.5-.62-.65s3.91-4.91 4.8-6.5 4.8-1.56 5.49-1.7.41-4.8.41-4.8 4.27 3.94 3.79 7.09z" fill="#53508f"/><path d="M90.29 219.93c-.48 3.15-3.78 7.61-5.14 9.92a8.88 8.88 0 0 0-.76 4.09h0c-5.09-1.22-1.35-10.51-1.35-10.51 1.19-1 3-5.83 3-5.83.68-.14.41-4.8.41-4.8s4.32 3.98 3.84 7.13z" fill="#fe7b73"/><path d="M122.3 161.74H73.16s2.6 5.55 2.69 8.1-4 9.26 3.1 26.38l12.15 29.62s-.09 7.83-.82 9.82a1.82 1.82 0 0 1-.08.19c-.8 1.62-.44 6.39 3.23 6.24s3.89-5.94 3.82-7.33 1.69-3.7 1.47-4.89a18 18 0 0 0-2.12-4.05h0l-.61-13.56s25.57-39.34 26.34-42.29-.03-8.23-.03-8.23zm-27.62 22.93s-.76-5.21-1-8.92.62-13.31.62-13.31h4.66c-.27 2.68 3.57 10 3.57 10-4.62 1.6-7.85 12.23-7.85 12.23z" class="z"/><path d="M97.23 234.74c.08 1.4-.15 7.19-3.82 7.33s-4-4.62-3.23-6.24a1.82 1.82 0 0 0 .08-.19c.34 1 1 2.32 2.29 2.32 2.13 0 4.12-1.71 4.53-4.66a28.64 28.64 0 0 0-.51-7.51 18.44 18.44 0 0 1 2.12 4.05c.23 1.2-1.53 3.56-1.46 4.9z" fill="#53508f"/><path d="M94.453 184.68l.44-.02 1.28 27.56-.44.02z" class="AD"/><path d="M129.94 89.24l-4.72-6.84 7.6-7.25-11.44-7.37a16.64 16.64 0 0 1-4.68 11.06s-.09 1.62-1.53 10.54v.08l-.23 2.07c-.5 8 3.39 14.93 5.75 25.89 2.57 11.92 2.53 45.52 2.53 45.52l-53 .28-4.14-22.61.91-82.11c.77-10.7 13.12-12.66 13.12-12.66 2-.22 4.46 1.27 6.86 3.25v.06s-2.11 11.55-1.06 15.63h21.34s-.66-14.58-1.51-16.38c-.06-.12-.13-.28-.21-.47l.63-.62c3-3 8.92-2 8.92-2 21.4 9 29.59 24.79 30.76 27.13s-15.9 16.8-15.9 16.8z" fill="#222a52"/><path d="M125.22 82.4s-8.55 9-9.43 10.25-2 .61-1.7 4.57 1.64 6.55.82 8.39 1.7-.75 2.18-4.77c0 0 .75 9.27 1.3 10.16s.68-16.16.68-16.16l11.47-6z" class="z"/><path d="M115.16 89.4l-.23 2.07c-4.25 1.31-13.94 2.89-14.4 3H88.26c-1.81-.09-16.21-2.32-16.21-2.32s-.17-2.33.6-1.78 15.6 1.78 15.6 1.78h12.26c4.4.1 11.95-1.94 14.65-2.75z" fill="#10182d"/><path d="M100.53 92.12v2.33H88.46v-2.33z" class="AE"/><path d="M74.08 90.79h-.11a.44.44 0 0 1-.32-.53c0-.11 2.76-11.36-.5-16.09a13.27 13.27 0 0 1-1.9-10.64c.069-.235.315-.369.55-.3s.369.315.3.55a12.55 12.55 0 0 0 1.77 9.89c3.5 5 .75 16.32.64 16.8a.45.45 0 0 1-.43.32z" fill="#161c35"/><path d="M97.18 6.85s-9.39-1.21-12.58 8.19c-3 9-.6 17.84-2.84 22.84s-13.01 14.74-9.3 26.52h48.43s1.55-11.29-5.6-20-5.95-19.22-5.95-21.8-1.48-16-12.16-15.75z" fill="#ba5728"/><g fill="#c7633d"><path d="M107.46 19.24c-.76-.27-1.83-2.45-3.91-7l-.2-.43c-1.43-3.14-5.09-2.67-5.24-2.65l-.09-.66s4.3-.56 5.94 3l.2.43c1.17 2.58 2.94 6.47 3.52 6.68z"/><path d="M109.23 21.97c-2.83-.44-7.59-5.35-8.63-8.9-.89-3-3.13-2.87-3.22-2.87l-.06-.66s2.87-.24 3.92 3.34c1 3.29 5.5 8 8.09 8.43zm4.78 42.14l-.65-.14c.9-4.13-.73-15.93-4.36-22.11a28 28 0 0 1-3.36-14.14h.66c0 .07-.41 7.49 3.27 13.77s5.38 18.29 4.44 22.62zm-2.83-.01l-.65-.13c.67-3.26-.92-14.58-3.59-19.57s-2.86-12.66-2.86-13h.66c0 .08.2 7.87 2.78 12.69 2.79 5.19 4.36 16.59 3.66 20.01zM83.46 30.76h-.66a19.38 19.38 0 0 1 2.18-7.78 22.36 22.36 0 0 1 4-6.36 14.48 14.48 0 0 1 2.26-1.74A17.28 17.28 0 0 0 93 13.59a26.91 26.91 0 0 0 3.55-3.9l.52.41a27.55 27.55 0 0 1-3.63 4 17.83 17.83 0 0 1-1.84 1.3 14.37 14.37 0 0 0-2.14 1.69 21.9 21.9 0 0 0-3.88 6.17 18.65 18.65 0 0 0-2.12 7.5zm1-8.64l-.66-.09c0-.12 1.75-12.07 11.71-13.6l.1.65c-9.47 1.46-11.15 12.93-11.15 13.04zm-6 42.18a3.65 3.65 0 0 1-1.11-2.7c-.49-5.29 3.17-16.71 6.52-20.36 3.85-4.2 2.22-11.47 2.2-11.55l.65-.15c.07.31 1.73 7.68-2.36 12.14-3.24 3.56-6.8 14.72-6.33 19.85a3.15 3.15 0 0 0 .85 2.23zm2.84-.46c-1.21-1.53.93-14.64 4-18.81 2.93-4 2.77-12.37 2.76-12.46h.66c0 .35.18 8.73-2.89 12.87s-4.94 16.87-4 18z"/></g><path d="M107.23 64.79H85.89c-1.06-4.08 1.06-15.63 1.06-15.63v-.06a62.33 62.33 0 0 1 8.11 8.53c0 0 7.11-6.39 10.45-9.65.08.19.15.35.21.47.88 1.77 1.51 16.34 1.51 16.34z" fill="#222a52"/><path d="M105.54 47.98c-3.34 3.25-10.45 9.65-10.45 9.65a63 63 0 0 0-8.11-8.53c2.16-4 3-10.79 3.27-14.45h0c.12-1.55.15-2.53.15-2.53h11.69a21.21 21.21 0 0 0 .1 3.36 47.66 47.66 0 0 0 3.35 12.5z" class="z"/><path d="M96.46 46.71h-.12c-5.29 0-7.45-2.45-7.54-2.56a.22.22 0 0 1 .118-.371.22.22 0 0 1 .212.081c0 0 2.13 2.37 7.21 2.4h.12c6 0 6.77-2.88 6.78-2.91a.22.22 0 0 1 .27-.16.21.21 0 0 1 .16.26c-.03.15-.84 3.26-7.21 3.26z" class="AE"/><path d="M102.19 35.4c-1.28 1.77-3 3.23-5.1 3.23-2.67 0-5-1.87-6.84-4h0l.15-2.53h11.69a21.12 21.12 0 0 0 .1 3.3z" class="AD"/><path d="M97.09 12.79c0 .07 1.42.82 1.59.94 1.85 1.34 2.6 3.47 3.89 5.26a8.72 8.72 0 0 0 2.89 2.86l2.07.3s.38 5.27-2.4 5.86c0 0-2.64 9.32-8 9.32-4.07 0-7.34-4.35-9.37-7.4a6.64 6.64 0 0 1-1.3-3.61c-.07-1.22-.07-2.8.81-3.76 1.46-1.59 9.74-8.16 9.82-9.77z" class="AB"/><path d="M103.03 21.2a.42.42 0 0 1-.28-.1c-2.05-1.73-3.56-.33-3.63-.27a.44.44 0 0 1-.62 0 .43.43 0 0 1 0-.62s2.13-2 4.81.23a.43.43 0 0 1 0 .62.45.45 0 0 1-.28.14zm-9.07.2a.44.44 0 0 1-.38-.22c0-.07-1-1.48-3.82-.35a.44.44 0 1 1-.32-.82c3.63-1.42 4.86.64 4.91.73a.44.44 0 0 1-.16.6.49.49 0 0 1-.23.06z" fill="#9b421f"/><path d="M96.82 27.95a8.89 8.89 0 0 1-1.29-.1l.06-.44a6.13 6.13 0 0 0 2 0c.07 0 .16-.06.18-.11s-.1-.51-.28-1l-.34-.88a6.73 6.73 0 0 1 .3-3.91l.41.16a6.39 6.39 0 0 0-.29 3.6l.33.87c.26.66.41 1 .27 1.32a.66.66 0 0 1-.45.34 3.47 3.47 0 0 1-.9.15z" fill="#bf3a2c"/><path d="M94.13 30.25h5.33s-.91 2.31-2.66 2.31-2.67-2.31-2.67-2.31z" fill="#fff"/><ellipse cx="92.07" cy="22.72" rx=".67" ry=".85"/><ellipse cx="101.22" cy="22.72" rx=".67" ry=".85"/><path d="M16.61 235.15c.37 6.06-3.5 8.91-6.2 8.62s-2.26-7.08-2.26-7.08l1.3-2.91a44.19 44.19 0 0 0 1.84-4.61c.22-1.1-.8-13.65-.8-13.65l7.15 1s-1.26 11.4-1.06 17.71c0 .33.02.63.03.92z" class="AB"/><path d="M10.46 243.76c-2.7-.3-2.26-7.08-2.26-7.08l1.3-2.91c.23 2.12.86 5.55 2.35 4.52a53.75 53.75 0 0 0 4.78-4v.9c.35 6.01-3.52 8.86-6.17 8.57z" fill="#222a53"/><path d="M56.03 243.1c-1.75 1.24-5.33-3.36-6.17-4.33-.6-.69 0-5.09.5-8.39l.34-3.12c.08-2.34-1.68-10.29-1.68-10.29l6.93-.59-.44 5.7c-.37 4.6.8 7 1.9 11.68a1.55 1.55 0 0 1 0 .21c1.05 4.58.35 7.91-1.38 9.13z" class="AB"/><path d="M56.03 243.1c-1.75 1.24-5.33-3.36-6.17-4.33-.6-.69 0-5.09.5-8.39a5.84 5.84 0 0 1 .71 2.94c-.08 2.55 2.84 6.2 4.08 4.67a9.17 9.17 0 0 0 2.31-4c1 4.56.3 7.89-1.43 9.11zm7.43-98.16l-2.82 71.46s-1.1 2-5.75 2.74a11 11 0 0 1-7.94-1.83l-4.11-44.46c-.46-8.03-4.65-29.85-4.65-29.85l-16.44 73.15a13.87 13.87 0 0 1-7 2.1 8.16 8.16 0 0 1-6.15-2.85c1.7-4.76 3.21-68 3.21-68l8-41.32.74-3.82 40.46 1.89.21 3.38z" fill="#222a53"/><path d="M61.17 107.53c-7.9-.63-35.76-1.32-41.41-1.45l.74-3.82 40.46 1.89z" fill="#13192e"/><g class="AE"><path d="M37.07 106.86a1.51 1.51 0 0 1-1-.41 2.11 2.11 0 0 1-.56-1.59c0-2 1.34-2.2 1.36-2.2h3.48v.44h-3.47s-.94.15-.94 1.76a1.7 1.7 0 0 0 .41 1.26 1 1 0 0 0 .72.29h3.26v.44h-3.25z"/><path d="M35.11 104.53h3.15v.44h-3.15zm5.8-1.01h.44v2.98h-.44z"/></g><path d="M32.85.03a3.54 3.54 0 0 0-3.28 3.28s-2.1-1.29-3.33.27a2.3 2.3 0 0 0 0 3 3.4 3.4 0 0 0-4.46 1.18 3.66 3.66 0 0 0 .43 4.62c0 0-4.19.43-2.26 5.75 0 0-2.2 3.17 1.61 3.55a2.18 2.18 0 0 0 1.51 2.72 2 2 0 0 0 2.53-1.61s.32 5.7 4.62 8.33l16.24-.34s3.44-2 4.3-8.49-3.33-12.8-8-14.73c0 0 1.29-2.2-.11-3.28s-3.6-.05-3.6-.05a2.22 2.22 0 0 0-2.76-1.83c0 0-1.07-2.69-3.44-2.37z" class="AF"/><path d="M51.13 103.91L21.4 102.4s4.89-24.14 5.7-31 .11-27.74.81-28.23a6.47 6.47 0 0 1 2-.47 13 13 0 0 0 3-.55c.37-.23.49-2.44.54-4.5v-3.67l10.58-.28-.16 3.53a17.48 17.48 0 0 0 .12 4.34 18.82 18.82 0 0 0 4.2 1l2.5.43z" fill="#efde07"/><path d="M48.21 43.13c0 3.84-4.1 7-9.15 7s-9.15-3.12-9.15-7a3.17 3.17 0 0 1 0-.44 13 13 0 0 0 3-.55c.28-.17.42-3.73.49-6.29 0-.75 0-1.42.05-1.89 1.55-.92 3.5 2.21 5.61 2.21 1.77 0 3.58-3.15 5-2.49 0 .52 0 1.3-.07 2.16a41.12 41.12 0 0 0 0 5.71 18.82 18.82 0 0 0 4.2 1c.01.21.02.39.02.58z" class="z"/><path d="M28.37 42.96s.09 31.09-2.11 41.19-6.65 27.19-7.58 30.48-3.7 19.7-4 23a100.46 100.46 0 0 1-2.26 11c0 0-6.9-13.57-3.37-34.11 0 0-9.26-20.46-9.09-22.48s6.31-32 7.16-33.51 3.62-9.26 5.89-10.1l15.36-5.47z" class="AC"/><ellipse cx="32.26" cy="124.26" rx="6.78" ry="2.46" transform="matrix(.42499 -.905198 .905198 .42499 -111.47 88.06)" fill="#2a2666"/><path d="M14.46 108.06s3.2 6.58 4.28 6.57 3.44-1 4.94 0 3.61 1.35 4.51.8.15 2-1.25 1.94-5.06 0-5.06 0l1.65 2-6.12 4.11-4.61-7.81a15.75 15.75 0 0 0-1.34-2.42c0 0 1.75-4.99 3-5.19z" class="z"/><path d="M49.8 42.86l.16 50.46v25c.13 4.6.33 30.31.33 30.31l15.17-.43V125l10.37.39-3.32-42.89c-.65-7.36-5.61-31.42-10.3-34.55s-10.14-4.99-12.41-5.09z" class="AC"/><path d="M70.24 125.17s1.14 6.82.5 8.79-3.33 7.77-6.63 7.26a2.06 2.06 0 0 1 .52-2.1c1-.89 1.78-8.15 1.78-8.91 0 0-1.53-.32-1.78 1.08s-1.39 3.56-2.06 3.63 1-3.37 1-4.71.4-5.35 1.51-5.44z" class="z"/><g fill="#323266"><path d="M50.46 96.81h-.1a.32.32 0 0 1-.26-.39l7.46-39.59-6-5.44 3.5-3.89-4.87-3.82a.33.33 0 1 1 .4-.52l5.46 4.24-3.54 4 5.76 5.25-7.53 40a.32.32 0 0 1-.28.16zm14.43 28.29a.33.33 0 0 1-.33-.32c0-.27-.91-27.45-.91-33.39s-1.19-22.81-1.76-26.61.29-14.61.32-15.07a.33.33 0 0 1 .36-.3.32.32 0 0 1 .3.36c0 .11-.9 11.22-.33 14.92S64.3 85.4 64.3 91.4s.9 33.09.91 33.37a.33.33 0 0 1-.32.34z"/><path d="M75.46 120.59H64.89a.33.33 0 0 1 0-.66h10.57a.33.33 0 1 1 0 .66zM62.57 68.07a.33.33 0 0 1-.33-.3 25 25 0 0 1 2.36-11.79.33.33 0 1 1 .59.29 24.7 24.7 0 0 0-2.29 11.44.33.33 0 0 1-.3.36z"/></g><g fill="#5b5ba5"><ellipse cx="53.55" cy="102.83" rx="1.24" ry="1.73"/><ellipse cx="53.55" cy="117.37" rx="1.24" ry="1.73"/></g><g fill="#323266"><path d="M64.37 118.45a.33.33 0 0 1-.19-.06l-6.58-4.59-.58-8.86 7.17 5.75c.093.075.139.194.12.312s-.099.217-.21.26-.237.023-.33-.052l-6-4.81.46 7 6.32 4.41a.32.32 0 0 1 .08.46.3.3 0 0 1-.26.18zm-39.7-28.6a.33.33 0 0 1-.32-.26c0-.08-1.7-7.88-3.17-15.75-3-16.1-2.2-16.78-1.86-17.07 1.27-1.07 4.42-4.23 5.59-5.42l-5.57-.9 4.71-5.93c.116-.144.326-.166.47-.05s.166.326.05.47l-4 5 5.71.92-.45.46c-.18.19-4.49 4.57-6.08 5.91-.52.64.44 10 5.25 32.18a.32.32 0 0 1-.25.39zM18.1 106a.32.32 0 0 1-.31-.23l-5.07-15v-.06c0-.2.76-20.11.67-26.84a104.66 104.66 0 0 0-1.34-14.08.33.33 0 1 1 .65-.11 105.21 105.21 0 0 1 1.35 14.18c.08 6.54-.59 25.54-.67 26.81l5 14.89a.33.33 0 0 1-.21.42z"/><path d="M13.3 66.4a.33.33 0 0 1-.33-.3c-.36-4-3.14-9.76-3.17-9.82a.33.33 0 1 1 .59-.29c.12.24 2.86 5.9 3.23 10a.33.33 0 0 1-.3.36zM5.05 91.81a.32.32 0 0 1-.31-.23.34.34 0 0 1 .21-.42c.26-.09 6.45-2.08 8.59.07.13.13.13.34 0 .47s-.34.13-.47 0c-1.54-1.55-6.23-.46-7.91.09a.22.22 0 0 1-.11.02zm8.06-2.41a.37.37 0 0 1-.22-.08c-2.68-2.33-8.47-2.53-8.53-2.53a.33.33 0 1 1 .02-.66c.25 0 6.08.2 8.94 2.69a.33.33 0 0 1 0 .47.3.3 0 0 1-.21.11z"/></g><path d="M44.03 33.68l-.07 2.16a8.69 8.69 0 0 1-3.74 2.72s-3.29 1.24-6.82-2.72l.05-1.89c1.55-.92 3.5 2.21 5.61 2.21 1.76.01 3.57-3.14 4.97-2.48z" class="AD"/><path d="M27.26 23.26s3.66-.32 3.28-4.46c0 0 2.47-.16 2.31-3.76 0 0 4.09.7 6.34-2.2 0 0 8.06-1.18 8.39 9.36 0 0 1.08-.7 1.88-.16s.22 4.62-1.72 6.13c0 0-.43-.27-.65.48s-2.26 7-6.88 8.6c0 0-6 2.26-10.48-9 0 0-.32.54-1 0s-3.27-4.29-1.47-4.99z" class="AB"/><g fill="#efde07"><circle cx="29.2" cy="28.16" r="1.02"/><circle cx="47.69" cy="27.4" r="1.02"/></g><path d="M39.56 13.08l-.73-.5a7.39 7.39 0 0 0 1.12-3.05c.19-2.07 2.69-2.39 2.79-2.4l.11.88s-1.89.25-2 1.61a8.42 8.42 0 0 1-1.29 3.46zm-15.21 6.46a3.2 3.2 0 0 1-1-3.61 2.75 2.75 0 0 1 2.45-2 2.94 2.94 0 0 1 .58-3 2.86 2.86 0 0 1 3.1-.43l-.4.79a2 2 0 0 0-2.11.29c-.92.84-.16 2.59-.15 2.61l.34.76-.82-.15a1.9 1.9 0 0 0-2.16 1.39 2.3 2.3 0 0 0 .7 2.62zm10.78-7.79a2.4 2.4 0 0 1-.15-3.26 2 2 0 0 1 1.38-.85 3.18 3.18 0 0 1 2.16.78l-.58.67a2.33 2.33 0 0 0-1.48-.57 1.1 1.1 0 0 0-.77.49 1.54 1.54 0 0 0 0 2.09zm-6.95 6.15a4.5 4.5 0 0 1 .83-3.17 3.16 3.16 0 0 1 2.43-1v.88a2.3 2.3 0 0 0-1.78.74 3.67 3.67 0 0 0-.63 2.49z" fill="#2e3049"/><path d="M31.67 21.55a.46.46 0 0 1-.34-.16.44.44 0 0 1 .06-.62 4.33 4.33 0 0 1 5.07-.37.45.45 0 1 1-.51.73c-1.91-1.35-4 .34-4 .36a.42.42 0 0 1-.28.06zm13.87 0a.42.42 0 0 1-.35-.18 2.33 2.33 0 0 0-1.53-1 3.21 3.21 0 0 0-2 .59.442.442 0 1 1-.54-.7 4 4 0 0 1 2.69-.77 3.14 3.14 0 0 1 2.13 1.35.44.44 0 0 1-.09.62.48.48 0 0 1-.31.09z" class="AF"/><path d="M39.36 28.4h-.17-1.45a.22.22 0 0 1-.191-.33.22.22 0 0 1 .191-.11h1.45c.48 0 .77 0 .89-.2s0-1.09-.4-2.19a4.42 4.42 0 0 1 .46-3.92c.072-.099.211-.122.31-.05s.122.211.05.31a4 4 0 0 0-.4 3.5c.49 1.37.68 2.14.34 2.6a1.34 1.34 0 0 1-1.08.39z" fill="#bf3a2c"/><path d="M36.02 30.25h5.32s-.91 2.31-2.66 2.31-2.66-2.31-2.66-2.31z" fill="#fff"/><g class="AF"><ellipse cx="35.18" cy="23.08" rx=".87" ry="1.01"/><ellipse cx="42.57" cy="23.08" rx=".87" ry="1.01"/></g><path d="M155.39 62.87s-8.9 1-9.29 2-3.32-11.1-3.32-11.1l5.33-16.1L155.38 51v11.87"/><path d="M178.17 194.12l-22.97-2.55v1.76l19.86 2.09 3.11-1.3z" fill="#7f7fc9"/><g fill="#0b070b"><path d="M178.97 194.4l-23.56 1.22v1.61l24.09-1.42-.53-1.41z"/><path d="M173.66 139.74l11.89 94.43h-1.28l-14.86-93.96 4.25-.47z"/></g><path d="M153.85 180.88l5.78 48.3h-1.17l-7.43-47.35 2.82-.95z" fill="#8282ca"/><path d="M121.11 178.27L114 233.43h1.59l8.28-55.16h-2.76z" fill="#6b68aa"/><path d="M133.32 135.5h47.77v6.05h-47.77z" fill="#0b070b"/><path d="M147.21 67.86l.49-1a14.65 14.65 0 0 1-1.82-9.57c1-7.09 4.52-16.19 3.88-18.72s-2.28-.38-2.28-.38a21.77 21.77 0 0 1-3.3 10.21c-3 4.43-10.33 12.63 3.03 19.46z" fill="#29296d"/><path d="M148.67 42.64c-.64 1.32-1.45 12.71 4.69 13.61v6.91s2.43 4.09 7.85 0 6.57-18.6 5.84-21.11-8.27-6.48-18.94-4.39c.01-.01 1.2 3.66.56 4.98z" class="z"/><path d="M153.36 56.25v3.5c6.87-2.92 6.95-7.9 6.95-8.14-1.33 4.68-6.95 4.64-6.95 4.64z" fill="#e27c64"/><g fill="none" class="AH"><path d="M158.91 43.32a4.32 4.32 0 0 0-4.09-.51m-3.12-.3s-1.75-1.19-3 .13" stroke="#0c0302" class="AI"/><path d="M152.3 43.32a2.63 2.63 0 0 1 0 2.77c-.9 1.45-1.71 2.09-.3 2.22l1.46.09" stroke="#ce6c59" stroke-width="1.5"/></g><path d="M154.81 50.19h-4.26s.73 1.49 1.77 1.58 2.49-1.58 2.49-1.58z" fill="#fff"/><g fill="#0c0302"><ellipse cx="155.39" cy="44.94" rx=".57" ry=".95"/><ellipse cx="150.55" cy="44.51" rx=".57" ry=".95"/></g><path d="M166.24 30.96c5.37 3.7.38 6.48 4.29 11.44s13.93 14.68 7.24 20.4c0 0 .57-4.86-1.91-6.1 0 0 1.62 5.43-.1 7.15s-15.06 5.62-18.58 5c0 0 7.15-10.86 5.72-19.44 0 0 3.57-.36 2.71-2.93s-3.47-.88-3.47-.88-.57-6.67-2.38-6.67c0 0-5.33 2.37-8 .48s-3.41-.32-3.41-.32a3.43 3.43 0 0 1-2.65-3c0 0-1.39 1-1.2 2.08 0 0-1.83-5.68 2.84-6.06s6.94 1.32 9.84-.32 6.55-2.56 9.06-.83z"/><path d="M170.2 64.97c4.29.49 6.54 3.17 6.63 8.35s-13.27 1.08-13.27 1.08-1.1-10.32 6.64-9.43z" class="z"/><path d="M120.26 91.23c-.05 1 1.75 8 2.48 8.32s.88.63.88.63l.49 4.92s6.43 1.66 9.44 0v-1.42s3.21.15 7.74.79 12.62 1.47 13 1.37.49-8.18.49-8.18l-16.21.39s0-3.21-1.66-4.77-1.17-5.65-.78-5.94c0 0 .29-1.49-.64-2.11v-1.89s-4.72-1.31-13.48 0v1.89a2.65 2.65 0 0 0-1 1.7 2.45 2.45 0 0 0 1.56.6v2.3s-2.26.38-2.31 1.4z" fill="#ef896a"/><path d="M120.99 86.93a2.45 2.45 0 0 0 1.56.6v2.3l.34 1.55c4.92 1.75 2.34 9.29 2.34 9.29l-1.65-.48.49 4.92s6.43 1.66 9.44 0v-1.42s.3-10.6.15-13.4a2.62 2.62 0 0 1 2.44-3 2.37 2.37 0 0 0-.52-2l-.12-.09v-1.86s-4.72-1.31-13.48 0v1.89a2.6 2.6 0 0 0-.99 1.7z" fill="#070506"/><path d="M122.01 83.34v1.89a20.63 20.63 0 0 0 13.6.09l-.12-.09v-1.89a31.57 31.57 0 0 1-13.48 0z" fill="#3a376c"/><path d="M152.46 100.66s-7.42 0-7.15-3.61c0 0 5.46-.71 7.15-.21z" class="AG"/><path d="M149.69 94.16s3.55 10.61 2.72 13.85l21.43-4.39-.26-3.76z" class="z"/><path d="M123.5 91.19l6.81.43v8.32l-4.79-.14" fill="#555cc9"/><path d="M118.62 207.72c-.72 2.29.52 2.81.52 2.81 4.12-.72 12.28-11.69 11.92-14.17s3-12.08 3.29-14.37-5.94-3.72-5.94-3.72c0-1.44-.65-16.07-.65-16.07l-11.1 1.76s4.38 18.81 5 26.65a31.81 31.81 0 0 1-.42 7.79 57.81 57.81 0 0 1-2.62 9.32z" class="z"/><path d="M119.14 210.53c4.12-.72 12.28-11.69 11.92-14.17s3-12.08 3.29-14.37-5.94-3.72-5.94-3.72-.91 12.67-1.31 14.56-3.26 4.87-5.9 5.57a60 60 0 0 1-2.58 9.32c-.72 2.29.52 2.81.52 2.81z" fill="#2e2c6f"/><path d="M109.61 132.71l.06.55c1 7.31 5.33 32.6 5.33 32.6l25-3.89-2.22-7.76-3.48-12.15 17.85-5.26 2.11-22.25-36.32 9.6c-1.86.6-8.88 1.74-8.33 8.56z" fill="#fde9eb"/><path d="M155.14 121.19s-3.18-3-4.42-3.28-3.28-1.14-2.54-.4 4.08 7.56 3.93 8.71-.43 2.59-2.43 1.79-7.36-3.38-12.17-3.58-15-.25-15-.25 25.72 6.37 25.62 7.56a4.51 4.51 0 0 1-2.91 3c-1 .14-8.34.29-13.91-1.9s-14.18-4.63-16.47-2.34l19.45 11.79 13.37-3.77zm-45.53 11.52l.06.55c1 7.31 5.33 32.6 5.33 32.6l25-3.89-2.22-7.76-.3-.38c-9.72 4.26-26.5-19.17-27.87-21.12z" fill="#f6adbd"/><path d="M122.99 241.52s12.59.35 14.91-1 4.54-4.35 6.4-7.94 2.77-4.55 3.33-4.95 2.27-2.87.71-4.33-4-3.88-4-3.88l2.27-8.11-9.15-5.08s-1.36 13.06-1.73 14.29-2.17 10.83-5.85 14.76c0 0-3.78 3.22-5.19 3.43s-1.75 1.69-1.7 2.81z" class="z"/><path d="M122.99 241.52s12.59.35 14.91-1 4.54-4.35 6.4-7.94 2.77-4.55 3.33-4.95 2.27-2.87.71-4.33-4-3.88-4-3.88-4.33 16.68-14.46 15.87c0 0-3.78 3.22-5.19 3.43s-1.75 1.68-1.7 2.8z" fill="#2e2c6f"/><path d="M128.88 206.27a33.45 33.45 0 0 1 9.94 3.54l2.2 1.29a14.52 14.52 0 0 0 1.29.74 11.19 11.19 0 0 0 4.38 1.22 9.53 9.53 0 0 0 5.44-1.21c0 0 3-14.13 3.52-17.73a15.78 15.78 0 0 0-1.12-7.31l9.93-33.64s6.58-4.1 13-13.8a61.81 61.81 0 0 0 2.35-3.87c7-12.49-5.28-24.41-5.55-25.77s0-.94 0-6.27c-1.55.76-10.62.38-16.65 0l-1-.06-4.41-.29.42 13-5.33 23.54-9.83 14.31-2.6 8z" fill="#fbdae2"/><g fill="#f6adbd"><path d="M138.83 209.81l-1.18.72 4.67 1.31 4.38 1.22a9.53 9.53 0 0 0 5.44-1.21l3.52-17.73a15.78 15.78 0 0 0-1.12-7.31l9.92-33.64s6.58-4.1 13-13.8c-4.33 2.82-19 11.82-34.31 15.12.79-.14 20.21-3.5 22.19-5.21l-26.67 30.52s19.52-15.93 23.79-23.61c-3.31 8-16.74 38.76-27.43 42 0 0 15-.92 18.47-10.23 0 0 1.51 9-1.43 12.32-2.36 2.68-10.24 7.67-13.24 9.53zm17.94-98.64a45.23 45.23 0 0 0 .3 5.57l4.74-8.53-4.2.18v-4.88l-1-.06v5.11h-3.15s3.4.39 3.31 2.61z"/><ellipse cx="154.54" cy="106.29" rx=".6" ry=".83"/></g><path d="M147.21 67.86l1.86.88a11.7 11.7 0 0 1-1.37-1.92z" fill="#29296d"/><path d="M142.8 79.04c.29 2.08 3.88 14 2.52 18 0 0 9.83-1.5 18.3 2.23 0 0 9.73 3.1 14.19 1.4l-.24-11.91h0c.15-.08 2.12-1.13 2.22-1.69l-2.86-13.85s-8.59 4-16.62-.43-9.56-6.84-7-9.64c0 0-4-.14-5.19 2.62a29.44 29.44 0 0 1-.47 1.05 10.53 10.53 0 0 0 1.37 1.92 41.23 41.23 0 0 1-1.86-.88c-1.7 3.63-4.6 9.54-4.36 11.18z" fill="#ed294b"/><path d="M174.73 88.07v1.52l2.84-.82h0c.15-.08 2.12-1.13 2.22-1.69-4.41 1.38-5.06.99-5.06.99z" class="AG"/><path d="M151.95 65.54a11.91 11.91 0 0 0 9.84 8.37 15.51 15.51 0 0 0 2.8.5l1-7.34-1.85-1.25-3.46-2.34-6.78-.84a20.14 20.14 0 0 0-1.55 2.9z" class="z"/><path d="M161.38 73.84l2.59.54 1.24-7.58-1.85-1.25a18.55 18.55 0 0 0-1.98 8.29z"/><path d="M174.75 88.19s1.74 13.8-2.23 19.17l-28.62 38.11s-.05-6.34.77-9.34 5.57-7.31 6.68-9.3 10.65-23.1 11.67-24.35c0 0 1.11-13.32.53-15.54a14.41 14.41 0 0 1 3.78.53c1.6.53 6.31 1.4 7.42.72z" class="z"/><path d="M163.57 86.93l.14 1.2v1.65s-4.17-.47-4.33-2.1c.08-1 3.84-.84 4.19-.75z" class="AG"/><path d="M160.39 73.92l-.7 13.76" fill="none" stroke="#9e0418" class="AH AI"/></svg>