<?xml version="1.0" encoding="utf-8"?>
<!-- Generator: Adobe Illustrator 24.1.3, SVG Export Plug-In . SVG Version: 6.00 Build 0)  -->
<svg version="1.1" id="sketchvalley" xmlns="http://www.w3.org/2000/svg" xmlns:xlink="http://www.w3.org/1999/xlink" x="0px"
	 y="0px" viewBox="0 0 856.8 695.4" style="enable-background:new 0 0 856.8 695.4;" xml:space="preserve">
<style type="text/css">
	.st0{fill:#82BE3C;}
	.st1{fill:#258E46;}
	.st2{fill:none;stroke:#1F7237;stroke-width:1.2906;stroke-miterlimit:10;}
	.st3{fill:#E3880C;}
	.st4{fill:#5EA542;}
	.st5{fill:#288B48;}
	.st6{fill:#1F7237;}
	.st7{fill:#5CA93E;}
	.st8{fill:#59AD40;}
	.st9{fill:#50AD3E;}
	.st10{fill:#208E44;}
	.st11{fill:#5DAA42;}
	.st12{fill:#322A7D;}
	.st13{fill:#FECFB5;}
	.st14{fill:#FFAD83;}
	.st15{opacity:0.2;clip-path:url(#XMLID_3_);}
	.st16{fill:#FFFFFF;}
	.st17{fill:#020B42;}
	.st18{fill:#3C2843;}
	.st19{fill:none;stroke:#364BCC;stroke-width:0.9892;stroke-miterlimit:10;}
	.st20{fill:#4C63ED;}
	.st21{fill:#2639D1;}
	.st22{fill:#FE896F;}
	.st23{fill:#9D4645;}
	.st24{fill:#935252;}
	.st25{fill:#541B1B;}
	.st26{fill:#FD5923;}
	.st27{fill:#EA4E24;}
	.st28{fill:none;stroke:#FF7B57;stroke-width:2;stroke-linecap:round;stroke-miterlimit:10;}
	.st29{fill:#FFD295;}
	.st30{fill:#FFEED5;}
	.st31{fill:#9B4444;}
	.st32{fill:#FFC40E;}
	.st33{fill:#EDB20C;}
	.st34{fill:#3A1021;}
	.st35{fill:#D89E0E;}
	.st36{fill:#1A1972;}
	.st37{fill:#FFAA96;}
	.st38{fill:#2E38AF;}
	.st39{fill:#3D4EDE;}
	.st40{fill:none;stroke:#566DEF;stroke-width:2;stroke-linecap:round;stroke-linejoin:round;stroke-miterlimit:10;}
	.st41{fill:#F29E8C;}
	.st42{fill:#E1F3FF;}
	.st43{fill:#FE5B06;}
	.st44{fill:#DD5112;}
	.st45{fill:#FE9C87;}
</style>
<g>
	<g>
		<path class="st0" d="M788,391.4c0,0-16.1,6.7-23.2,7.2c-7,0.5-39.6,13.6-30.5,36.1S788,391.4,788,391.4z"/>
		<path class="st1" d="M675.8,462.1c0,0,27.7-0.8,30.8,7.8c3.1,8.6-5.7,16.2-7.4,21.6c-1.6,5.5-3.6,12.5-3.6,12.5L675.8,462.1z"/>
		<path class="st2" d="M699.6,548.3c0,0,12,6.3,9.6,22.4"/>
		<path class="st2" d="M694.9,501.6c0,0,15.8,45.5,11.7,69.3"/>
		<path class="st2" d="M719.4,539.7c0,0-12.8,14.8-3.1,30.6"/>
		<path class="st2" d="M743.9,482.1c0,0-5.5,58.1-22.3,87.9"/>
		<path class="st2" d="M696.4,472c0,0,14.5,28,14.9,48.7c0.4,20.7,1.4,50.1,1.4,50.1"/>
		<path class="st2" d="M709.9,429.6c0,0-4.5,17.7,0,43.7s10.6,78.5,8,96.9"/>
		<path class="st3" d="M736.3,649.7H695c-5.6,0-10.4-4.1-11.3-9.7l-10.2-66.5c-0.3-2.1,1.3-3.9,3.4-3.9h76.9c2.1,0,3.7,1.8,3.4,3.9
			l-9.6,66.5C746.8,645.6,741.9,649.7,736.3,649.7z"/>
		<path class="st1" d="M744.2,485.1c0,0,34.4-81.3,57.7-96.4c0,0-13.1-2.6-16,3c-2.9,5.6-14.2,15.5-24.6,14.7
			c-10.4-0.8-15.2,5.6-15.3,12.6c-0.2,7-8.9,15.8-11.7,15.7c0,0,1.8,12.1,4,15s-4.6,11.8-3.7,16S736.4,481,744.2,485.1z"/>
		<path class="st4" d="M690.1,529.2c-9.2-2.2-8.4,1.7-52.8,1.7c27.2,7.4,61.1,17.2,61.1,17.2l1.2,0.3
			C699.6,548.3,701.2,531.9,690.1,529.2z"/>
		<path class="st5" d="M637.3,530.9c0,0,6.7,2,12.1,1c5.4-1.1,13.3-0.4,15.6,1.9s5.6,3.6,12.2,2.4s18.6-3.6,21.1,11.9
			c0,0-2.6,4.7-16.8-0.6C667.4,542.2,639.7,534,637.3,530.9z"/>
		<path class="st6" d="M603.8,422.3c0,0,1,25,25.2,32.9c24.2,7.8,35.3,11.7,38.8,17.2c3.5,5.6,0.7-30.9,0.7-30.9
			s-2.9-10.7-16.3-10.1C638.8,431.9,608.4,437.6,603.8,422.3z"/>
		<path class="st7" d="M695.6,504l-27.1-62.5c0,0-4.3,24.2-0.7,30.9s5.9,12.8,11.9,18.3C685.7,496.2,695.5,502.5,695.6,504z"/>
		<path class="st8" d="M792.5,487.3c0,0-29.7,8.7-37.4,10.6c-7.7,1.9-22.6,4.3-28.7,9c-9.8,7.5-16.8,21.2-7.9,34.2"/>
		<path class="st1" d="M718.4,541.1c0,0-6.2-30.3,33.6-29.9c0,0,1.9-10.3,10.7-13c8.7-2.7,23.9-5.8,29.7-10.9
			C792.5,487.3,733.4,546.5,718.4,541.1z"/>
		<path class="st6" d="M745.4,480.6c0,0,20-31.3,32.8-39.2c12.8-7.8,18.7-16.6,16.8-26.5s-1.8-22.2-1.8-22.2
			S741.8,457.5,745.4,480.6z"/>
		<path class="st9" d="M709.9,429.6c0,0-10.1-12.5-12.8-12.9s-6.7-19.5,8.6-28.1s21.4-12,31.6-22.5s31.2-25.9,56.3-22.5
			c-16,7.7-17.9,9.1-24.9,17.7c-7,8.6-14.4,20.1-24.3,29.9C734.5,400.8,709.9,429.6,709.9,429.6z"/>
		<path class="st1" d="M709.2,435.2c0,0-2.7-25.4,8.2-29.6c10.9-4.2,28.1-15.5,35-26.4c6.9-10.9,26.7-39.2,43.5-35.8
			c0,0-20.5,8-25.9,19.3c-5.4,11.3-20.1,33.6-35,42S709.2,435.2,709.2,435.2z"/>
		<path class="st10" d="M691,425.6c0,0,28.8,6.7,29.4,17.7c0.6,11-11.5,14.5-14.9,18.2c-3.4,3.7-8.6,12-8.6,12L691,425.6z"/>
		<path class="st6" d="M637.2,366.3c0,0,6.4,17.3,24.3,18.7c17.9,1.4,29.6,7.7,28.8,16.1c-0.8,8.5-5,42-5,42s-9.6-18.7-17.4-24.6
			C660,412.6,632.5,401.6,637.2,366.3z"/>
		<path class="st11" d="M696.9,473.5l-6.7-72.4c0,0-16.3,28.6-5.4,49.9C695.7,472.2,696.9,473.5,696.9,473.5z"/>
	</g>
	<g>
		<path class="st0" d="M220.5,387c0,0-16.1,6.7-23.2,7.2c-7,0.5-39.6,13.6-30.5,36.1S220.5,387,220.5,387z"/>
		<path class="st1" d="M108.2,457.7c0,0,27.7-0.8,30.8,7.8c3.1,8.6-5.7,16.2-7.4,21.6c-1.6,5.5-3.6,12.5-3.6,12.5L108.2,457.7z"/>
		<path class="st2" d="M132.1,544c0,0,12,6.3,9.6,22.4"/>
		<path class="st2" d="M127.4,497.2c0,0,15.8,45.5,11.7,69.3"/>
		<path class="st2" d="M151.9,535.3c0,0-12.8,14.8-3.1,30.6"/>
		<path class="st2" d="M176.3,477.7c0,0-5.5,58.1-22.3,87.9"/>
		<path class="st2" d="M128.9,467.7c0,0,14.5,28,14.9,48.7c0.4,20.7,1.4,50.1,1.4,50.1"/>
		<path class="st2" d="M142.3,425.2c0,0-4.5,17.7,0,43.7c4.5,26,10.6,78.5,8,96.9"/>
		<path class="st3" d="M168.7,645.4h-41.3c-5.6,0-10.4-4.1-11.3-9.7L106,569.1c-0.3-2.1,1.3-3.9,3.4-3.9h76.9c2.1,0,3.7,1.8,3.4,3.9
			l-9.6,66.5C179.2,641.2,174.4,645.4,168.7,645.4z"/>
		<path class="st1" d="M176.7,480.7c0,0,34.4-81.3,57.7-96.4c0,0-13.1-2.6-16,3s-14.2,15.5-24.6,14.7c-10.4-0.8-15.2,5.6-15.3,12.6
			c-0.2,7-8.9,15.8-11.7,15.7c0,0,1.8,12.1,4,15c2.2,2.9-4.6,11.8-3.7,16C168.1,465.5,168.9,476.7,176.7,480.7z"/>
		<path class="st4" d="M122.5,524.9c-9.2-2.2-8.4,1.7-52.8,1.7c27.2,7.4,61.1,17.2,61.1,17.2l1.2,0.3
			C132.1,544,133.6,527.5,122.5,524.9z"/>
		<path class="st5" d="M69.8,526.5c0,0,6.7,2,12.1,1c5.4-1.1,13.3-0.4,15.6,1.9c2.3,2.3,5.6,3.6,12.2,2.4
			c6.6-1.2,18.6-3.6,21.1,11.9c0,0-2.6,4.7-16.8-0.6C99.9,537.8,72.2,529.6,69.8,526.5z"/>
		<path class="st6" d="M36.3,418c0,0,1,25,25.2,32.9c24.2,7.8,35.3,11.7,38.8,17.2c3.5,5.6,0.7-30.9,0.7-30.9s-2.9-10.7-16.3-10.1
			S40.9,433.2,36.3,418z"/>
		<path class="st7" d="M128.1,499.6L101,437.1c0,0-4.3,24.2-0.7,30.9c3.6,6.8,5.9,12.8,11.9,18.3
			C118.2,491.8,127.9,498.1,128.1,499.6z"/>
		<path class="st8" d="M224.9,482.9c0,0-29.7,8.7-37.4,10.6c-7.7,1.9-22.6,4.3-28.7,9c-9.8,7.5-16.8,21.2-7.9,34.2"/>
		<path class="st1" d="M150.9,536.7c0,0-6.2-30.3,33.6-29.9c0,0,1.9-10.3,10.7-13c8.7-2.7,23.9-5.8,29.7-10.9
			C224.9,482.9,165.9,542.2,150.9,536.7z"/>
		<path class="st6" d="M177.8,476.2c0,0,20-31.3,32.8-39.2c12.8-7.8,18.7-16.6,16.8-26.5c-1.9-9.9-1.8-22.2-1.8-22.2
			S174.3,453.2,177.8,476.2z"/>
		<path class="st9" d="M142.3,425.2c0,0-10.1-12.5-12.8-12.9c-2.7-0.5-6.7-19.5,8.6-28.1s21.4-12,31.6-22.5
			c10.2-10.5,31.2-25.9,56.3-22.5c-16,7.7-17.9,9.1-24.9,17.7c-7,8.6-14.4,20.1-24.3,29.9C167,396.4,142.3,425.2,142.3,425.2z"/>
		<path class="st1" d="M141.7,430.8c0,0-2.7-25.4,8.2-29.6s28.1-15.5,35-26.4s26.7-39.2,43.5-35.8c0,0-20.5,8-25.9,19.3
			c-5.4,11.3-20.1,33.6-35,42C152.6,408.9,141.7,430.8,141.7,430.8z"/>
		<path class="st10" d="M123.5,421.2c0,0,28.8,6.7,29.4,17.7c0.6,11-11.5,14.5-14.9,18.2c-3.4,3.7-8.6,12-8.6,12L123.5,421.2z"/>
		<path class="st6" d="M69.6,361.9c0,0,6.4,17.3,24.3,18.7s29.6,7.7,28.8,16.1c-0.8,8.5-5,42-5,42s-9.6-18.7-17.4-24.6
			S65,397.2,69.6,361.9z"/>
		<path class="st11" d="M129.4,469.2l-6.7-72.4c0,0-16.3,28.6-5.4,49.9C128.1,467.9,129.4,469.2,129.4,469.2z"/>
	</g>
	<g>
		<path class="st12" d="M365.8,631.4c0,0-11.8,20.6-15.6,23.7c-3.8,3.1-12.6,8.6-11,10c1.6,1.4,30.7-3.4,30.7-3.4l6-11.5l1.8,12.1
			h2.8c0,0-0.2-16.4,1.2-16.9c1.4-0.6,7.7-10.5,1.1-14.4C376.1,627.2,365.8,631.4,365.8,631.4"/>
		<path class="st12" d="M462.3,625c0,0-4.9,2.9-6.1,10.6c-1.2,7.7-1.2,24.5-1.2,24.5s0.7,6,9,6.7c8.3,0.7,19.2-2.5,19.2-2.5
			s0-4.7-1.4-7.4c-1.4-2.7-8.5-28.4-9-30.1C472.4,625.1,462.3,625,462.3,625z"/>
		<path class="st13" d="M423.2,499.8c0,0-0.7,20.5-8.7,38.9c-8,18.4-27.3,50.3-27.6,60.2s-4.4,28.5-4.1,32.1c0,0-0.8,1.4-1.9,3.3
			c-1,1.8-2.4,4-3.8,5.9c-3,4-9.3,16.5-23,16.4c0,0,12.2-18.2,13.8-35.3c1.6-17.1,3.9-55.7,5.5-68.8c1.6-13,10.6-45.4,12-48.1
			c0.8-1.6,14.2-3,24.8-3.8C417.3,500.2,423.2,499.8,423.2,499.8z"/>
		<path class="st13" d="M456.3,499.8c0,0,0.9,20,2.8,43.4s3,57.8,2.3,73.9c-0.7,16.2-2.1,38.4,0.2,39.8c2.3,1.3,9.7,4.7,14.7,0
			c0,0-4.6-34.2-1.6-49c3-14.8,17.7-85,18.1-98.2S456.3,499.8,456.3,499.8z"/>
		<path class="st14" d="M423.2,499.8c0,0-0.7,20.5-8.7,38.9c-8,18.4-27.3,50.3-27.6,60.2s-4.4,28.5-4.1,32.1c0,0-0.8,1.4-1.9,3.3
			c-2.4-22.7,4.7-62.3,13-76c10.3-17.1,14.2-57,14.2-57l2.1-0.7C417.3,500.2,423.2,499.8,423.2,499.8z"/>
		<path class="st12" d="M382.8,506.8c0,0,14.7,6.1,34.4,2.2s28.5-6.3,46.6-2.2c18.1,4,32.2,7.6,32.2,7.6s8.7-20,0-58
			c0,0-2.3-9.7,2.5-22.7c4.8-13,20-56.6,19.5-77.1c-0.5-20.5-3.2-49.7-11.3-65.2s-20-41.1-20-41.1l-61.3,6.1c0,0,0.5,6.1-1.8,13.9
			c-2.3,7.9-14.2,26.1-18.6,50.6s-8.7,44.5-7.8,69c0.9,24.5,4.1,41.4,1.8,56S386.9,500.7,382.8,506.8z"/>
		<path class="st13" d="M304.1,150.3c0,0-1.2,0.9-0.4,2.5c0.8,1.6,10.7,10,18.3,15.7c6.6,4.9,20.2,9.8,21.8,15.8s4,47.9,6,52
			s5.6,15.2,12.2,11.3c6.6-3.9,22.2-23.6,22.2-23.6l-12-20.5l-4.5,9c0,0-6.8-17.6-10.2-23.6c-3.4-6.1-5.4-11.9-4.4-17.2
			c1-5.3,3.6-15.2,2.8-20.1s-0.2-10.2-0.2-10.2s-6,2.5-6,7.4c0,4.9-0.8,8.4-3.2,8.4c-2.4,0-15.8-11.7-16.6-13.3
			c-0.6-1.2-7-7.6-10-10.4c-0.8-0.8-2.1-0.8-2.9-0.1v0c-0.8,0.7-0.9,1.9-0.3,2.7l7.8,10.6l-12.9-12.5c-0.8-0.8-2.1-0.9-3-0.2l0,0
			c-1,0.8-1.1,2.2-0.3,3.2l10.7,12.1l-11.8-8.5c-0.8-0.6-1.9-0.4-2.5,0.3l0,0c-0.6,0.7-0.5,1.7,0.1,2.3l11,12.1L304.1,150.3z"/>
		<g>
			<defs>
				<path id="XMLID_1_" d="M529,220.8c-3.3,0.1-23,0.6-23,0.6s-9.3-6.1-12.1-11.7c0,0,0,0,0,0c-2.8-5.6-4.5-21.2-4.5-21.2
					s-2.6,11.3-4,21.6c-1.4,10.3,1.4,40.2,1.4,40.2c-5.1,3.2-12.6,5.1-20.7,6.1c-18.9,2.3-40.6,0-40.6,0l-0.2-3.1
					c0,0-7.3-24.1-10.3-30.6c-3-6.5-6.7-22-9.6-21.6c-3,0.4-7.4,11.9-11.3,19.8c-3.5,7.1-11.1,9.5-12.6,6.3
					c-0.2-0.3-0.2-0.7-0.3-1.1c-0.2-4.7-13.3-25.4-13.3-25.4c-1.4-5.6,8.3-18.4,12.4-25.2c4.1-6.7,7.4-16,9-28.3
					c1.6-12.4,11.9-8.1,14.9-10.1c3-2,31-17.5,31-17.5c25-4.5,35.6,3.8,38.8,4.7c3.2,0.9,16.5,13.3,16.5,13.3
					c15.6-4.5,21.4,15.7,22.3,23.6c0.9,7.8,11.2,23.2,15.2,33.1C531.8,204.1,529,220.8,529,220.8z"/>
			</defs>
			<use xlink:href="#XMLID_1_"  style="overflow:visible;fill:#3D4EDE;"/>
			<clipPath id="XMLID_3_">
				<use xlink:href="#XMLID_1_"  style="overflow:visible;"/>
			</clipPath>
			<g class="st15">
				<g>
					<g>
						<g>
							<path class="st16" d="M445.9,130.9c-0.9,0-1.4-0.1-1.4-0.1c0-0.1,0.5,0,1.4,0c0.5,0,0.8,0,1,0c0.2,0,0.3,0,0.3,0
								c0,0-0.1,0-0.3,0C446.7,130.8,446.4,130.9,445.9,130.9"/>
							<path class="st16" d="M446.8,135.4c-0.9,0.2-1.5-0.2-1.6-0.6c-0.1-0.5,0.2-1,1.1-1.2c0.9-0.2,1.4,0.1,1.5,0.5
								C448,134.6,447.7,135.2,446.8,135.4"/>
							<path class="st16" d="M449.4,144.7c-1.8,0.5-2.5-2-0.7-2.5C450.5,141.8,451.2,144.2,449.4,144.7"/>
							<path class="st16" d="M452.2,154.4c-1.8,0.5-2.5-2-0.7-2.5C453.2,151.5,453.9,154,452.2,154.4"/>
							<path class="st16" d="M455,164.2c-1.8,0.5-2.5-2-0.7-2.5C456,161.2,456.7,163.7,455,164.2"/>
							<path class="st16" d="M457.7,173.9c-1.8,0.5-2.5-2-0.7-2.5C458.8,170.9,459.5,173.4,457.7,173.9"/>
							<path class="st16" d="M440.8,133.3c-0.9,0.2-1.4-0.1-1.5-0.5c-0.1-0.4,0.4-0.7,1.3-0.8c0.9-0.1,1.4,0.1,1.4,0.4
								C442.1,132.7,441.7,133.1,440.8,133.3"/>
							<path class="st16" d="M442.8,141.3c-1.8,0.5-2.5-2-0.7-2.5C443.9,138.3,444.6,140.8,442.8,141.3"/>
							<path class="st16" d="M445.6,151c-1.8,0.5-2.5-2-0.7-2.5C446.7,148,447.4,150.5,445.6,151"/>
							<path class="st16" d="M448.4,160.7c-1.8,0.5-2.5-2-0.7-2.5C449.5,157.8,450.2,160.3,448.4,160.7"/>
							<path class="st16" d="M451.2,170.5c-1.8,0.5-2.5-2-0.7-2.5C452.2,167.5,453,170,451.2,170.5"/>
							<path class="st16" d="M435.2,131.3c-1.9,0.1-1.8-1.3,0-1.1c0.9,0.1,1.4,0.3,1.4,0.5C436.6,131,436.1,131.3,435.2,131.3"/>
							<path class="st16" d="M436.4,138c-1.8,0.4-2.3-1.7-0.5-2.1c0.9-0.2,1.4,0.2,1.6,0.7C437.6,137.2,437.3,137.8,436.4,138"/>
							<path class="st16" d="M439.1,147.6c-1.8,0.5-2.5-2-0.7-2.5C440.1,144.6,440.8,147.1,439.1,147.6"/>
							<path class="st16" d="M441.8,157.3c-1.8,0.5-2.5-2-0.7-2.5C442.9,154.3,443.6,156.8,441.8,157.3"/>
							<path class="st16" d="M444.6,167.1c-1.8,0.5-2.5-2-0.7-2.5C445.7,164.1,446.4,166.6,444.6,167.1"/>
							<path class="st16" d="M447.4,176.8c-1.8,0.5-2.5-2-0.7-2.5C448.5,173.8,449.2,176.3,447.4,176.8"/>
							<path class="st16" d="M430.3,135.2c-1.8,0.3-2.1-1.8-0.3-1.9C431.8,133,432,134.8,430.3,135.2"/>
							<path class="st16" d="M432.5,144.1c-1.8,0.5-2.5-2-0.7-2.5C433.5,141.1,434.3,143.6,432.5,144.1"/>
							<path class="st16" d="M435.3,153.9c-1.8,0.5-2.5-2-0.7-2.5C436.3,150.9,437.1,153.4,435.3,153.9"/>
							<path class="st16" d="M438.1,163.6c-1.8,0.5-2.5-2-0.7-2.5C439.1,160.6,439.8,163.1,438.1,163.6"/>
							<path class="st16" d="M440.9,173.4c-1.8,0.5-2.5-2-0.7-2.5C441.9,170.4,442.6,172.9,440.9,173.4"/>
							<path class="st16" d="M424.5,131.8c-1.9,0.1-1.8-2.2,0-2.1C426.3,129.8,426.3,131.6,424.5,131.8"/>
							<path class="st16" d="M426,140.7c-1.8,0.5-2.4-2-0.6-2.4C427.2,137.9,427.8,140.2,426,140.7"/>
							<path class="st16" d="M428.7,150.4c-1.8,0.5-2.5-2-0.7-2.5C429.8,147.4,430.5,149.9,428.7,150.4"/>
							<path class="st16" d="M431.5,160.2c-1.8,0.5-2.5-2-0.7-2.5C432.6,157.2,433.3,159.7,431.5,160.2"/>
							<path class="st16" d="M434.3,170c-1.8,0.5-2.5-2-0.7-2.5C435.4,167,436.1,169.5,434.3,170"/>
							<path class="st16" d="M437.1,179.8c-1.8,0.5-2.5-2-0.7-2.5C438.2,176.7,438.9,179.2,437.1,179.8"/>
							<path class="st16" d="M419.7,137c-1.8,0.4-2.2-2.4-0.4-2.6C421.1,134.3,421.5,136.7,419.7,137"/>
							<path class="st16" d="M422.1,146.9c-1.8,0.5-2.5-2-0.7-2.5C423.2,143.9,423.9,146.4,422.1,146.9"/>
							<path class="st16" d="M424.9,156.7c-1.8,0.5-2.5-2-0.7-2.5C426,153.7,426.7,156.2,424.9,156.7"/>
							<path class="st16" d="M427.8,166.5c-1.8,0.5-2.5-2-0.7-2.5C428.8,163.5,429.5,166,427.8,166.5"/>
							<path class="st16" d="M430.6,176.3c-1.8,0.5-2.5-2-0.7-2.5C431.6,173.3,432.3,175.8,430.6,176.3"/>
							<path class="st16" d="M413.8,132.2c-0.9,0-1.4-0.7-1.4-1.6c0-0.8,0.5-1.6,1.4-1.6c0.9,0.1,1.3,0.8,1.3,1.6
								C415.1,131.4,414.7,132.2,413.8,132.2"/>
							<path class="st16" d="M415.6,143.3c-1.8,0.5-2.5-2.3-0.7-2.7C416.7,140.3,417.4,142.9,415.6,143.3"/>
							<path class="st16" d="M418.4,153.3c-1.8,0.5-2.5-2-0.7-2.5C419.4,150.2,420.1,152.8,418.4,153.3"/>
							<path class="st16" d="M421.2,163.1c-1.8,0.5-2.5-2-0.7-2.5C422.2,160.1,423,162.6,421.2,163.1"/>
							<path class="st16" d="M424,172.9c-1.8,0.5-2.5-2-0.7-2.5C425,169.9,425.8,172.4,424,172.9"/>
							<path class="st16" d="M426.8,182.7c-1.8,0.5-2.5-2-0.7-2.5C427.8,179.7,428.6,182.2,426.8,182.7"/>
							<path class="st16" d="M409.1,138.9c-0.9,0.2-1.5-0.6-1.6-1.4c-0.1-0.8,0.2-1.8,1.1-1.8C410.5,135.5,410.9,138.6,409.1,138.9"
								/>
							<path class="st16" d="M411.8,149.8c-1.8,0.5-2.5-2-0.7-2.5C412.9,146.7,413.6,149.3,411.8,149.8"/>
							<path class="st16" d="M414.6,159.6c-1.8,0.5-2.5-2-0.7-2.5C415.7,156.6,416.4,159.1,414.6,159.6"/>
							<path class="st16" d="M417.4,169.4c-1.8,0.5-2.5-2-0.7-2.5C418.5,166.4,419.2,168.9,417.4,169.4"/>
							<path class="st16" d="M420.2,179.2c-1.8,0.5-2.5-2-0.7-2.5C421.3,176.2,422,178.7,420.2,179.2"/>
							<path class="st16" d="M403,132.7c-0.9,0-1.4-1-1.4-2c0-1.1,0.5-2.1,1.4-2.1c0.9,0.1,1.3,1.1,1.3,2.1
								C404.4,131.6,404,132.6,403,132.7"/>
							<path class="st16" d="M405.2,146c-0.9,0.2-1.5-0.4-1.7-1.1c-0.2-0.8,0.1-1.7,1-1.9C406.3,142.6,407,145.6,405.2,146"/>
							<path class="st16" d="M408,156.1c-1.8,0.5-2.5-2-0.7-2.5C409.1,153.1,409.8,155.6,408,156.1"/>
							<path class="st16" d="M410.9,165.9c-1.8,0.5-2.5-2-0.7-2.5C411.9,162.9,412.6,165.4,410.9,165.9"/>
							<path class="st16" d="M413.7,175.8c-1.8,0.5-2.5-2-0.7-2.5C414.7,172.8,415.4,175.3,413.7,175.8"/>
							<path class="st16" d="M416.5,185.6c-1.8,0.5-2.5-2-0.7-2.5S418.3,185.1,416.5,185.6"/>
							<path class="st16" d="M398.6,140.8c-0.9,0.2-1.5-0.7-1.7-1.7c-0.2-1,0.2-2.1,1.1-2.2c0.9-0.1,1.5,0.8,1.6,1.8
								C399.8,139.7,399.5,140.7,398.6,140.8"/>
							<path class="st16" d="M401.5,152.6c-1.8,0.5-2.5-2.1-0.7-2.6C402.5,149.6,403.2,152.1,401.5,152.6"/>
							<path class="st16" d="M404.3,162.4c-1.8,0.5-2.5-2-0.7-2.5C405.3,159.4,406,162,404.3,162.4"/>
							<path class="st16" d="M407.1,172.3c-1.8,0.5-2.5-2-0.7-2.5C408.1,169.3,408.9,171.8,407.1,172.3"/>
							<path class="st16" d="M409.9,182.2c-1.8,0.5-2.5-2-0.7-2.5C411,179.1,411.7,181.7,409.9,182.2"/>
							<path class="st16" d="M392.3,133.1c-0.9,0-1.4-1.2-1.4-2.5c0-1.3,0.5-2.7,1.4-2.6c0.9,0,1.3,1.4,1.3,2.6
								C393.7,131.8,393.3,133,392.3,133.1"/>
							<path class="st16" d="M394.8,148.6c-0.9,0.2-1.5-0.4-1.7-1.3c-0.2-0.8,0-1.8,0.9-2c0.9-0.2,1.5,0.6,1.7,1.4
								C396,147.5,395.7,148.4,394.8,148.6"/>
							<path class="st16" d="M397.7,158.9c-1.8,0.5-2.5-2.1-0.7-2.5C398.7,155.9,399.5,158.4,397.7,158.9"/>
							<path class="st16" d="M400.5,168.8c-1.8,0.5-2.5-2-0.7-2.5C401.6,165.8,402.3,168.3,400.5,168.8"/>
							<path class="st16" d="M403.3,178.7c-1.8,0.5-2.5-2-0.7-2.5C404.4,175.7,405.1,178.2,403.3,178.7"/>
							<path class="st16" d="M406.2,188.6c-1.8,0.5-2.5-2-0.7-2.5C407.2,185.5,407.9,188.1,406.2,188.6"/>
						</g>
						<g>
							<path class="st16" d="M458.5,176.4c-1.8,0.5-2.5-2-0.7-2.5C459.5,173.4,460.2,175.9,458.5,176.4"/>
							<path class="st16" d="M461.2,186.1c-1.8,0.5-2.5-2-0.7-2.5C462.3,183.1,463,185.6,461.2,186.1"/>
							<path class="st16" d="M464,195.8c-1.8,0.5-2.5-2-0.7-2.5C465.1,192.8,465.8,195.3,464,195.8"/>
							<path class="st16" d="M466.8,205.5c-1.8,0.5-2.5-2-0.7-2.5S468.5,205,466.8,205.5"/>
							<path class="st16" d="M469.6,215.2c-1.8,0.5-2.5-2-0.7-2.5C470.6,212.2,471.3,214.7,469.6,215.2"/>
							<path class="st16" d="M472.4,224.7c-1.8,0.6-2.5-1.9-0.7-2.4C473.5,221.8,474.2,224.2,472.4,224.7"/>
							<path class="st16" d="M454.7,182.7c-1.8,0.5-2.5-2-0.7-2.5S456.5,182.2,454.7,182.7"/>
							<path class="st16" d="M457.5,192.4c-1.8,0.5-2.5-2-0.7-2.5S459.2,191.9,457.5,192.4"/>
							<path class="st16" d="M460.3,202.2c-1.8,0.5-2.5-2-0.7-2.5C461.3,199.1,462,201.6,460.3,202.2"/>
							<path class="st16" d="M463,211.9c-1.8,0.5-2.5-2-0.7-2.5C464.1,208.9,464.8,211.4,463,211.9"/>
							<path class="st16" d="M465.9,221.6c-1.8,0.5-2.5-1.9-0.7-2.5C466.9,218.6,467.6,221,465.9,221.6"/>
							<path class="st16" d="M448.1,179.3c-1.8,0.5-2.5-2-0.7-2.5C449.2,176.3,449.9,178.8,448.1,179.3"/>
							<path class="st16" d="M450.9,189.1c-1.8,0.5-2.5-2-0.7-2.5C452,186.1,452.7,188.6,450.9,189.1"/>
							<path class="st16" d="M453.7,198.8c-1.8,0.5-2.5-2-0.7-2.5C454.8,195.8,455.5,198.3,453.7,198.8"/>
							<path class="st16" d="M456.5,208.6c-1.8,0.5-2.5-2-0.7-2.5S458.3,208,456.5,208.6"/>
							<path class="st16" d="M459.3,218.3c-1.8,0.5-2.5-2-0.7-2.5C460.3,215.3,461.1,217.8,459.3,218.3"/>
							<path class="st16" d="M462.2,227.9c-1.8,0.6-2.5-1.9-0.8-2.4C463.2,224.9,464,227.3,462.2,227.9"/>
							<path class="st16" d="M444.4,185.7c-1.8,0.5-2.5-2-0.7-2.5C445.4,182.7,446.1,185.2,444.4,185.7"/>
							<path class="st16" d="M447.2,195.4c-1.8,0.5-2.5-2-0.7-2.5S448.9,194.9,447.2,195.4"/>
							<path class="st16" d="M450,205.2c-1.8,0.5-2.5-2-0.7-2.5C451,202.2,451.7,204.7,450,205.2"/>
							<path class="st16" d="M452.8,215c-1.8,0.5-2.5-2-0.7-2.5C453.8,211.9,454.5,214.4,452.8,215"/>
							<path class="st16" d="M455.6,224.7c-1.8,0.5-2.5-2-0.8-2.5C456.6,221.7,457.4,224.2,455.6,224.7"/>
							<path class="st16" d="M437.8,182.3c-1.8,0.5-2.5-2-0.7-2.5C438.9,179.2,439.6,181.8,437.8,182.3"/>
							<path class="st16" d="M440.6,192c-1.8,0.5-2.5-2-0.7-2.5S442.4,191.5,440.6,192"/>
							<path class="st16" d="M443.4,201.8c-1.8,0.5-2.5-2-0.7-2.5C444.5,198.8,445.2,201.3,443.4,201.8"/>
							<path class="st16" d="M446.2,211.6c-1.8,0.5-2.5-2-0.7-2.5S448,211.1,446.2,211.6"/>
							<path class="st16" d="M449,221.4c-1.8,0.5-2.5-2-0.7-2.5C450.1,218.3,450.8,220.9,449,221.4"/>
							<path class="st16" d="M452,231.1c-1.8,0.5-2.5-1.9-0.8-2.5C453,228.1,453.7,230.5,452,231.1"/>
							<path class="st16" d="M434.1,188.6c-1.8,0.5-2.5-2-0.7-2.5C435.1,185.6,435.8,188.1,434.1,188.6"/>
							<path class="st16" d="M436.9,198.4c-1.8,0.5-2.5-2-0.7-2.5C437.9,195.4,438.6,197.9,436.9,198.4"/>
							<path class="st16" d="M439.7,208.2c-1.8,0.5-2.5-2-0.7-2.5S441.4,207.7,439.7,208.2"/>
							<path class="st16" d="M442.5,218c-1.8,0.5-2.5-2-0.7-2.5C443.5,215,444.2,217.5,442.5,218"/>
							<path class="st16" d="M445.4,227.8c-1.8,0.5-2.5-2-0.8-2.5C446.4,224.8,447.1,227.3,445.4,227.8"/>
							<path class="st16" d="M427.5,185.2c-1.8,0.5-2.5-2-0.7-2.5C428.6,182.2,429.3,184.7,427.5,185.2"/>
							<path class="st16" d="M430.3,195c-1.8,0.5-2.5-2-0.7-2.5C431.4,192,432.1,194.5,430.3,195"/>
							<path class="st16" d="M433.1,204.8c-1.8,0.5-2.5-2-0.7-2.5C434.2,201.8,434.9,204.3,433.1,204.8"/>
							<path class="st16" d="M435.9,214.7c-1.8,0.5-2.5-2-0.7-2.5S437.7,214.1,435.9,214.7"/>
							<path class="st16" d="M438.8,224.5c-1.8,0.5-2.5-2-0.7-2.5C439.8,221.4,440.5,223.9,438.8,224.5"/>
							<path class="st16" d="M441.7,234.3c-1.8,0.5-2.5-2-0.8-2.5C442.7,231.2,443.5,233.7,441.7,234.3"/>
							<path class="st16" d="M423.8,191.6c-1.8,0.5-2.5-2-0.7-2.5C424.8,188.6,425.5,191.1,423.8,191.6"/>
							<path class="st16" d="M426.6,201.4c-1.8,0.5-2.5-2-0.7-2.5C427.6,198.4,428.3,200.9,426.6,201.4"/>
							<path class="st16" d="M429.4,211.3c-1.8,0.5-2.5-2-0.7-2.5C430.4,208.2,431.2,210.7,429.4,211.3"/>
							<path class="st16" d="M432.2,221.1c-1.8,0.5-2.5-2-0.7-2.5C433.2,218,434,220.6,432.2,221.1"/>
							<path class="st16" d="M435.1,230.9c-1.8,0.5-2.5-2-0.8-2.5C436.1,227.9,436.8,230.4,435.1,230.9"/>
							<path class="st16" d="M417.2,188.2c-1.8,0.5-2.5-2-0.7-2.5C418.3,185.1,419,187.7,417.2,188.2"/>
							<path class="st16" d="M420,198c-1.8,0.5-2.5-2-0.7-2.5C421.1,195,421.8,197.5,420,198"/>
							<path class="st16" d="M422.8,207.9c-1.8,0.5-2.5-2-0.7-2.5C423.9,204.8,424.6,207.3,422.8,207.9"/>
							<path class="st16" d="M425.7,217.7c-1.8,0.5-2.5-2-0.7-2.5S427.4,217.2,425.7,217.7"/>
							<path class="st16" d="M428.5,227.5c-1.8,0.5-2.5-2-0.7-2.5C429.5,224.5,430.2,227,428.5,227.5"/>
							<path class="st16" d="M431.5,237.5c-1.8,0.5-2.5-2-0.8-2.6C432.5,234.4,433.2,236.9,431.5,237.5"/>
							<path class="st16" d="M413.5,194.6c-1.8,0.5-2.5-2-0.7-2.5C414.5,191.5,415.2,194.1,413.5,194.6"/>
							<path class="st16" d="M416.3,204.4c-1.8,0.5-2.5-2-0.7-2.5C417.3,201.4,418.1,203.9,416.3,204.4"/>
							<path class="st16" d="M419.1,214.3c-1.8,0.5-2.5-2-0.7-2.5C420.1,211.2,420.9,213.8,419.1,214.3"/>
							<path class="st16" d="M421.9,224.2c-1.8,0.5-2.5-2-0.7-2.5C423,221.1,423.7,223.6,421.9,224.2"/>
							<path class="st16" d="M424.8,234c-1.8,0.5-2.5-2-0.8-2.5C425.8,231,426.6,233.5,424.8,234"/>
							<path class="st16" d="M406.9,191.1c-1.8,0.5-2.5-2-0.7-2.5C407.9,188.1,408.7,190.6,406.9,191.1"/>
							<path class="st16" d="M409.7,201c-1.8,0.5-2.5-2-0.7-2.5C410.8,197.9,411.5,200.5,409.7,201"/>
							<path class="st16" d="M412.6,210.9c-1.8,0.5-2.5-2-0.7-2.5S414.3,210.4,412.6,210.9"/>
							<path class="st16" d="M415.4,220.7c-1.8,0.5-2.5-2-0.7-2.5S417.1,220.2,415.4,220.7"/>
							<path class="st16" d="M418.2,230.6c-1.8,0.5-2.5-2-0.7-2.5C419.2,227.6,420,230.1,418.2,230.6"/>
							<path class="st16" d="M421.3,240.6c-1.8,0.5-2.6-2.1-0.8-2.6C422.2,237.5,423,240.1,421.3,240.6"/>
						</g>
						<g>
							<path class="st16" d="M473.2,227.1c-1.7,0.6-2.5-1.8-0.7-2.4C474.2,224.2,474.9,226.5,473.2,227.1"/>
							<path class="st16" d="M476.1,236c-1.7,0.6-2.5-1.6-0.8-2.2C477.1,233.1,477.9,235.3,476.1,236"/>
							<path class="st16" d="M479.3,244.3c-1.7,0.7-2.5-1.4-0.8-2.1C480.2,241.6,481,243.6,479.3,244.3"/>
							<path class="st16" d="M482.7,252c-1.7,0.8-2.6-1.1-0.9-1.9C483.5,249.4,484.3,251.2,482.7,252"/>
							<path class="st16" d="M486.4,258.9c-1.6,1-2.6-0.8-1-1.7C487,256.4,487.9,258,486.4,258.9"/>
							<path class="st16" d="M490.4,264.8c-1.5,1.1-2.6-0.4-1.1-1.4C490.8,262.4,491.8,263.7,490.4,264.8"/>
							<path class="st16" d="M469.6,233.3c-1.7,0.6-2.5-1.8-0.8-2.3C470.5,230.4,471.3,232.7,469.6,233.3"/>
							<path class="st16" d="M472.7,242.1c-1.7,0.6-2.6-1.6-0.8-2.2C473.6,239.2,474.4,241.4,472.7,242.1"/>
							<path class="st16" d="M476,250.4c-1.7,0.7-2.6-1.4-0.9-2.1C476.8,247.7,477.7,249.7,476,250.4"/>
							<path class="st16" d="M479.8,258.1c-1.6,0.9-2.6-1.1-1-1.9C480.4,255.4,481.4,257.3,479.8,258.1"/>
							<path class="st16" d="M483.9,265c-1.5,1-2.7-0.7-1.1-1.7C484.3,262.4,485.4,264,483.9,265"/>
							<path class="st16" d="M463,230.3c-1.7,0.6-2.5-1.9-0.8-2.4C464,227.3,464.7,229.7,463,230.3"/>
							<path class="st16" d="M466,239.5c-1.7,0.6-2.5-1.7-0.8-2.3C467,236.6,467.8,238.9,466,239.5"/>
							<path class="st16" d="M469.4,248.3c-1.7,0.7-2.6-1.6-0.9-2.2C470.2,245.5,471,247.7,469.4,248.3"/>
							<path class="st16" d="M473,256.7c-1.7,0.8-2.7-1.3-1-2.1C473.7,253.9,474.7,255.9,473,256.7"/>
							<path class="st16" d="M477.2,264.4c-1.6,1-2.7-1-1.1-1.9C477.7,261.6,478.7,263.5,477.2,264.4"/>
							<path class="st16" d="M481.8,271.4c-1.5,1.1-2.8-0.6-1.3-1.7C482.1,268.6,483.3,270.2,481.8,271.4"/>
							<path class="st16" d="M459.4,236.6c-1.7,0.6-2.5-1.8-0.8-2.4C460.3,233.7,461.1,236.1,459.4,236.6"/>
							<path class="st16" d="M462.6,245.9c-1.7,0.6-2.6-1.7-0.9-2.3C463.5,242.9,464.3,245.2,462.6,245.9"/>
							<path class="st16" d="M466.2,254.8c-1.7,0.7-2.7-1.5-1-2.2C467,251.8,467.9,254,466.2,254.8"/>
							<path class="st16" d="M470.3,263.2c-1.6,0.9-2.7-1.3-1.1-2.1C470.8,260.3,471.9,262.3,470.3,263.2"/>
							<path class="st16" d="M475,271c-1.5,1-2.8-1-1.3-1.9C475.3,268.1,476.5,270,475,271"/>
							<path class="st16" d="M452.7,233.5c-1.7,0.6-2.5-1.9-0.8-2.5C453.7,230.5,454.5,233,452.7,233.5"/>
							<path class="st16" d="M455.9,243.1c-1.7,0.6-2.6-1.8-0.8-2.4C456.8,240,457.6,242.5,455.9,243.1"/>
							<path class="st16" d="M459.4,252.4c-1.7,0.7-2.6-1.7-0.9-2.4C460.2,249.3,461.1,251.7,459.4,252.4"/>
							<path class="st16" d="M463.4,261.4c-1.7,0.8-2.7-1.5-1.1-2.3C464,258.3,465,260.6,463.4,261.4"/>
							<path class="st16" d="M468,269.9c-1.6,1-2.9-1.2-1.2-2.1C468.3,266.9,469.5,269,468,269.9"/>
							<path class="st16" d="M473.3,277.9c-1.5,1.1-3-0.9-1.5-2C473.4,274.8,474.8,276.7,473.3,277.9"/>
							<path class="st16" d="M449.2,240c-1.7,0.6-2.6-1.9-0.8-2.5C450.1,237,450.9,239.4,449.2,240"/>
							<path class="st16" d="M452.6,249.6c-1.7,0.6-2.6-1.8-0.9-2.5C453.4,246.6,454.3,249,452.6,249.6"/>
							<path class="st16" d="M456.4,259.1c-1.7,0.7-2.7-1.7-1-2.4C457.1,256,458.1,258.3,456.4,259.1"/>
							<path class="st16" d="M460.9,268.2c-1.6,0.9-2.9-1.5-1.2-2.3C461.3,265.1,462.5,267.4,460.9,268.2"/>
							<path class="st16" d="M466.1,277c-1.5,1-3-1.2-1.4-2.2C466.2,273.8,467.6,275.9,466.1,277"/>
							<path class="st16" d="M442.5,236.8c-1.7,0.6-2.5-2-0.8-2.5C443.5,233.7,444.3,236.2,442.5,236.8"/>
							<path class="st16" d="M445.8,246.6c-1.7,0.6-2.6-1.9-0.9-2.5C446.7,243.5,447.5,246,445.8,246.6"/>
							<path class="st16" d="M449.5,256.4c-1.7,0.7-2.7-1.8-1-2.5C450.2,253.2,451.2,255.7,449.5,256.4"/>
							<path class="st16" d="M453.7,266c-1.7,0.8-2.8-1.7-1.2-2.5C454.2,262.8,455.4,265.2,453.7,266"/>
							<path class="st16" d="M458.8,275.4c-1.6,1-3-1.5-1.4-2.4C459,272.2,460.3,274.5,458.8,275.4"/>
							<path class="st16" d="M464.8,284.4c-1.5,1.1-3.2-1.2-1.7-2.2C464.6,281.1,466.2,283.3,464.8,284.4"/>
							<path class="st16" d="M439,243.4c-1.7,0.6-2.6-2-0.8-2.6C439.9,240.3,440.8,242.8,439,243.4"/>
							<path class="st16" d="M442.6,253.4c-1.7,0.6-2.7-1.9-0.9-2.6C443.3,250.2,444.3,252.7,442.6,253.4"/>
							<path class="st16" d="M446.6,263.4c-1.7,0.7-2.8-1.9-1.1-2.6C447.2,260.1,448.3,262.6,446.6,263.4"/>
							<path class="st16" d="M451.4,273.3c-1.6,0.9-3-1.7-1.3-2.5C451.7,269.9,453,272.4,451.4,273.3"/>
							<path class="st16" d="M457.2,283c-1.5,1-3.2-1.5-1.6-2.4C457.1,279.6,458.7,281.9,457.2,283"/>
							<path class="st16" d="M432.3,240c-1.8,0.6-2.6-2-0.8-2.6C433.2,236.9,434,239.5,432.3,240"/>
							<path class="st16" d="M435.7,250.2c-1.7,0.6-2.6-2-0.9-2.6C436.5,247,437.4,249.6,435.7,250.2"/>
							<path class="st16" d="M439.5,260.4c-1.7,0.7-2.8-2-1-2.6C440.2,257.1,441.2,259.7,439.5,260.4"/>
							<path class="st16" d="M444.1,270.7c-1.7,0.8-2.9-1.9-1.2-2.6C444.5,267.3,445.7,269.9,444.1,270.7"/>
							<path class="st16" d="M449.6,280.9c-1.6,1-3.1-1.7-1.5-2.6C449.6,277.4,451.1,280,449.6,280.9"/>
							<path class="st16" d="M456.3,290.9c-1.5,1.1-3.4-1.4-1.9-2.5C455.9,287.3,457.7,289.8,456.3,290.9"/>
							<path class="st16" d="M428.9,246.8c-1.7,0.6-2.6-2.1-0.9-2.6C429.7,243.6,430.6,246.2,428.9,246.8"/>
							<path class="st16" d="M432.5,257.2c-1.7,0.6-2.7-2.1-1-2.7C433.2,253.9,434.2,256.5,432.5,257.2"/>
							<path class="st16" d="M436.8,267.7c-1.7,0.7-2.9-2-1.2-2.7C437.3,264.3,438.5,267,436.8,267.7"/>
							<path class="st16" d="M441.9,278.4c-1.6,0.9-3.1-1.9-1.4-2.7C442.1,274.8,443.5,277.5,441.9,278.4"/>
							<path class="st16" d="M448.3,289c-1.5,1-3.3-1.7-1.8-2.7C448.1,285.3,449.8,287.9,448.3,289"/>
							<path class="st16" d="M422.1,243.3c-1.8,0.6-2.6-2.1-0.8-2.6C423,240.1,423.8,242.7,422.1,243.3"/>
							<path class="st16" d="M425.6,253.7c-1.7,0.6-2.7-2.1-0.9-2.7C426.4,250.4,427.3,253.1,425.6,253.7"/>
							<path class="st16" d="M429.6,264.4c-1.7,0.7-2.8-2.1-1.1-2.8C430.2,261,431.3,263.7,429.6,264.4"/>
							<path class="st16" d="M434.4,275.3c-1.7,0.8-3-2.1-1.3-2.8C434.7,271.8,436,274.5,434.4,275.3"/>
							<path class="st16" d="M440.4,286.4c-1.6,0.9-3.3-2-1.7-2.8C440.3,282.7,441.9,285.5,440.4,286.4"/>
							<path class="st16" d="M447.8,297.4c-1.5,1.1-3.6-1.7-2.1-2.8C447.2,293.6,449.2,296.3,447.8,297.4"/>
						</g>
					</g>
				</g>
			</g>
			<g class="st15">
				<g>
					<g>
						<g>
							<path class="st16" d="M490,110.8c-1.7,0.7-2.5-1.3-0.8-1.9C491,108.2,491.7,110.1,490,110.8"/>
							<path class="st16" d="M493.8,119.2c-1.7,0.8-2.7-1.5-1.1-2.3C494.4,116.1,495.4,118.4,493.8,119.2"/>
							<path class="st16" d="M498.1,128.6c-1.7,0.8-2.8-1.7-1.1-2.4C498.7,125.4,499.8,127.8,498.1,128.6"/>
							<path class="st16" d="M502.6,138.1c-1.7,0.8-2.8-1.7-1.1-2.4C503.1,134.8,504.2,137.3,502.6,138.1"/>
							<path class="st16" d="M507,147.5c-1.7,0.8-2.8-1.7-1.1-2.4S508.6,146.8,507,147.5"/>
							<path class="st16" d="M511.4,157c-1.7,0.8-2.8-1.7-1.1-2.4C511.9,153.8,513,156.2,511.4,157"/>
							<path class="st16" d="M486.9,117c-1.7,0.7-2.6-1.5-1-2.2C487.6,114.1,488.5,116.2,486.9,117"/>
							<path class="st16" d="M491.1,126.1c-1.7,0.8-2.8-1.7-1.1-2.4C491.6,122.9,492.7,125.3,491.1,126.1"/>
							<path class="st16" d="M495.5,135.6c-1.7,0.8-2.8-1.7-1.1-2.4C496,132.4,497.2,134.8,495.5,135.6"/>
							<path class="st16" d="M499.9,145.1c-1.7,0.8-2.8-1.7-1.1-2.4C500.4,141.9,501.6,144.3,499.9,145.1"/>
							<path class="st16" d="M504.3,154.5c-1.7,0.8-2.8-1.7-1.1-2.4C504.8,151.3,506,153.8,504.3,154.5"/>
							<path class="st16" d="M480.1,114.8c-1.7,0.7-2.6-1.5-0.9-2.2C481,112,481.8,114.1,480.1,114.8"/>
							<path class="st16" d="M484,123.7c-1.7,0.8-2.8-1.6-1.1-2.3C484.6,120.6,485.7,122.9,484,123.7"/>
							<path class="st16" d="M488.4,133.1c-1.7,0.8-2.8-1.7-1.1-2.4C489,129.9,490.1,132.3,488.4,133.1"/>
							<path class="st16" d="M492.8,142.6c-1.7,0.8-2.8-1.7-1.1-2.4C493.4,139.4,494.5,141.8,492.8,142.6"/>
							<path class="st16" d="M497.3,152.1c-1.7,0.8-2.8-1.7-1.1-2.4C497.8,148.9,498.9,151.3,497.3,152.1"/>
							<path class="st16" d="M501.7,161.6c-1.7,0.8-2.8-1.7-1.1-2.4C502.2,158.4,503.3,160.8,501.7,161.6"/>
							<path class="st16" d="M477.1,121.4c-1.7,0.7-2.7-1.6-1-2.3C477.7,118.3,478.7,120.6,477.1,121.4"/>
							<path class="st16" d="M481.4,130.7c-1.7,0.8-2.8-1.7-1.1-2.4C481.9,127.4,483,129.9,481.4,130.7"/>
							<path class="st16" d="M485.8,140.1c-1.7,0.8-2.8-1.7-1.1-2.4C486.3,136.9,487.4,139.4,485.8,140.1"/>
							<path class="st16" d="M490.2,149.6c-1.7,0.8-2.8-1.7-1.1-2.4C490.7,146.4,491.9,148.8,490.2,149.6"/>
							<path class="st16" d="M494.6,159.1c-1.7,0.8-2.8-1.7-1.1-2.4C495.1,155.9,496.3,158.3,494.6,159.1"/>
							<path class="st16" d="M470.2,118.9c-1.7,0.7-2.7-1.7-0.9-2.4C471,115.9,471.9,118.2,470.2,118.9"/>
							<path class="st16" d="M474.3,128.2c-1.7,0.8-2.8-1.6-1.1-2.4C474.9,125,476,127.4,474.3,128.2"/>
							<path class="st16" d="M478.7,137.7c-1.7,0.8-2.8-1.7-1.1-2.4C479.3,134.5,480.4,136.9,478.7,137.7"/>
							<path class="st16" d="M483.1,147.2c-1.7,0.8-2.8-1.7-1.1-2.4C483.7,143.9,484.8,146.4,483.1,147.2"/>
							<path class="st16" d="M487.5,156.6c-1.7,0.8-2.8-1.7-1.1-2.4C488.1,153.4,489.2,155.9,487.5,156.6"/>
							<path class="st16" d="M491.9,166.1c-1.7,0.8-2.8-1.7-1.1-2.4C492.5,162.9,493.6,165.3,491.9,166.1"/>
							<path class="st16" d="M467.3,125.7c-1.7,0.8-2.8-1.7-1.1-2.5C467.9,122.5,469,125,467.3,125.7"/>
							<path class="st16" d="M471.7,135.2c-1.7,0.8-2.8-1.7-1.1-2.4C472.2,132,473.3,134.4,471.7,135.2"/>
							<path class="st16" d="M476.1,144.7c-1.7,0.8-2.8-1.7-1.1-2.4C476.6,141.5,477.7,143.9,476.1,144.7"/>
							<path class="st16" d="M480.5,154.2c-1.7,0.8-2.8-1.7-1.1-2.4C481,151,482.1,153.4,480.5,154.2"/>
							<path class="st16" d="M484.9,163.7c-1.7,0.8-2.8-1.7-1.1-2.4C485.4,160.4,486.6,162.9,484.9,163.7"/>
							<path class="st16" d="M460.3,122.9c-1.7,0.7-2.8-2-1-2.6C460.9,119.7,462,122.3,460.3,122.9"/>
							<path class="st16" d="M464.6,132.7c-1.7,0.8-2.8-1.7-1.1-2.5C465.1,129.5,466.3,132,464.6,132.7"/>
							<path class="st16" d="M469,142.2c-1.7,0.8-2.8-1.7-1.1-2.4C469.5,139,470.7,141.5,469,142.2"/>
							<path class="st16" d="M473.4,151.7c-1.7,0.8-2.8-1.7-1.1-2.4C474,148.5,475.1,150.9,473.4,151.7"/>
							<path class="st16" d="M477.8,161.2c-1.7,0.8-2.8-1.7-1.1-2.4C478.4,158,479.5,160.4,477.8,161.2"/>
							<path class="st16" d="M482.2,170.7c-1.7,0.8-2.8-1.7-1.1-2.4C482.8,167.5,483.9,169.9,482.2,170.7"/>
							<path class="st16" d="M457.5,130.1c-1.7,0.8-2.8-1.9-1.1-2.6C458,126.8,459.2,129.3,457.5,130.1"/>
							<path class="st16" d="M462,139.8c-1.7,0.8-2.8-1.7-1.1-2.4C462.5,136.6,463.6,139,462,139.8"/>
							<path class="st16" d="M466.4,149.2c-1.7,0.8-2.8-1.7-1.1-2.4C466.9,146,468,148.5,466.4,149.2"/>
							<path class="st16" d="M470.8,158.7c-1.7,0.8-2.8-1.7-1.1-2.4S472.4,157.9,470.8,158.7"/>
							<path class="st16" d="M475.2,168.2c-1.7,0.8-2.8-1.7-1.1-2.4C475.7,165,476.8,167.4,475.2,168.2"/>
							<path class="st16" d="M450.3,127c-1.7,0.7-2.8-2.2-1.1-2.8C450.9,123.5,452,126.3,450.3,127"/>
							<path class="st16" d="M454.9,137.3c-1.7,0.8-2.8-1.8-1.2-2.5C455.4,134,456.5,136.5,454.9,137.3"/>
							<path class="st16" d="M459.3,146.8c-1.7,0.8-2.8-1.7-1.1-2.4C459.8,143.6,461,146,459.3,146.8"/>
							<path class="st16" d="M463.7,156.3c-1.7,0.8-2.8-1.7-1.1-2.4C464.2,153,465.4,155.5,463.7,156.3"/>
							<path class="st16" d="M468.1,165.7c-1.7,0.8-2.8-1.7-1.1-2.4C468.7,162.5,469.8,165,468.1,165.7"/>
							<path class="st16" d="M472.5,175.2c-1.7,0.8-2.8-1.7-1.1-2.4C473.1,172,474.2,174.4,472.5,175.2"/>
							<path class="st16" d="M447.7,134.5c-1.7,0.8-2.9-2-1.2-2.7C448.2,131,449.4,133.7,447.7,134.5"/>
							<path class="st16" d="M452.3,144.3c-1.7,0.8-2.8-1.7-1.1-2.4C452.8,141.1,453.9,143.5,452.3,144.3"/>
							<path class="st16" d="M456.7,153.8c-1.7,0.8-2.8-1.7-1.1-2.4C457.2,150.6,458.3,153,456.7,153.8"/>
							<path class="st16" d="M461.1,163.3c-1.7,0.8-2.8-1.7-1.1-2.4C461.6,160.1,462.7,162.5,461.1,163.3"/>
							<path class="st16" d="M465.5,172.8c-1.7,0.8-2.8-1.7-1.1-2.4C466,169.5,467.1,172,465.5,172.8"/>
							<path class="st16" d="M440.4,131.1c-1.7,0.7-2.9-2.4-1.2-3.1C440.9,127.4,442.1,130.4,440.4,131.1"/>
							<path class="st16" d="M445.2,141.8c-1.7,0.8-2.9-1.8-1.2-2.6C445.6,138.5,446.8,141,445.2,141.8"/>
							<path class="st16" d="M449.6,151.3c-1.7,0.8-2.8-1.7-1.1-2.4C450.1,148.1,451.3,150.6,449.6,151.3"/>
							<path class="st16" d="M454,160.8c-1.7,0.8-2.8-1.7-1.1-2.4C454.5,157.6,455.7,160,454,160.8"/>
							<path class="st16" d="M458.4,170.3c-1.7,0.8-2.8-1.7-1.1-2.4C458.9,167.1,460.1,169.5,458.4,170.3"/>
							<path class="st16" d="M462.8,179.8c-1.7,0.8-2.8-1.7-1.1-2.4C463.4,176.6,464.5,179,462.8,179.8"/>
						</g>
						<g>
							<path class="st16" d="M512.5,159.4c-1.7,0.8-2.8-1.7-1.1-2.4S514.2,158.7,512.5,159.4"/>
							<path class="st16" d="M516.9,168.9c-1.7,0.8-2.8-1.7-1.1-2.4S518.6,168.1,516.9,168.9"/>
							<path class="st16" d="M521.3,178.4c-1.7,0.8-2.8-1.7-1.1-2.4S523,177.6,521.3,178.4"/>
							<path class="st16" d="M525.7,187.9c-1.7,0.8-2.8-1.7-1.1-2.4S527.4,187.1,525.7,187.9"/>
							<path class="st16" d="M530.1,197.4c-1.7,0.8-2.8-1.7-1.1-2.4C530.7,194.2,531.8,196.6,530.1,197.4"/>
							<path class="st16" d="M534.5,206.8c-1.7,0.8-2.8-1.7-1.1-2.4S536.2,206.1,534.5,206.8"/>
							<path class="st16" d="M509.8,166.4c-1.7,0.8-2.8-1.7-1.1-2.4S511.5,165.7,509.8,166.4"/>
							<path class="st16" d="M514.2,175.9c-1.7,0.8-2.8-1.7-1.1-2.4S515.9,175.1,514.2,175.9"/>
							<path class="st16" d="M518.7,185.4c-1.7,0.8-2.8-1.7-1.1-2.4C519.2,182.2,520.3,184.6,518.7,185.4"/>
							<path class="st16" d="M523.1,194.9c-1.7,0.8-2.8-1.7-1.1-2.4S524.7,194.1,523.1,194.9"/>
							<path class="st16" d="M527.5,204.4c-1.7,0.8-2.8-1.7-1.1-2.4S529.1,203.6,527.5,204.4"/>
							<path class="st16" d="M502.8,164c-1.7,0.8-2.8-1.7-1.1-2.4S504.4,163.2,502.8,164"/>
							<path class="st16" d="M507.2,173.4c-1.7,0.8-2.8-1.7-1.1-2.4C507.7,170.2,508.8,172.7,507.2,173.4"/>
							<path class="st16" d="M511.6,182.9c-1.7,0.8-2.8-1.7-1.1-2.4S513.3,182.1,511.6,182.9"/>
							<path class="st16" d="M516,192.4c-1.7,0.8-2.8-1.7-1.1-2.4S517.7,191.6,516,192.4"/>
							<path class="st16" d="M520.4,201.9c-1.7,0.8-2.8-1.7-1.1-2.4S522.1,201.1,520.4,201.9"/>
							<path class="st16" d="M524.8,211.4c-1.7,0.8-2.8-1.7-1.1-2.4S526.5,210.6,524.8,211.4"/>
							<path class="st16" d="M500.1,171c-1.7,0.8-2.8-1.7-1.1-2.4S501.8,170.2,500.1,171"/>
							<path class="st16" d="M504.5,180.4c-1.7,0.8-2.8-1.7-1.1-2.4S506.2,179.7,504.5,180.4"/>
							<path class="st16" d="M508.9,189.9c-1.7,0.8-2.8-1.7-1.1-2.4S510.6,189.1,508.9,189.9"/>
							<path class="st16" d="M513.3,199.4c-1.7,0.8-2.8-1.7-1.1-2.4S515,198.6,513.3,199.4"/>
							<path class="st16" d="M517.7,208.9c-1.7,0.8-2.8-1.7-1.1-2.4C518.3,205.7,519.4,208.1,517.7,208.9"/>
							<path class="st16" d="M493,168.5c-1.7,0.8-2.8-1.7-1.1-2.4S494.7,167.7,493,168.5"/>
							<path class="st16" d="M497.5,178c-1.7,0.8-2.8-1.7-1.1-2.4S499.1,177.2,497.5,178"/>
							<path class="st16" d="M501.9,187.4c-1.7,0.8-2.8-1.7-1.1-2.4S503.5,186.7,501.9,187.4"/>
							<path class="st16" d="M506.3,196.9c-1.7,0.8-2.8-1.7-1.1-2.4S507.9,196.1,506.3,196.9"/>
							<path class="st16" d="M510.7,206.4c-1.7,0.8-2.8-1.7-1.1-2.4S512.3,205.6,510.7,206.4"/>
							<path class="st16" d="M515.1,215.9c-1.7,0.8-2.8-1.7-1.1-2.4S516.7,215.1,515.1,215.9"/>
							<path class="st16" d="M490.4,175.5c-1.7,0.8-2.8-1.7-1.1-2.4S492.1,174.7,490.4,175.5"/>
							<path class="st16" d="M494.8,185c-1.7,0.8-2.8-1.7-1.1-2.4S496.5,184.2,494.8,185"/>
							<path class="st16" d="M499.2,194.4c-1.7,0.8-2.8-1.7-1.1-2.4S500.9,193.7,499.2,194.4"/>
							<path class="st16" d="M503.6,203.9c-1.7,0.8-2.8-1.7-1.1-2.4S505.3,203.1,503.6,203.9"/>
							<path class="st16" d="M508,213.4c-1.7,0.8-2.8-1.7-1.1-2.4S509.7,212.6,508,213.4"/>
							<path class="st16" d="M483.3,173c-1.7,0.8-2.8-1.7-1.1-2.4S485,172.2,483.3,173"/>
							<path class="st16" d="M487.7,182.5c-1.7,0.8-2.8-1.7-1.1-2.4C488.3,179.3,489.4,181.7,487.7,182.5"/>
							<path class="st16" d="M492.1,192c-1.7,0.8-2.8-1.7-1.1-2.4S493.8,191.2,492.1,192"/>
							<path class="st16" d="M496.5,201.4c-1.7,0.8-2.8-1.7-1.1-2.4S498.2,200.7,496.5,201.4"/>
							<path class="st16" d="M501,210.9c-1.7,0.8-2.8-1.7-1.1-2.4C501.5,207.7,502.6,210.1,501,210.9"/>
							<path class="st16" d="M505.4,220.4c-1.7,0.8-2.8-1.7-1.1-2.4S507,219.6,505.4,220.4"/>
							<path class="st16" d="M480.7,180c-1.7,0.8-2.8-1.7-1.1-2.4C481.2,176.8,482.3,179.2,480.7,180"/>
							<path class="st16" d="M485.1,189.5c-1.7,0.8-2.8-1.7-1.1-2.4S486.7,188.7,485.1,189.5"/>
							<path class="st16" d="M489.5,199c-1.7,0.8-2.8-1.7-1.1-2.4S491.1,198.2,489.5,199"/>
							<path class="st16" d="M493.9,208.4c-1.7,0.8-2.8-1.7-1.1-2.4S495.6,207.7,493.9,208.4"/>
							<path class="st16" d="M498.3,217.9c-1.7,0.8-2.8-1.7-1.1-2.4S500,217.1,498.3,217.9"/>
							<path class="st16" d="M473.6,177.5c-1.7,0.8-2.8-1.7-1.1-2.4S475.3,176.8,473.6,177.5"/>
							<path class="st16" d="M478,187c-1.7,0.8-2.8-1.7-1.1-2.4C478.5,183.8,479.7,186.2,478,187"/>
							<path class="st16" d="M482.4,196.5c-1.7,0.8-2.8-1.7-1.1-2.4S484.1,195.7,482.4,196.5"/>
							<path class="st16" d="M486.8,206c-1.7,0.8-2.8-1.7-1.1-2.4S488.5,205.2,486.8,206"/>
							<path class="st16" d="M491.2,215.4c-1.7,0.8-2.8-1.7-1.1-2.4S492.9,214.7,491.2,215.4"/>
							<path class="st16" d="M495.6,224.9c-1.7,0.8-2.8-1.7-1.1-2.4S497.3,224.1,495.6,224.9"/>
							<path class="st16" d="M470.9,184.5c-1.7,0.8-2.8-1.7-1.1-2.4C471.5,181.3,472.6,183.8,470.9,184.5"/>
							<path class="st16" d="M475.4,194c-1.7,0.8-2.8-1.7-1.1-2.4S477,193.2,475.4,194"/>
							<path class="st16" d="M479.8,203.5c-1.7,0.8-2.8-1.7-1.1-2.4S481.4,202.7,479.8,203.5"/>
							<path class="st16" d="M484.2,213c-1.7,0.8-2.8-1.7-1.1-2.4S485.8,212.2,484.2,213"/>
							<path class="st16" d="M488.6,222.4c-1.7,0.8-2.8-1.7-1.1-2.4S490.2,221.7,488.6,222.4"/>
							<path class="st16" d="M463.9,182c-1.7,0.8-2.8-1.7-1.1-2.4S465.5,181.3,463.9,182"/>
							<path class="st16" d="M468.3,191.5c-1.7,0.8-2.8-1.7-1.1-2.4S469.9,190.8,468.3,191.5"/>
							<path class="st16" d="M472.7,201c-1.7,0.8-2.8-1.7-1.1-2.4S474.4,200.2,472.7,201"/>
							<path class="st16" d="M477.1,210.5c-1.7,0.8-2.8-1.7-1.1-2.4S478.8,209.7,477.1,210.5"/>
							<path class="st16" d="M481.5,220c-1.7,0.8-2.8-1.7-1.1-2.4S483.2,219.2,481.5,220"/>
							<path class="st16" d="M485.9,229.4c-1.7,0.8-2.8-1.7-1.1-2.4S487.6,228.7,485.9,229.4"/>
						</g>
						<g>
							<path class="st16" d="M535.7,209.3c-1.7,0.8-2.8-1.7-1.1-2.4S537.3,208.5,535.7,209.3"/>
							<path class="st16" d="M540.1,218.8c-1.7,0.8-2.8-1.7-1.1-2.4S541.7,218,540.1,218.8"/>
							<path class="st16" d="M544.5,228.2c-1.7,0.8-2.8-1.7-1.1-2.4C545,225,546.1,227.5,544.5,228.2"/>
							<path class="st16" d="M548.9,237.7c-1.7,0.8-2.8-1.7-1.1-2.4S550.5,236.9,548.9,237.7"/>
							<path class="st16" d="M553.3,247.2c-1.7,0.8-2.8-1.7-1.1-2.4S555,246.4,553.3,247.2"/>
							<path class="st16" d="M557.7,256.7c-1.7,0.8-2.8-1.7-1.1-2.4C558.2,253.5,559.4,255.9,557.7,256.7"/>
							<path class="st16" d="M533,216.3c-1.7,0.8-2.8-1.7-1.1-2.4S534.7,215.5,533,216.3"/>
							<path class="st16" d="M537.4,225.8c-1.7,0.8-2.8-1.7-1.1-2.4S539.1,225,537.4,225.8"/>
							<path class="st16" d="M541.8,235.2c-1.7,0.8-2.8-1.7-1.1-2.4C542.4,232,543.5,234.5,541.8,235.2"/>
							<path class="st16" d="M546.2,244.7c-1.7,0.8-2.8-1.7-1.1-2.4S547.9,243.9,546.2,244.7"/>
							<path class="st16" d="M550.6,254.2c-1.7,0.8-2.8-1.7-1.1-2.4S552.3,253.4,550.6,254.2"/>
							<path class="st16" d="M525.9,213.8c-1.7,0.8-2.8-1.7-1.1-2.4S527.6,213,525.9,213.8"/>
							<path class="st16" d="M530.3,223.3c-1.7,0.8-2.8-1.7-1.1-2.4S532,222.5,530.3,223.3"/>
							<path class="st16" d="M534.8,232.8c-1.7,0.8-2.8-1.7-1.1-2.4C535.3,229.5,536.4,232,534.8,232.8"/>
							<path class="st16" d="M539.2,242.2c-1.7,0.8-2.8-1.7-1.1-2.4S540.8,241.5,539.2,242.2"/>
							<path class="st16" d="M543.6,251.7c-1.7,0.8-2.8-1.7-1.1-2.4C544.1,248.5,545.2,250.9,543.6,251.7"/>
							<path class="st16" d="M548,261.2c-1.7,0.8-2.8-1.7-1.1-2.4C548.5,258,549.6,260.4,548,261.2"/>
							<path class="st16" d="M523.3,220.8c-1.7,0.8-2.8-1.7-1.1-2.4S524.9,220,523.3,220.8"/>
							<path class="st16" d="M527.7,230.3c-1.7,0.8-2.8-1.7-1.1-2.4S529.4,229.5,527.7,230.3"/>
							<path class="st16" d="M532.1,239.8c-1.7,0.8-2.8-1.7-1.1-2.4C532.6,236.5,533.8,239,532.1,239.8"/>
							<path class="st16" d="M536.5,249.2c-1.7,0.8-2.8-1.7-1.1-2.4S538.2,248.5,536.5,249.2"/>
							<path class="st16" d="M540.9,258.7c-1.7,0.8-2.8-1.7-1.1-2.4S542.6,257.9,540.9,258.7"/>
							<path class="st16" d="M516.2,218.3c-1.7,0.8-2.8-1.7-1.1-2.4S517.9,217.5,516.2,218.3"/>
							<path class="st16" d="M520.6,227.8c-1.7,0.8-2.8-1.7-1.1-2.4C521.2,224.6,522.3,227,520.6,227.8"/>
							<path class="st16" d="M525,237.3c-1.7,0.8-2.8-1.7-1.1-2.4C525.6,234.1,526.7,236.5,525,237.3"/>
							<path class="st16" d="M529.4,246.8c-1.7,0.8-2.8-1.7-1.1-2.4S531.1,246,529.4,246.8"/>
							<path class="st16" d="M533.8,256.2c-1.7,0.8-2.8-1.7-1.1-2.4C534.4,253,535.5,255.5,533.8,256.2"/>
							<path class="st16" d="M538.3,265.7c-1.7,0.8-2.8-1.7-1.1-2.4C538.8,262.5,539.9,264.9,538.3,265.7"/>
							<path class="st16" d="M513.6,225.3c-1.7,0.8-2.8-1.7-1.1-2.4S515.2,224.5,513.6,225.3"/>
							<path class="st16" d="M518,234.8c-1.7,0.8-2.8-1.7-1.1-2.4S519.6,234,518,234.8"/>
							<path class="st16" d="M522.4,244.3c-1.7,0.8-2.8-1.7-1.1-2.4S524,243.5,522.4,244.3"/>
							<path class="st16" d="M526.8,253.8c-1.7,0.8-2.8-1.7-1.1-2.4S528.4,253,526.8,253.8"/>
							<path class="st16" d="M531.2,263.2c-1.7,0.8-2.8-1.7-1.1-2.4S532.9,262.5,531.2,263.2"/>
							<path class="st16" d="M506.5,222.8c-1.7,0.8-2.8-1.7-1.1-2.4S508.2,222.1,506.5,222.8"/>
							<path class="st16" d="M510.9,232.3c-1.7,0.8-2.8-1.7-1.1-2.4S512.6,231.5,510.9,232.3"/>
							<path class="st16" d="M515.3,241.8c-1.7,0.8-2.8-1.7-1.1-2.4S517,241,515.3,241.8"/>
							<path class="st16" d="M519.7,251.3c-1.7,0.8-2.8-1.7-1.1-2.4S521.4,250.5,519.7,251.3"/>
							<path class="st16" d="M524.1,260.8c-1.7,0.8-2.8-1.7-1.1-2.4S525.8,260,524.1,260.8"/>
							<path class="st16" d="M528.5,270.2c-1.7,0.8-2.8-1.7-1.1-2.4S530.2,269.5,528.5,270.2"/>
							<path class="st16" d="M503.8,229.8c-1.7,0.8-2.8-1.7-1.1-2.4S505.5,229.1,503.8,229.8"/>
							<path class="st16" d="M508.2,239.3c-1.7,0.8-2.8-1.7-1.1-2.4S509.9,238.5,508.2,239.3"/>
							<path class="st16" d="M512.6,248.8c-1.7,0.8-2.8-1.7-1.1-2.4S514.3,248,512.6,248.8"/>
							<path class="st16" d="M517.1,258.3c-1.7,0.8-2.8-1.7-1.1-2.4S518.7,257.5,517.1,258.3"/>
							<path class="st16" d="M521.5,267.8c-1.7,0.8-2.8-1.7-1.1-2.4C522,264.5,523.1,267,521.5,267.8"/>
							<path class="st16" d="M496.8,227.4c-1.7,0.8-2.8-1.7-1.1-2.4S498.4,226.6,496.8,227.4"/>
							<path class="st16" d="M501.2,236.8c-1.7,0.8-2.8-1.7-1.1-2.4S502.8,236.1,501.2,236.8"/>
							<path class="st16" d="M505.6,246.3c-1.7,0.8-2.8-1.7-1.1-2.4S507.2,245.5,505.6,246.3"/>
							<path class="st16" d="M510,255.8c-1.7,0.8-2.8-1.7-1.1-2.4S511.7,255,510,255.8"/>
							<path class="st16" d="M514.4,265.3c-1.7,0.8-2.8-1.7-1.1-2.4C514.9,262.1,516.1,264.5,514.4,265.3"/>
							<path class="st16" d="M518.8,274.8c-1.7,0.8-2.8-1.7-1.1-2.4S520.5,274,518.8,274.8"/>
							<path class="st16" d="M494.1,234.4c-1.7,0.8-2.8-1.7-1.1-2.4S495.8,233.6,494.1,234.4"/>
							<path class="st16" d="M498.5,243.8c-1.7,0.8-2.8-1.7-1.1-2.4S500.2,243.1,498.5,243.8"/>
							<path class="st16" d="M502.9,253.3c-1.7,0.8-2.8-1.7-1.1-2.4S504.6,252.5,502.9,253.3"/>
							<path class="st16" d="M507.3,262.8c-1.7,0.8-2.8-1.7-1.1-2.4S509,262,507.3,262.8"/>
							<path class="st16" d="M511.7,272.3c-1.7,0.8-2.8-1.7-1.1-2.4S513.4,271.5,511.7,272.3"/>
							<path class="st16" d="M487,231.9c-1.7,0.8-2.8-1.7-1.1-2.4S488.7,231.1,487,231.9"/>
							<path class="st16" d="M491.5,241.4c-1.7,0.8-2.8-1.7-1.1-2.4C492,238.1,493.1,240.6,491.5,241.4"/>
							<path class="st16" d="M495.9,250.8c-1.7,0.8-2.8-1.7-1.1-2.4S497.5,250.1,495.9,250.8"/>
							<path class="st16" d="M500.3,260.3c-1.7,0.8-2.8-1.7-1.1-2.4S501.9,259.5,500.3,260.3"/>
							<path class="st16" d="M504.7,269.8c-1.7,0.8-2.8-1.7-1.1-2.4C505.2,266.6,506.3,269,504.7,269.8"/>
							<path class="st16" d="M509.1,279.3c-1.7,0.8-2.8-1.7-1.1-2.4S510.7,278.5,509.1,279.3"/>
						</g>
					</g>
				</g>
			</g>
			<g class="st15">
				<g>
					<g>
						<path class="st16" d="M395.5,168.5c-1.7,0.7-3.1-2.7-1.4-3.4C395.8,164.4,397.2,167.8,395.5,168.5"/>
						<path class="st16" d="M400.9,181.7c-1.7,0.7-3-2.7-1.3-3.4C401.2,177.6,402.6,181,400.9,181.7"/>
						<path class="st16" d="M406,194.6c-1.7,0.7-3-2.6-1.3-3.3C406.4,190.6,407.7,193.9,406,194.6"/>
						<path class="st16" d="M411.2,207.3c-1.7,0.7-3-2.5-1.3-3.2C411.6,203.4,412.9,206.6,411.2,207.3"/>
						<path class="st16" d="M416.5,219.7c-1.7,0.7-3.1-2.4-1.4-3.1C416.8,215.9,418.2,219,416.5,219.7"/>
						<path class="st16" d="M421.9,231.5c-1.6,0.8-3.1-2.1-1.4-2.9C422.2,227.8,423.6,230.6,421.9,231.5"/>
						<path class="st16" d="M393.2,177.1c-1.7,0.7-3.1-2.7-1.4-3.4C393.6,173.1,395,176.5,393.2,177.1"/>
						<path class="st16" d="M398.5,190.2c-1.7,0.7-3-2.6-1.3-3.3C398.8,186.2,400.2,189.5,398.5,190.2"/>
						<path class="st16" d="M403.7,203c-1.7,0.7-3-2.6-1.3-3.3C404,199.1,405.4,202.3,403.7,203"/>
						<path class="st16" d="M408.9,215.7c-1.7,0.7-3.1-2.5-1.4-3.2C409.3,211.7,410.6,215,408.9,215.7"/>
						<path class="st16" d="M414.3,227.9c-1.7,0.8-3.1-2.3-1.4-3.1C414.6,224.1,416,227.2,414.3,227.9"/>
						<path class="st16" d="M385.6,172.6c-1.7,0.7-3.1-2.7-1.4-3.4C385.9,168.5,387.3,171.9,385.6,172.6"/>
						<path class="st16" d="M390.9,185.7c-1.7,0.7-3-2.7-1.3-3.3C391.3,181.6,392.6,185,390.9,185.7"/>
						<path class="st16" d="M396.1,198.6c-1.7,0.7-3-2.6-1.3-3.3C396.5,194.6,397.8,197.9,396.1,198.6"/>
						<path class="st16" d="M401.3,211.4c-1.7,0.7-3-2.6-1.4-3.3C401.7,207.5,403,210.7,401.3,211.4"/>
						<path class="st16" d="M406.7,224c-1.7,0.7-3.1-2.5-1.4-3.2C407,220.1,408.4,223.3,406.7,224"/>
						<path class="st16" d="M412.3,236.2c-1.6,0.8-3.1-2.3-1.5-3C412.5,232.3,413.9,235.3,412.3,236.2"/>
						<path class="st16" d="M383.3,181.1c-1.7,0.7-3.1-2.7-1.4-3.4C383.6,177.1,385,180.5,383.3,181.1"/>
						<path class="st16" d="M388.5,194.2c-1.7,0.7-3-2.6-1.3-3.3C388.9,190.1,390.2,193.5,388.5,194.2"/>
						<path class="st16" d="M393.7,207.1c-1.7,0.7-3-2.6-1.3-3.3C394.1,203.1,395.4,206.4,393.7,207.1"/>
						<path class="st16" d="M399.1,219.9c-1.7,0.7-3.1-2.6-1.4-3.3C399.4,215.9,400.7,219.2,399.1,219.9"/>
						<path class="st16" d="M404.6,232.4c-1.7,0.8-3.1-2.4-1.4-3.2C404.8,228.5,406.2,231.6,404.6,232.4"/>
						<path class="st16" d="M375.7,176.6c-1.7,0.7-3.1-2.6-1.4-3.3C376,172.6,377.4,175.9,375.7,176.6"/>
						<path class="st16" d="M380.9,189.7c-1.7,0.7-3-2.7-1.3-3.3C381.3,185.6,382.6,189,380.9,189.7"/>
						<path class="st16" d="M386.2,202.6c-1.7,0.7-3-2.6-1.3-3.3C386.5,198.6,387.9,202,386.2,202.6"/>
						<path class="st16" d="M391.4,215.6c-1.7,0.7-3.1-2.6-1.4-3.3C391.8,211.6,393.1,214.8,391.4,215.6"/>
						<path class="st16" d="M396.9,228.3c-1.7,0.7-3.1-2.5-1.4-3.3C397.1,224.3,398.6,227.6,396.9,228.3"/>
						<path class="st16" d="M402.6,240.9c-1.6,0.8-3.2-2.4-1.5-3.2C402.8,236.9,404.3,240.1,402.6,240.9"/>
						<path class="st16" d="M373.4,185.2c-1.7,0.7-3-2.6-1.3-3.3C373.7,181.1,375.1,184.5,373.4,185.2"/>
						<path class="st16" d="M378.6,198.2c-1.7,0.7-3-2.7-1.3-3.3C378.9,194.1,380.3,197.5,378.6,198.2"/>
						<path class="st16" d="M383.8,211.1c-1.7,0.7-3.1-2.6-1.4-3.3C384.2,207.1,385.5,210.4,383.8,211.1"/>
						<path class="st16" d="M389.2,224.1c-1.7,0.7-3.1-2.6-1.4-3.3C389.5,220,390.9,223.3,389.2,224.1"/>
						<path class="st16" d="M394.8,236.9c-1.7,0.8-3.2-2.5-1.5-3.3C395,232.9,396.5,236.1,394.8,236.9"/>
						<path class="st16" d="M365.8,180.7c-1.7,0.7-3.1-2.6-1.4-3.3C366.1,176.7,367.5,180,365.8,180.7"/>
						<path class="st16" d="M371,193.6c-1.7,0.7-3-2.6-1.3-3.3C371.4,189.6,372.7,193,371,193.6"/>
						<path class="st16" d="M376.2,206.7c-1.7,0.7-3-2.7-1.3-3.3S377.9,206,376.2,206.7"/>
						<path class="st16" d="M381.5,219.7c-1.7,0.7-3.1-2.6-1.4-3.3C381.8,215.6,383.2,219,381.5,219.7"/>
						<path class="st16" d="M387.1,232.6c-1.7,0.7-3.1-2.6-1.5-3.3C387.3,228.6,388.7,231.9,387.1,232.6"/>
						<path class="st16" d="M393,245.6c-1.6,0.8-3.2-2.5-1.6-3.3C393.1,241.5,394.6,244.8,393,245.6"/>
						<path class="st16" d="M363.4,189.2c-1.7,0.7-3-2.6-1.3-3.3C363.8,185.2,365.1,188.5,363.4,189.2"/>
						<path class="st16" d="M368.6,202.1c-1.7,0.7-3-2.7-1.3-3.3C369,198.1,370.3,201.5,368.6,202.1"/>
						<path class="st16" d="M373.9,215.2c-1.7,0.7-3.1-2.7-1.4-3.4C374.2,211.1,375.6,214.5,373.9,215.2"/>
						<path class="st16" d="M379.3,228.3c-1.7,0.7-3.1-2.6-1.4-3.4C379.6,224.2,381,227.5,379.3,228.3"/>
						<path class="st16" d="M385.1,241.4c-1.7,0.8-3.2-2.6-1.5-3.4C385.2,237.2,386.7,240.6,385.1,241.4"/>
						<path class="st16" d="M355.8,184.8c-1.7,0.7-3-2.6-1.3-3.3C356.2,180.8,357.5,184.1,355.8,184.8"/>
						<path class="st16" d="M361,197.6c-1.7,0.7-3-2.6-1.3-3.3C361.4,193.6,362.7,197,361,197.6"/>
						<path class="st16" d="M366.3,210.7c-1.7,0.7-3.1-2.7-1.4-3.4C366.6,206.6,368,210,366.3,210.7"/>
						<path class="st16" d="M371.6,223.8c-1.7,0.7-3.1-2.7-1.4-3.4C371.9,219.7,373.3,223.1,371.6,223.8"/>
						<path class="st16" d="M377.2,237c-1.7,0.7-3.2-2.7-1.5-3.4C377.4,232.8,378.9,236.2,377.2,237"/>
						<path class="st16" d="M383.4,250.3c-1.6,0.8-3.3-2.7-1.6-3.4C383.4,246.1,385,249.5,383.4,250.3"/>
						<path class="st16" d="M353.5,193.2c-1.7,0.7-3-2.6-1.3-3.3C353.8,189.2,355.2,192.5,353.5,193.2"/>
						<path class="st16" d="M358.7,206.1c-1.7,0.7-3-2.7-1.3-3.3C359,202.1,360.4,205.5,358.7,206.1"/>
						<path class="st16" d="M364,219.2c-1.7,0.7-3.1-2.7-1.4-3.4C364.3,215.2,365.7,218.5,364,219.2"/>
						<path class="st16" d="M369.5,232.5c-1.7,0.7-3.1-2.7-1.4-3.4C369.7,228.3,371.1,231.7,369.5,232.5"/>
						<path class="st16" d="M375.3,245.8c-1.7,0.8-3.2-2.7-1.6-3.5C375.4,241.6,377,245.1,375.3,245.8"/>
						<path class="st16" d="M345.9,188.8c-1.7,0.7-3-2.5-1.3-3.2C346.3,184.9,347.6,188.1,345.9,188.8"/>
						<path class="st16" d="M351.1,201.6c-1.7,0.7-3-2.6-1.3-3.3C351.5,197.6,352.8,200.9,351.1,201.6"/>
						<path class="st16" d="M356.3,214.7c-1.7,0.7-3.1-2.7-1.4-3.4S358,214,356.3,214.7"/>
						<path class="st16" d="M361.7,227.9c-1.7,0.7-3.1-2.7-1.4-3.4C362,223.8,363.4,227.2,361.7,227.9"/>
						<path class="st16" d="M367.4,241.3c-1.7,0.7-3.2-2.7-1.5-3.5C367.6,237.1,369.1,240.5,367.4,241.3"/>
						<path class="st16" d="M373.7,255c-1.6,0.8-3.4-2.8-1.7-3.6C373.7,250.6,375.4,254.2,373.7,255"/>
					</g>
				</g>
			</g>
		</g>
		<path class="st13" d="M420.6,100.7l-10.2-0.2c-5.6,1-7.3-4.6-5.2-7.9c1-1.5,0.1-1.1,0.4-1.8c0.9-2.8,0-10.6-0.7-11.2
			c-0.7-0.6-7.2-3.2-4-5.1c3.2-1.9,9.9-12.8,9.5-19.2c-0.4-6.4,4.9-12.3,4.9-12.3s29.1-2.7,38.5-2.5c3.9,0.1,5.2,12.2,5.3,26.4
			c14,1.5,2.6,15.9-0.3,20.3c-6.5,9.8-1.4,24.5-1.4,24.5s0.8,5.8,0.5,8.9c-0.2,3.1,3.1,6.5,3.4,8.3c0.3,2.4-8.6,7.4-9.9,11.5
			c-1.3,3.9-13.1,25.7-13.1,25.7s-0.1-0.2-0.5-0.6c-0.2-0.3-1.3-4.1-2.3-7.9c-0.7-2.7-1.3-5.3-1.5-6.7c-0.5-3.5-1.7-7.3-2.4-8.6
			c-0.7-1.3-3.7-7.5-3.7-7.5l2.8-19l0.1,0c0-2.7-4.6-14.3-4.8-14.8c0,0,0,0,0,0"/>
		<path class="st17" d="M408.9,66.1c0.4,0.4,1.8,1.6,2.9,1.4c0,0-0.1,2.2,1,2.5c0,0,0.4-0.1,0.9-0.2c1.3-0.3,3.6-1,3.7-1.7
			c0,0,0,0,0,0l-5.3-1.8C412.1,66.3,409.9,67,408.9,66.1z"/>
		<path class="st16" d="M413.7,69.9c1.3-0.3,3.6-1,3.7-1.7L414,68C414,68,414.3,69.4,413.7,69.9z"/>
		<path class="st14" d="M434.1,106.8c0.5,4,2.8,5,2.5,10.1c-0.3,5-4.1,14.6-2.6,19.1c1.5,4.5,3.8,17.6,2.1,20.8
			c-0.1,0.3-0.4,0.4-0.7,0.5c-0.7-2.7-1.3-5.3-1.5-6.7c-0.5-3.5-1.7-7.3-2.4-8.6c-0.7-1.3-3.7-7.5-3.7-7.5l2.8-19l0.1,0
			c0-2.7-4.6-14.3-4.8-14.8c3.6-0.2,8.7-1.2,14.6-4.3C440.5,96.5,433.6,102.8,434.1,106.8z"/>
		<path class="st17" d="M421.4,67c0,0-3.6-5-5.4-5.9c-1.8-0.9-4.3,0.9-4.3,1.3c0,0.4-0.4,1.6,0.2,1.5c0.6-0.1,2.1-1.9,4.2-0.5
			C418.1,64.8,421.4,67,421.4,67z"/>
		<path class="st18" d="M419.6,34.9c0,0-9,5.1-8,9.6s6.3,4,8.6,4.6c2.3,0.6,8.7,4.9,8.1,10.7s-2.5,13,2.2,16.7s3.7,7.8,1.4,12.3
			c-2.2,4.6-2.4,10.8,3.7,13.8c0,0-5.5-4.4-3.6-9.1c1.9-4.7,6.3-10.7,3.7-14.7c-2.6-4-6.8-5.6-4.2-16.7c0,0,1.7,16,10.1,8.2
			c2.5-0.7,6.2-1.2,7.9,2.2c1.7,3.4,0.8,8.2-7.1,13c-0.4,0.8-1.5,3.4,0.4,6c2,2.6,3.7,5.3,3.4,7.4c-0.2,2.1-2.7,7.1,1.3,9.3
			s7.8,4.1,9.4,8c1.5,4,3.4,10.2,6.9,9.6c3.5-4,13,1.1,15.2,1.3c2.2,0.2,6.9-2.6,8.8-11.2s-2.2-10.2-2.2-10.2s5.7-1.4,4.5-7.5
			s-8.3-6.1-8.2-9.8c0.1-3.7,5.1-7.2,4.3-10c-0.8-2.8-6-3-6.2-5.7c-0.2-2.7,3.2-9.2-0.5-11.5s-9.3-1.6-9.5-7.2
			c-0.2-5.6-2-15.3-14.1-13.5C452,37.3,440,26.2,419.6,34.9z"/>
		<path class="st19" d="M427.8,134.5c0,0,4.7,8.3,5.5,12.9c0.8,4.6,3.6,18.2,4.8,18.4c0,0,12.8-27,19.1-32.3
			c6.5-5.5,2.6-8.3,2.6-8.3"/>
		<path class="st20" d="M430.6,115.6c0,0-11.5,2.5-11.7,7.9s-3,12.2,0.3,17.2c0,0,1.1-8,3.1-8.1c2-0.1,5.5,2,5.5,2
			S431,116.9,430.6,115.6z"/>
		<path class="st20" d="M455,113.7c0,0,3.9,12.4,5.2,13.3s4.2,0.1,6.8,2.4c2.6,2.2,7.7,9.8,7.7,9.8S480.6,108.6,455,113.7z"/>
		<path class="st21" d="M405.3,201.1c-3,0.4-7.4,11.9-11.3,19.8c-3.5,7.1-11.1,9.5-12.6,6.3c5.2-10.9,13.1-28.3,12.4-32.2
			c-1-5.8,0.6-15.9,2.6-18.4c2-2.5,8.2-25.1,8.2-25.1s-0.7,15.1-4.4,24C396.5,184.5,398.4,191.7,405.3,201.1z"/>
		<path class="st13" d="M411.1,87.7l-0.3,0.1l-5.4,3c-2.6-2.3-0.1-3.8-0.1-3.8c0,0,0,0,0,0c-2.2-1.3,0.1-4.7,0.6-3.9
			C406.5,84,411.1,87.7,411.1,87.7z"/>
		<path class="st22" d="M411.5,87.4c0,0-2.8-1.6-4.1-2.9c-0.6-0.6-1.2-1.1-1.7-1.4c-0.1,0.1-0.2,0.1-0.2,0.1
			c-2.2,2.5-0.1,3.9-0.1,3.9"/>
		<path class="st13" d="M455.8,172.2c0,0,4.9-0.8,6.9,2.5c2,3.2,6.1,8.8,6.9,12.3c0.8,3.5,1.4,9.6,3.3,8.8c1.9-0.8,2.2-5.9,2-8.8
			s-0.3-6.9,5.2-7.6c0,0-1.1,1.7-0.8,6c0.3,4.3,0.5,12.3-1.3,15.7c-1.7,3.3-2.2,14.4,11.7,20c13.9,5.6,22.8,8.8,22.8,8.8l-6.6-8.5
			l23-0.6l1.6,4.2c0,0,1.8,10.2,2.5,15.4c0.6,5.2,1.7,20-4.3,23.3c-6,3.2-16.4-0.5-26.6-8.5c-10.2-8-30.9-28.5-32.5-30.7
			s-12.6-10.8-14-13c-1.4-2.2-4.8-6.8-6.5-8s-11.6-8.2-10.3-11.3c1.4-3.1,6.8,3.1,10.3,4.5c3.5,1.4,6.2,1.5,1.1-5.1
			c-5-6.6-7.9-11.7-6.1-13.1s2.4-0.6,3.6,1.5c1.3,2.2,6.5,7.8,6.5,7.8s-9-14.2-7.9-15.7s2.2-2.4,3.9,0.5c1.8,2.9,10.4,14,10.4,14
			s1.6-3.5-1.3-7.4C456.7,175.5,452.7,172.1,455.8,172.2z"/>
	</g>
	<g>
		<path class="st23" d="M272.9,589.4c0,0,8.1,18.9,8.6,31.2l22.2,30.8l16.8-0.9c0,0-5.4-11-6.6-14.3S302.2,616,301.3,611
			s-2.2-25.3-2.2-25.3L272.9,589.4z"/>
		<path class="st24" d="M194.3,585.8c0,0,10.9,24.6,6.2,41.3c0,0-0.3,6.9,1.2,10.3c1.4,3.4,18.6,33.8,18.6,33.8l20.4-1.3
			c0,0-10.1-26.6-11.5-32.7s-6-43.7-6.7-48.2S194.3,585.8,194.3,585.8z"/>
		<path class="st25" d="M202.8,627.3c0,0-8.7,5.7-8.5,11s4.8,13.1,4.8,20.5c0,7.4,0.9,17.4,0.9,17.4h9.6v-13.4c0,0,4.7,7.2,5.2,9.8
			s6,8.1,20.2,8.3c14.1,0.2,22.4-2.8,20.3-4.3c-2.1-1.6-17.8-9.4-17.6-11.7c0,0-4.7,6.9-16.4,2.4c0,0-14.1-25.7-15.8-29.1
			S201.3,629.6,202.8,627.3z"/>
		<path class="st25" d="M280.6,617.9c0,0-7.4,7.4-5.3,15.3s6.2,18.1,7.4,21.7c1.2,3.6,1.2,8.8,1.2,8.8h10.7l-4.7-21.7
			c0,0,9,13.8,9.3,15.8s2.2,5.7,10.2,5.9s31.3-2.9,31.3-2.9s-1.2-7.8-5.9-7.6s-14.6-0.7-15.8-4.3l-7.4,0.7c0,0-8.3-6.7-10.7-10.9
			S285.1,617.5,280.6,617.9z"/>
		<path class="st24" d="M210.1,308.6c0,0,5.7-7.3,5.7-9.2c0-1.9,55.2,23.2,55.2,23.2s-0.3,6,0,7.2c0.2,1.2-11.4,5.3-11.4,5.3
			L210.1,308.6z"/>
		<path class="st26" d="M303.6,587.8c0,0-16.9,3.2-30.3,4.3c-6.1,0.5-11.4,0.6-14-0.2c-8.4-2.5-5.3-21.1-5.1-35.9
			c0.2-14.8,0.7-39.6-0.7-45.9c-1.3-5.9-14.9-54.7-16.5-60.4c-0.1-0.4-0.1-0.5-0.1-0.5s-4.1,52.5-3.5,63c0.6,10.5,3.8,38.3,4,47.3
			c0.2,9,2.3,26.8-0.2,30.4s-55.5,4.4-59-4.2c0,0,0.8-28.7,0-43.8c-0.8-15.1,0.4-29.1,3.1-45.6c2.7-16.5,9.4-47.1,8.6-59.2
			c-0.8-12.1-31.4-108.9,23-132.1c0,0,16.8,9.4,24.9,14.9c8.2,5.4,17.8,13,33.2,10c0,0,6,10.2,6,32.5c0,22.3-0.2,15.5,4,38.2
			c4.2,22.7,11.8,76,11.8,76L303.6,587.8z"/>
		<path class="st27" d="M273.4,592.1c-6.1,0.5-11.4,0.6-14-0.2c-8.4-2.5-5.3-21.1-5.1-35.9c0.2-14.8,0.7-39.6-0.7-45.9
			c-1.3-5.9-14.9-54.7-16.5-60.4c0.1-8.6,0.1-27.9-0.3-33.5c-0.5-7.2,1.5-20.4,1.9-26.5c0.5-7,19.2-38.2,19.2-38.2s-9.6,26-14,39.7
			c-4,27.2,27,115.8,28.6,123.4C273.8,520.9,273.5,573.3,273.4,592.1z"/>
		<path class="st28" d="M195.4,591.5c0,0,5.3-42.4,4.5-58.8c-0.8-16.3-0.4-54.4,0.1-67.8s-0.9-46.9-0.9-55.7s2.7-59,3.8-60.7"/>
		<path class="st28" d="M208.7,336.8c0,0,14.6-2.7,12.6-20.6"/>
		<path class="st29" d="M359,279.3l2.4,4.9l28.1-37.2c0,0,4.2-5.6,2-8.8c-2.3-3.2-34.6-50.7-34.6-50.7s-2.5-3.4-6.5,0
			c-3.9,3.4-26,38.6-26,38.6L359,279.3z"/>
		<path class="st30" d="M321.7,221.7l37.1,61.2l25.5-41.4c0,0,3.1-5.2,1.1-7.7s-32.4-47.4-32.4-47.4s-3.6-3.8-6.8,0
			C343.1,190.2,321.7,221.7,321.7,221.7z"/>
		<path class="st24" d="M178.8,319.1c0,0,7.1,4.2,8,5.4s-3,6.8-1.3,11.3s1.7,9.2,0.8,8.8c-0.8-0.4-7.1-4.1-7.9-3.1
			c-0.7,1,0.5,2.7,4.3,5.6c3.7,2.9,9.3,5.4,15,0c0,0,8.2-0.1,8.2-5.7c0,0,6.4-7.8,3.3-15.3c-3.1-7.6-17.7-18.1-17.7-18.1l-7.1-1.2
			L178.8,319.1z"/>
		<path class="st31" d="M318.9,264.9c0,0,9.6-8,10.3-14.6c0.7-6.6-0.9-13,3-14.4c3.8-1.4,11.7-3.8,12.9-4.9s2.5,1.2-1,3.9
			c-3.4,2.7-4.3,4.3-4.3,4.3l-0.7,9.8l6.5,10.9c0,0-3.1,0.7-5.3,0.1c0,0-8.4,10.5-8.9,15.9s-1.7,2.8-1.7,2.8l-12.1-11.4L318.9,264.9
			z"/>
		<path class="st32" d="M334.3,295.6c-4.3,4.8-10.3,12.8-16.1,18.3c-5.8,5.5-16,14.9-25.3,11.1c-3-1.2-5.4-3-7.3-4.9
			c-3.9-3.9-5.5-8-5.5-8l14.8-42.2c0,0,2,5.9,5.8,4.2c3.8-1.7,7.9-13.3,18.2-9.2l13.7,12.5c0,0,0.8,1.8,1.7,4.4
			C335.6,286.1,337.1,292.6,334.3,295.6z"/>
		<path class="st33" d="M334.2,281.8c-5.4-3.9-16.4-10.8-21.4-6c-6.4,6.2-20.3,40.5-27.2,44.3c-3.9-3.9-5.5-8-5.5-8l14.8-42.2
			c0,0,2,5.9,5.8,4.2c3.8-1.7,7.9-13.3,18.2-9.2l13.7,12.5C332.5,277.4,333.3,279.2,334.2,281.8z"/>
		<path class="st32" d="M297.6,271.4c-3.1,4.9-5.2,11.3-5.7,21.2c-0.5,10-7.5,20.1-10.5,24.8s-6.4,7.1-12.2,7.1s-21.4-7.8-32.1-12.4
			c-6.1-2.7-13.5-5.5-19.2-8.1c-4.3-2-7.6-3.9-8.6-5.5c-2.3-3.8,2.4-11.9,2.4-16.5c0-4.1-2-10-4.3-15.3c-0.3-0.7-0.6-1.3-0.9-1.9
			c-2.4-5.1-2.5-7.3-2.5-7.7v-0.1c0,0-15.5,19.9-20.4,25.3c-4.9,5.4-6.2,6.5-6.2,7.4c0,0.1,0,0.1,0.1,0.2c0.6,0.6,3.2,1.8,5.6,3.1
			c1.7,1,3.3,2,4,3c1.6,2.5-1,8.7-1,8.7l5.2,3.2c-8.1,1.9-9.3,14.2-9.3,14.2l-4.6-0.8c0,0-8.7,6.8-14.5,6.8c-5.9,0-15.2-6.8-28-14.7
			c-12.8-7.9-16.3-21-13.3-30.8c3-9.8,20.5-20.4,26.7-26.5c6.2-6.2,24.2-34.4,34.4-50.1c10.3-15.6,24.5-8.8,26.2-8.7
			c0.2,0,0.4,0,0.6-0.1c0,0,0.1,0,0.1,0c0.2,0,0.5-0.1,0.9-0.2c0.2-0.1,0.5-0.2,0.8-0.3c3-1.1,7.3-3.4,7.3-3.4l38-3.1l14.2,7.5
			c0,0,0.8,9.6,3.9,14.4c3.1,4.7,25,27.8,28.9,34.7C307.8,253.9,300.7,266.5,297.6,271.4z"/>
		<path class="st33" d="M209.9,197.3c27.2,40.7-5.8,59.8-5.8,59.8v0.1c0,0.4,0.1,2.6,2.5,7.7c2.7,5.7,5.2,12.6,5.2,17.2
			s-4.8,12.7-2.4,16.5c1,1.6,4.3,3.5,8.6,5.5c0.5-2.4,1-5.2,1-8.3c0.2-9.5,6.8-27.2,22.2-24.2c15,2.9,28.4-7.6,29.2-8.2
			c-0.6,0.4-8.2,5.3-24.9,0.6c-17.5-4.9-16.5-31.4-19.4-47.6c-2.1-11.7-10.2-17.3-14.6-19.5"/>
		<path class="st33" d="M210.7,197.1c22,23.6,8.5,60.7,3.5,58.6c0,0-2.7,4.9-6.8,11.2c-0.3-0.7-0.6-1.3-0.9-1.9
			c-2.4-5.1-2.5-7.3-2.5-7.7v-0.1c0,0-15.5,19.9-20.4,25.3c-4.9,5.4-6.2,6.5-6.2,7.4c-8-16.7-24.5-8.6-25-8.4
			c3.6-10.6,24.1-0.2,23.9-5.7c-0.2-5.5-12.7-5.7-12.7-5.7s18.6-3,31.5-12.1c12.9-9.1,20.5-33.4,20.9-41.2
			c0.3-5.6-3.9-14.7-6.4-19.4"/>
		<path class="st24" d="M283.7,164.3c0.8-0.7,1.2-1.6,1.5-2.6c-0.2-2.5-4.4-7.6-0.9-10.3c5.6-7.9-6.9-8.8-8.5-14.7
			c-0.4-2.3,0-10.7,0-10.7c-28.7-25.5-53.8,0.8-53.2,31.1c0,1.8,4.9,6.8,4.9,6.8c6.4,8.2,4.2,13,2,21.3c0,0,13.7,8.2,16.4,9.6
			c2.7,1.4,1.7,4.3,1.6,5.5c4.3,10.9,27.2,35,35.1,42.4c-0.6-15.3-19.5-32.5-23.8-45.3c0-2.5,3.6-13.7,3.6-13.7
			c13.6,2.7,25.5-5,20.7-16.1C283.9,166.9,286,165.2,283.7,164.3z"/>
		<path class="st34" d="M283.7,164.3C283.8,164.4,283.7,164.3,283.7,164.3c-1.6,0.2-4.5,0.6-4.7,0.6c0,0,2.8-1.7,4.1-3
			c0.6-0.6,1.2-1.1,1.7-1.4c0.1,0.1,0.2,0.2,0.2,0.2C286.1,162.2,283.7,164.3,283.7,164.3z"/>
		<path class="st17" d="M261.5,140.8c0,0,3.6-5.1,5.4-6c1.8-0.9,4.3,0.9,4.3,1.3s0.4,1.6-0.2,1.6c-0.6-0.1-2.1-1.9-4.2-0.5
			C264.8,138.5,261.5,140.8,261.5,140.8z"/>
		<path class="st17" d="M273.2,139.9c-0.3,0.5-1.5,1.9-2.5,2c0,0,0.5,2.2-0.6,2.7c0,0-0.4,0-0.9,0c-1.3-0.1-3.7-0.3-4-1c0,0,0,0,0,0
			l4.9-2.8C270,140.7,272.3,141,273.2,139.9z"/>
		<path class="st16" d="M269.2,144.6c-1.3-0.1-3.7-0.3-4-1l3.3-0.8C268.5,142.8,268.5,144.2,269.2,144.6z"/>
		<path class="st35" d="M222.6,176.1c0,0-11.9,16.1-9.4,17.7s7.4,0.3,12.8,7.7c5.4,7.4,15.3,15.5,15.3,15.5s6-19,6.2-20.4
			c0.2-1.4-10.8-7.5-14.4-9.2c-4-1.9,0-12.1,0-12.1l-2.1-7.1L222.6,176.1z"/>
		<path class="st34" d="M184,100.7c-3.5,6.9-1,15.5-1,15.5s-11.4,1.6-12.2,10.6c-0.8,9,9.8,12.2,9.8,12.2s-9.8,5.1-6.7,14.9
			s13.3,16.1,21.8,16.7c0,0,1.8,18.4,22.4,8.8c0,0,10.4,5.7,12.4-5.3c0,0-5-0.5-4.2-1.4s6-4.7,4.9-5.9c-1.1-1.2-5.9-6.6-5-8.2
			s5.4-0.6,6-6.2c0,0,11.6,0.1,7.9-11c0,0,1.6-5.7,3.4-5.9c1.8-0.2,13.5-1.2,10.7-11.2c0,0,3.7-2.7,6-0.9c2.3,1.8,5.8,6.8,15.1,4.7
			c9.4-2.1,9.5-18.5,9.5-18.5s6-1.1,5.2-5.8c-0.9-4.7-8.1-19.8-20.8-16.6c0,0,2.5-17.7-11.3-17.5s-12.9,5-12.9,5s-8.5-6.3-17.1-4.4
			c-8.6,1.8-24.9,6.2-25.5,23.6C202.4,94.1,187.7,93.3,184,100.7z"/>
	</g>
	<g>
		<path class="st22" d="M649.3,574.9c0,0-5.8,48.1-5.9,52.7c-0.2,4.6-13.3,25.5-13.3,25.5l-5.1,2.5h-26.3l22.6-18.1l3.6-24.7
			l3.5-44.8C628.4,568.2,641.6,576.9,649.3,574.9z"/>
		<path class="st36" d="M630,653.2l-21.6-1c0,0,15.1-12.3,15.1-15.9s-0.4-16.1-0.4-16.1s-1.4,14.6-4,16.5s-10.4,10.4-15.6,11.7
			c-5.2,1.3-16.5,2.9-16.1,6.3c0.4,3.5,8.1,8.2,16.9,7.1c8.8-1.2,23.6-1.3,23.6-1.3L630,653.2z"/>
		<path class="st36" d="M644.1,624c0,0,8.2,13.8,10.4,15.3c2.1,1.5,4.4,11.3-6.1,15.7c0,0-3.6,6.1-5.4,11.7
			c-1.7,5.6-10.7,11.5-18.6,11.7c-7.9,0.2-21.7-2.1-19.7-3.6c1.9-1.5,8.6-4.4,10.7-8.4c2.1-4,12.5-25.3,12.5-27.2s4-8.2,4-8.2
			L644.1,624z"/>
		<path class="st37" d="M621.3,662.8c0,0,5.4,5.4,10.7,0c5.4-5.4,15.9-25.3,15.9-25.3s-4.8-14-5-22.8c-0.2-8.8-5.9-44.9-8.3-48.9
			c0,0-10.6,11.1-22.5,10.9c0,0,20.1,56.2,20.5,60.2C633,640.9,621.3,662.8,621.3,662.8z"/>
		<path class="st38" d="M648.4,581.7c0,0,20.7-62.3-1.2-110.6c-21.9-48.3-3.9-99.7-3.9-99.7l-55.1,15c0,0,21.4,75.6,24.3,82.2
			s5,10.3,5,19.5s12.3,84.8,12.3,84.8L648.4,581.7z"/>
		<path class="st39" d="M636,565.8c0,0-9.2-45.5-18.9-62.4c-9.7-16.9-28.5-30.5-21.8-46.4c6.8-16,68.2-83.9,68.2-106.3
			s-4-64.2-17.5-73.5c0,0-52,1.8-59.6-4c0,0-10.1,71.6,1.7,93.5c0,0-16.7,66-19.6,79.8c-2.9,13.8-4.6,22-5.8,24.7
			c-1.2,2.7,0.9,20,7.8,28.6c6.9,8.6,42.4,78.4,42.4,78.4S633.4,576,636,565.8z"/>
		<path class="st40" d="M588.2,366.6c0,0,14-41.5,19.9-47.8"/>
		<path class="st40" d="M600.1,277.2c0,0-6,29.7-5.7,34.3c0.4,4.6,8.3,17,8.3,17"/>
		<path class="st40" d="M639.8,345.9c0,0-9.9,36.2-26.1,61.7s-35.4,59.7-32.4,69.4c3.1,9.7,19.4,28.5,27.4,44.5
			c8,16,21.1,51.4,21.1,51.4"/>
		<path class="st37" d="M588.5,105c0,0,4.4,5,7.3,9.4c0.9,1.3,1.6,2.6,2.1,3.7c1.9,4.5,4.1,9.2,5.9,12.8c1.8,3.6,2.9,31.1,2.9,31.1
			l26-27.3l4.8-5c0,0-9.4-10.9-9.2-23.1l0.2-13.7L588.5,105z"/>
		<path class="st41" d="M588.5,105c0,0,4.4,5,7.3,9.4c8.3-0.3,17.7,3.3,22.6,6.7c3.8,2.7,4.8,13.9,10.4,18.5l8.6-10
			c0,0-9.4-10.9-9.2-23.1l0.2-13.7L588.5,105z"/>
		<path class="st17" d="M628.7,110.9c0,0,2.9-9.3,9.3-12.5c6.3-3.3,23.4-11.1,9.4-33.3c0,0-5.4-20.8-26.5-17.7c0,0-3.7-4.9-9.3-4.5
			c-5.6,0.4-41,10.4-29.3,39.2l37.3,16.3c0,0,3.8,3,7.4-0.6c0,0-2.7,4.8-5.1,4.5C621.8,102.2,620.8,107.1,628.7,110.9z"/>
		<path class="st37" d="M581.3,91.7c0.8,1.8-0.9,2.9-1.5,3.2c-0.1,0.1-0.2,0.1-0.2,0.1c-1,1.5,1.3,3.8,1.3,3.8c0,0-0.1,0-0.1,0
			c-1.8,0.7-1.2,2.9-0.3,3.6c0.8,0.7-0.1,2.7-0.1,2.7c-3.4,9.4,9.6,7.5,13.7,7.2c15.7-0.6,17.2-6.4,17.2-9c0-2.7,0.7-2.1,0.7-2.1
			c12.7-0.7,15.2-11,12-16.6c0,0-4.1-4.5-8.8-3.2c-4.7,1.3-4.1,9-4.1,9c-5-1-4.9-4.6-4.4-8.5c0.5-4-0.2-3.5-3.5-7.8
			c-10.2-11.2-0.4-20.3-0.2-20.5c-12.7,4-16,15.1-15.6,20.8c0.4,5.7-9.2,10.2-9.4,12.9C577.7,90,581.3,91.7,581.3,91.7z"/>
		<path class="st22" d="M580.9,98.7c0,0-0.1,0-0.1,0c1.6,0.2,4.6,0.5,4.9,0.5c0,0-2.8-1.7-4.1-3c-0.6-0.6-1.2-1.1-1.7-1.4
			c-0.1,0.1-0.2,0.1-0.2,0.1C578.6,96.5,580.9,98.7,580.9,98.7z"/>
		<path class="st17" d="M598.1,77.9c0,0-3.6-5.1-5.4-6s-4.3,0.9-4.3,1.3c0,0.4-0.4,1.6,0.2,1.6s2.1-1.9,4.2-0.5
			C594.8,75.7,598.1,77.9,598.1,77.9z"/>
		<path class="st17" d="M586.4,77.1c0.3,0.5,1.5,1.9,2.5,2c0,0-0.5,2.2,0.6,2.7c0,0,0.4,0,0.9,0c1.3-0.1,3.7-0.3,4-1c0,0,0,0,0,0
			l-4.9-2.8C589.5,77.9,587.3,78.1,586.4,77.1z"/>
		<path class="st16" d="M590.4,81.7c1.3-0.1,3.7-0.3,4-1l-3.3-0.8C591.1,79.9,591,81.4,590.4,81.7z"/>
		<path class="st42" d="M646.1,130.7c0,0-2.6-0.6-4.7-1.9c-2-1.2-5.9-0.5-7.3,1.9c-1.4,2.3-20.6,22.3-21.9,23.2c-1.6,1.1-6.3,2-6-5
			c0.3-7-1.4-15.9-2.6-17.9c-1.2-2-4.3,3.1-7.3,8.1c-3,5-13.5,31.9-14.2,38.5c-0.6,6.5-1.2,33.9,0,40.8s4.1,31.1,3.3,38.3
			s-0.7,16.2,6,18.1c6.7,1.9,26.5,2.5,26.5,2.5s-2.8-42-1.6-47.3c1.2-5.3,3-39.8,6.5-49.2c3.6-9.4,12-38.6,16-41.6
			C643,136.1,646.1,130.7,646.1,130.7z"/>
		<path class="st43" d="M615.4,281.5c0.9,6.4,15.4,61.8,19.8,71.3c4.4,9.5,24,16.7,35.6,17.8c11.7,1.1,8.9-15.1,8.6-21.3
			c-0.2-4.7-3.9-21.1-7.4-34c-1.1-4.3-2.2-8.2-3.2-11.1c-3.9-12-3.7-30.7-3.7-30.7c12.6,3.7,14.2-12.3,14.6-12.3c0.5,0,3.7-0.9,5-2
			c1.2-1.1-2.2-12.5,1.4-13.4c3.6-0.9,2.8-6.5-0.9-14c-3.7-7.5-2.8-24.6-1.9-35.3c0.9-10.7-3.1-29-6.1-37.8
			c-3-8.9-8.9-20.4-11.5-23.8c-1.3-1.7-8.1-1-11.2-1c-3.1,0-9.6-2.5-11.5-4.8c-1.3-1.7-4.7-1.5-6.3-1.2c-1.6,0.3-13.2,29-15.1,35.6
			c-1.9,6.5-8.1,37.5-9,50.5C611.7,226.7,614.5,275.1,615.4,281.5z"/>
		<path class="st44" d="M657.3,138.1c-0.3,0-0.8,0.1-1.3,0.4C656.9,138.2,657.3,138.1,657.3,138.1z"/>
		<path class="st44" d="M634.2,207.4c7.2-2.8,13.2,1.5,11.3,10.3c-1.8,8.8,1.7,15,2.8,15.7c1,0.7-1.8,35.4,5,44.4
			c6.8,9,12,29.9,18.6,37.2c0.1,0.1,0.2,0.2,0.3,0.3c-1.1-4.3-2.2-8.2-3.2-11.1c-3.9-12-3.7-30.7-3.7-30.7s-18.2-37.1-7.2-40.4
			c0,0-9.8-7.4-7.6-12.4c2.2-5,5.6-7.3,2.7-17.3c-2.9-10-8.8-32.2-9.9-36.7c-2.7-10.3,8.2-25.5,12.9-28.1
			c-3.2,1.1-11.3,4.4-14.3,11.5c-3.7,8.9-5.5,30.5-4,40.7c1.5,10.3-13,15.8-17.5,14.6C615.7,204.3,627,210.1,634.2,207.4z"/>
		<path class="st45" d="M571.9,272.5c0,0-24.5-16.5-35.5-40.8s-20.8-29.9-26.1-32.6c-5.3-2.7-18.1-18.3-20.5-25c0,0,0.4-2.8,2.4-1.7
			L488,163c0,0,0.6-5.1,3-3.4c0,0,1.6-2,3.6-0.3c0,0,1.8-1.8,3.3,0.3s6,12.8,8.2,15.3c2.2,2.4,13.1,10.6,13.1,10.6s-2.7-5.5-4.6-9.3
			c-2-3.8-3.3-9.5-1.8-9.3c1.5,0.2,3.8,4,6.5,7.4c2.7,3.4,7.2,8.4,7.3,12.7c0.1,4.3,0.1,9.9,2.8,13.7c2.7,3.8,27.5,30.5,30.4,32.2
			s19.3,12.8,19.3,12.8S575,271.3,571.9,272.5z"/>
		<path class="st43" d="M604.1,131.9c0,0-3.6,2.4-6,9.7c-2.5,7.3-10.9,30.5-10.9,36.3c0,5.8,1,61.6,0.7,68.1
			c-0.3,6.6-0.7,25.1-2,32.5c-1.3,7.4-3.7,36.4-3.3,43.9c0.4,7.4,1.2,28.2,1.2,28.2s-14.9-7.4-17.8-23.6
			c-2.9-16.2,0.3-47.3,2.9-54.3s12.8-41.8,11.3-54.9s-12.1-59.3-2.3-72.6c0,0,13.4-10.2,18.9-13.4
			C601.5,129.3,603.9,130.3,604.1,131.9z"/>
		<path class="st30" d="M576.8,172.5l25.9,91.7c0,0-41.1-21.2-43.8-21.2s-28.6-84.4-35.5-87.9L576.8,172.5z"/>
		<path class="st37" d="M673.9,256.6c0,0-15.6-10.5-19.2-13.9c-3.6-3.4-10.5-6.5-19.4-6.3s-30.3-3-34.4-10.2
			c-4.2-7.2-2.2-11.4-5.3-15.7s-10.2-10.1-10.2-10.1l2.6,9.4c0,0-0.7,4.7-2.6,2.7s-10.6-12.7-17.7-14.7c-7.1-2,0,5.1,0,5.1l3.3,2.5
			c0,0-4.2-0.4-4.2,1.8s3.1,4.9,3.1,4.9s-2.2-0.5-0.9,2.7c1.3,3.3,4.9,6.2,4.9,6.2s-2.2-0.9-0.4,3.4s10.7,9.4,14.3,9.4
			c0,0,16.3,7.1,24.5,11.2c8.2,4.2,42,23,46.6,24.1S676.8,273.8,673.9,256.6z"/>
	</g>
</g>
</svg>
