<svg xmlns="http://www.w3.org/2000/svg" xmlns:xlink="http://www.w3.org/1999/xlink" viewBox="0 0 765.6 649.27"><style><![CDATA[.w{fill:#258e46}.x{fill:none}.y{fill:#1f7237}.z{fill:#fff}.AA{fill:#fecfb5}.AB{fill:#020b42}.AC{stroke-miterlimit:10}.AD{fill:#935252}.AE{fill:#ffaa96}.AF{clip-path:url(#A)}.AG{fill:#fe896f}.AH{stroke-width:1.29}.AI{stroke-linecap:round}]]></style><defs><clipPath id="A" transform="translate(-36.3 -31.64)"><path d="M529 220.8l-23 .6s-9.3-6.1-12.1-11.7h0c-2.8-5.6-4.5-21.2-4.5-21.2s-2.6 11.3-4 21.6 1.4 40.2 1.4 40.2c-5.1 3.2-12.6 5.1-20.7 6.1-18.9 2.3-40.6 0-40.6 0l-.2-3.1s-7.3-24.1-10.3-30.6-6.7-22-9.6-21.6-7.4 11.9-11.3 19.8c-3.5 7.1-11.1 9.5-12.6 6.3a3.54 3.54 0 0 1-.3-1.1c-.2-4.7-13.3-25.4-13.3-25.4-1.4-5.6 8.3-18.4 12.4-25.2s7.4-16 9-28.3 11.9-8.1 14.9-10.1 31-17.5 31-17.5c25-4.5 35.6 3.8 38.8 4.7s16.5 13.3 16.5 13.3c15.6-4.5 21.4 15.7 22.3 23.6s11.2 23.2 15.2 33.1c3.8 9.8 1 26.5 1 26.5z" class="x"/></clipPath><path id="B" d="M601 499.26s6.7 2 12.1 1 13.3-.4 15.6 1.9 5.6 3.6 12.2 2.4 18.6-3.6 21.1 11.9c0 0-2.6 4.7-16.8-.6s-41.8-13.5-44.2-16.6z"/><path id="C" d="M413.1 113.06a1.3 1.3 0 0 1-1.671-1.576 1.3 1.3 0 0 1 .971-.924 1.3 1.3 0 0 1 1.671 1.576 1.3 1.3 0 0 1-.971.924"/><path id="D" d="M382.1 121.66a1.3 1.3 0 0 1-1.671-1.576 1.3 1.3 0 0 1 .971-.924c1.7-.6 2.4 2 .7 2.5"/><path id="E" d="M436.1 193.06a1.26 1.26 0 0 1-1.712-1.506 1.26 1.26 0 0 1 1.012-.894 1.26 1.26 0 0 1 1.712 1.506 1.26 1.26 0 0 1-1.012.894"/><path id="F" d="M424 170.56a1.3 1.3 0 0 1-1.671-1.576 1.3 1.3 0 0 1 .971-.924c1.7-.6 2.4 1.9.7 2.5"/><path id="G" d="M425.9 196.26a1.27 1.27 0 0 1-1.744-1.456 1.27 1.27 0 0 1 .944-.944 1.27 1.27 0 0 1 1.744 1.456 1.27 1.27 0 0 1-.944.944"/><path id="H" d="M419.3 193.06c-.69.221-1.429-.16-1.65-.85s.16-1.429.85-1.65 1.429.16 1.65.85-.16 1.429-.85 1.65"/><path id="I" d="M433.3 201.66a1.22 1.22 0 0 1-1.666-1.379 1.22 1.22 0 0 1 .866-.921 1.22 1.22 0 0 1 1.666 1.379 1.22 1.22 0 0 1-.866.921"/><path id="J" d="M423.1 220.76a1.29 1.29 0 0 1-1.851-1.408 1.29 1.29 0 0 1 .951-.992 1.29 1.29 0 0 1 1.851 1.408 1.29 1.29 0 0 1-.951.992"/><path id="K" d="M427.1 229.76a1.28 1.28 0 0 1-1.927-1.238 1.28 1.28 0 0 1 .827-1.062 1.28 1.28 0 0 1 1.927 1.238 1.28 1.28 0 0 1-.827 1.062"/><path id="L" d="M416.3 217.96a1.33 1.33 0 0 1-1.814-1.485 1.33 1.33 0 0 1 .914-1.015 1.33 1.33 0 0 1 1.814 1.485 1.33 1.33 0 0 1-.914 1.015"/><path id="M" d="M461.8 96.96a1.32 1.32 0 0 1-1.864-1.324 1.32 1.32 0 0 1 2.078-.953 1.32 1.32 0 0 1-.214 2.276"/><path id="N" d="M466.3 106.46a1.32 1.32 0 0 1-1.864-1.324 1.32 1.32 0 0 1 .764-1.076c1.6-.9 2.7 1.6 1.1 2.4"/><path id="O" d="M448.6 132.06a1.32 1.32 0 0 1-1.864-1.324 1.32 1.32 0 0 1 .764-1.076c1.6-.9 2.8 1.6 1.1 2.4"/><path id="P" d="M359.2 136.86c-1.7.7-3.1-2.7-1.4-3.4s3.1 2.7 1.4 3.4"/><path id="Q" d="M369.7 162.96c-1.7.7-3-2.6-1.3-3.3s3 2.6 1.3 3.3"/><path id="R" d="M339.4 144.96c-1.7.7-3.1-2.6-1.4-3.3s3.1 2.6 1.4 3.3"/></defs><path d="M751.7 359.76s-16.1 6.7-23.2 7.2-39.6 13.6-30.5 36.1 53.7-43.3 53.7-43.3z" fill="#82be3c"/><path d="M639.5 430.46s27.7-.8 30.8 7.8-5.7 16.2-7.4 21.6-3.6 12.5-3.6 12.5z" class="w"/><g stroke="#1f7237" class="x AC AH"><path d="M663.3 516.66s12 6.3 9.6 22.4"/><path d="M658.6 469.96s15.8 45.5 11.7 69.3m12.8-31.2s-12.8 14.8-3.1 30.6m27.6-88.2s-5.5 58.1-22.3 87.9m-25.2-98s14.5 28 14.9 48.7l1.4 50.1"/><path d="M673.6 397.96s-4.5 17.7 0 43.7 10.6 78.5 8 96.9"/></g><path d="M700 618.06h-41.3a11.48 11.48 0 0 1-11.3-9.7l-10.2-66.5a3.4 3.4 0 0 1 3.4-3.9h76.9a3.4 3.4 0 0 1 3.4 3.9l-9.6 66.5a11.41 11.41 0 0 1-11.3 9.7z" fill="#e3880c"/><path d="M707.9 453.46s34.4-81.3 57.7-96.4c0 0-13.1-2.6-16 3s-14.2 15.5-24.6 14.7-15.2 5.6-15.3 12.6-8.9 15.8-11.7 15.7c0 0 1.8 12.1 4 15s-4.6 11.8-3.7 16 1.8 15.3 9.6 19.4z" class="w"/><path d="M653.8 497.56c-9.2-2.2-8.4 1.7-52.8 1.7l61.1 17.2 1.2.3c0-.1 1.6-16.5-9.5-19.2z" fill="#5ea542"/><use xlink:href="#B" fill="#288b48"/><path d="M567.5 390.66s1 25 25.2 32.9 35.3 11.7 38.8 17.2.7-30.9.7-30.9-2.9-10.7-16.3-10.1-43.8 6.2-48.4-9.1z" class="y"/><path d="M659.3 472.36l-27.1-62.5s-4.3 24.2-.7 30.9 5.9 12.8 11.9 18.3 15.8 11.8 15.9 13.3z" fill="#5ca93e"/><path d="M756.2 455.66l-37.4 10.6c-7.7 1.9-22.6 4.3-28.7 9-9.8 7.5-16.8 21.2-7.9 34.2" fill="#59ad40"/><path d="M682.1 509.46s-6.2-30.3 33.6-29.9c0 0 1.9-10.3 10.7-13s23.9-5.8 29.7-10.9c.1 0-59 59.2-74 53.8z" class="w"/><path d="M709.1 448.96s20-31.3 32.8-39.2 18.7-16.6 16.8-26.5a134.23 134.23 0 0 1-1.8-22.2c0 0-51.4 64.8-47.8 87.9z" class="y"/><path d="M673.6 397.96s-10.1-12.5-12.8-12.9-6.7-19.5 8.6-28.1 21.4-12 31.6-22.5 31.2-25.9 56.3-22.5c-16 7.7-17.9 9.1-24.9 17.7s-14.4 20.1-24.3 29.9c-9.9 9.6-34.5 38.4-34.5 38.4z" fill="#50ad3e"/><path d="M672.9 403.56s-2.7-25.4 8.2-29.6 28.1-15.5 35-26.4 26.7-39.2 43.5-35.8c0 0-20.5 8-25.9 19.3s-20.1 33.6-35 42-25.8 30.5-25.8 30.5z" class="w"/><path d="M654.7 393.96s28.8 6.7 29.4 17.7-11.5 14.5-14.9 18.2-8.6 12-8.6 12z" fill="#208e44"/><path d="M600.9 334.66s6.4 17.3 24.3 18.7 29.6 7.7 28.8 16.1-5 42-5 42-9.6-18.7-17.4-24.6-35.4-16.9-30.7-52.2z" class="y"/><path d="M660.6 441.86l-6.7-72.4s-16.3 28.6-5.4 49.9 12.1 22.5 12.1 22.5z" fill="#5daa42"/><path d="M184.2 355.36s-16.1 6.7-23.2 7.2-39.6 13.6-30.5 36.1 53.7-43.3 53.7-43.3z" fill="#82be3c"/><path d="M71.9 426.06s27.7-.8 30.8 7.8-5.7 16.2-7.4 21.6-3.6 12.5-3.6 12.5z" class="w"/><g stroke="#1f7237" class="x AC AH"><path d="M95.8 512.36s12 6.3 9.6 22.4"/><path d="M91.1 465.56s15.8 45.5 11.7 69.3m12.8-31.2s-12.8 14.8-3.1 30.6m27.5-88.2s-5.5 58.1-22.3 87.9m-25.1-97.9s14.5 28 14.9 48.7l1.4 50.1"/><path d="M106 393.56s-4.5 17.7 0 43.7 10.6 78.5 8 96.9"/></g><path d="M132.4 613.76H91.1a11.48 11.48 0 0 1-11.3-9.7l-10.1-66.6a3.4 3.4 0 0 1 3.4-3.9H150a3.4 3.4 0 0 1 3.4 3.9l-9.6 66.5a11.6 11.6 0 0 1-11.4 9.8z" fill="#e3880c"/><path d="M140.4 449.06s34.4-81.3 57.7-96.4c0 0-13.1-2.6-16 3s-14.2 15.5-24.6 14.7-15.2 5.6-15.3 12.6-8.9 15.8-11.7 15.7c0 0 1.8 12.1 4 15s-4.6 11.8-3.7 16 1.8 15.4 9.6 19.4z" class="w"/><path d="M86.2 493.26c-9.2-2.2-8.4 1.7-52.8 1.7l61.1 17.2 1.2.3c.1-.1 1.6-16.6-9.5-19.2z" fill="#5ea542"/><use xlink:href="#B" x="-567.5" y="-4.4" fill="#288b48"/><path d="M0 386.36s1 25 25.2 32.9 35.3 11.7 38.8 17.2.7-30.9.7-30.9-2.9-10.7-16.3-10.1-43.8 6.1-48.4-9.1z" class="y"/><path d="M91.8 467.96l-27.1-62.5s-4.3 24.2-.7 30.9 5.9 12.8 11.9 18.3 15.7 11.8 15.9 13.3z" fill="#5ca93e"/><path d="M188.6 451.26l-37.4 10.6c-7.7 1.9-22.6 4.3-28.7 9-9.8 7.5-16.8 21.2-7.9 34.2" fill="#59ad40"/><path d="M114.6 505.06s-6.2-30.3 33.6-29.9c0 0 1.9-10.3 10.7-13s23.9-5.8 29.7-10.9c0 0-59 59.3-74 53.8z" class="w"/><path d="M141.5 444.56s20-31.3 32.8-39.2 18.7-16.6 16.8-26.5a134.23 134.23 0 0 1-1.8-22.2c0 0-51.3 64.9-47.8 87.9z" class="y"/><path d="M106 393.56s-10.1-12.5-12.8-12.9-6.7-19.5 8.6-28.1 21.4-12 31.6-22.5 31.2-25.9 56.3-22.5c-16 7.7-17.9 9.1-24.9 17.7s-14.4 20.1-24.3 29.9c-9.8 9.6-34.5 38.4-34.5 38.4z" fill="#50ad3e"/><path d="M105.4 399.16s-2.7-25.4 8.2-29.6 28.1-15.5 35-26.4 26.7-39.2 43.5-35.8c0 0-20.5 8-25.9 19.3s-20.1 33.6-35 42c-14.9 8.6-25.8 30.5-25.8 30.5z" class="w"/><path d="M87.2 389.56s28.8 6.7 29.4 17.7-11.5 14.5-14.9 18.2-8.6 12-8.6 12z" fill="#208e44"/><path d="M33.3 330.26s6.4 17.3 24.3 18.7 29.6 7.7 28.8 16.1-5 42-5 42-9.6-18.7-17.4-24.6-35.3-16.9-30.7-52.2z" class="y"/><path d="M93.1 437.56l-6.7-72.4s-16.3 28.6-5.4 49.9 12.1 22.5 12.1 22.5z" fill="#5daa42"/><path d="M329.5 599.76s-11.8 20.6-15.6 23.7-12.6 8.6-11 10 30.7-3.4 30.7-3.4l6-11.5 1.8 12.1h2.8s-.2-16.4 1.2-16.9 7.7-10.5 1.1-14.4-17 .4-17 .4m96.5-6.4s-4.9 2.9-6.1 10.6-1.2 24.5-1.2 24.5.7 6 9 6.7 19.2-2.5 19.2-2.5 0-4.7-1.4-7.4-8.5-28.4-9-30.1-10.5-1.8-10.5-1.8z" fill="#322a7d"/><path d="M386.9 468.16s-.7 20.5-8.7 38.9-27.3 50.3-27.6 60.2-4.4 28.5-4.1 32.1l-1.9 3.3a58.18 58.18 0 0 1-3.8 5.9c-3 4-9.3 16.5-23 16.4 0 0 12.2-18.2 13.8-35.3l5.5-68.8c1.6-13.1 10.6-45.4 12-48.1.8-1.6 14.2-3 24.8-3.8l13-.8zm33.1 0s.9 20 2.8 43.4 3 57.8 2.3 73.9-2.1 38.4.2 39.8 9.7 4.7 14.7 0c0 0-4.6-34.2-1.6-49s17.7-85 18.1-98.2-36.5-9.9-36.5-9.9z" class="AA"/><path d="M386.9 468.16s-.7 20.5-8.7 38.9-27.3 50.3-27.6 60.2-4.4 28.5-4.1 32.1l-1.9 3.3c-2.4-22.7 4.7-62.3 13-76 10.3-17.1 14.2-57 14.2-57l2.1-.7 13-.8z" fill="#ffad83"/><path d="M346.5 475.16s14.7 6.1 34.4 2.2 28.5-6.3 46.6-2.2l32.2 7.6s8.7-20 0-58c0 0-2.3-9.7 2.5-22.7s20-56.6 19.5-77.1-3.2-49.7-11.3-65.2-20-41.1-20-41.1l-61.3 6.1a42.08 42.08 0 0 1-1.8 13.9c-2.3 7.9-14.2 26.1-18.6 50.6s-8.7 44.5-7.8 69 4.1 41.4 1.8 56-12.1 54.8-16.2 60.9z" fill="#322a7d"/><path d="M267.8 118.66a1.94 1.94 0 0 0-.4 2.5c.8 1.6 10.7 10 18.3 15.7 6.6 4.9 20.2 9.8 21.8 15.8s4 47.9 6 52 5.6 15.2 12.2 11.3 22.2-23.6 22.2-23.6l-12-20.5-4.5 9s-6.8-17.6-10.2-23.6-5.4-11.9-4.4-17.2 3.6-15.2 2.8-20.1a43 43 0 0 1-.2-10.2c0 0-6 2.5-6 7.4s-.8 8.4-3.2 8.4-15.8-11.7-16.6-13.3c-.6-1.2-7-7.6-10-10.4a2.15 2.15 0 0 0-2.9-.1h0a2 2 0 0 0-.3 2.7l7.8 10.6-12.9-12.5a2.29 2.29 0 0 0-3-.2h0a2.24 2.24 0 0 0-.3 3.2l10.7 12.1-11.8-8.5a1.85 1.85 0 0 0-2.5.3h0a1.69 1.69 0 0 0 .1 2.3l11 12.1z" class="AA"/><path d="M492.7 189.16l-23 .6s-9.3-6.1-12.1-11.7h0c-2.8-5.6-4.5-21.2-4.5-21.2s-2.6 11.3-4 21.6 1.4 40.2 1.4 40.2c-5.1 3.2-12.6 5.1-20.7 6.1-18.9 2.3-40.6 0-40.6 0l-.2-3.1s-7.3-24.1-10.3-30.6-6.7-22-9.6-21.6-7.4 11.9-11.3 19.8c-3.5 7.1-11.1 9.5-12.6 6.3a3.54 3.54 0 0 1-.3-1.1c-.2-4.7-13.3-25.4-13.3-25.4-1.4-5.6 8.3-18.4 12.4-25.2s7.4-16 9-28.3 11.9-8.1 14.9-10.1 31-17.5 31-17.5c25-4.5 35.6 3.8 38.8 4.7s16.5 13.3 16.5 13.3c15.6-4.5 21.4 15.7 22.3 23.6s11.2 23.2 15.2 33.1c3.8 9.8 1 26.5 1 26.5z" fill="#3d4ede"/><g class="AF z"><g opacity=".2"><path d="M409.6 99.26a7.9 7.9 0 0 1-1.4-.1c0-.1.5 0 1.4 0h1c-.2 0-.5.1-1 .1m.9 4.5c-.9.2-1.5-.2-1.6-.6s.2-1 1.1-1.2 1.4.1 1.5.5-.1 1.1-1 1.3"/><use xlink:href="#C"/><path d="M415.9 122.76a1.3 1.3 0 1 1-.7-2.5 1.3 1.3 0 1 1 .7 2.5m2.8 9.8a1.3 1.3 0 1 1-.7-2.5 1.3 1.3 0 1 1 .7 2.5"/><path d="M421.4 142.26a1.3 1.3 0 1 1-.7-2.5 1.3 1.3 0 1 1 .7 2.5m-16.9-40.6c-.9.2-1.4-.1-1.5-.5s.4-.7 1.3-.8 1.4.1 1.4.4-.3.7-1.2.9m2 8a1.3 1.3 0 1 1-.7-2.5 1.3 1.3 0 1 1 .7 2.5m2.8 9.7a1.3 1.3 0 1 1-.7-2.5 1.3 1.3 0 1 1 .7 2.5m2.8 9.7a1.3 1.3 0 1 1-.7-2.5 1.3 1.3 0 1 1 .7 2.5m2.8 9.8a1.3 1.3 0 1 1-.7-2.5 1.3 1.3 0 1 1 .7 2.5m-16-39.2c-1.9.1-1.8-1.3 0-1.1.9.1 1.4.3 1.4.5s-.5.6-1.4.6m1.2 6.7c-1.8.4-2.3-1.7-.5-2.1a1.26 1.26 0 0 1 1.6.7 1.2 1.2 0 0 1-1.1 1.4m2.7 9.6a1.3 1.3 0 1 1-.7-2.5 1.3 1.3 0 1 1 .7 2.5m2.7 9.7a1.3 1.3 0 1 1-.7-2.5 1.3 1.3 0 1 1 .7 2.5m2.8 9.8a1.3 1.3 0 1 1-.7-2.5 1.3 1.3 0 1 1 .7 2.5m2.8 9.7a1.3 1.3 0 1 1-.7-2.5 1.3 1.3 0 1 1 .7 2.5m-17.1-41.6c-1.8.3-2.1-1.8-.3-1.9 1.8-.3 2 1.5.3 1.9m2.2 8.9a1.3 1.3 0 1 1-.7-2.5 1.3 1.3 0 1 1 .7 2.5m2.8 9.8a1.3 1.3 0 1 1-.7-2.5 1.3 1.3 0 1 1 .7 2.5m2.8 9.7a1.3 1.3 0 1 1-.7-2.5 1.3 1.3 0 1 1 .7 2.5m2.8 9.8a1.3 1.3 0 1 1-.7-2.5 1.3 1.3 0 1 1 .7 2.5m-16.4-41.6c-1.9.1-1.8-2.2 0-2.1s1.8 1.9 0 2.1m1.5 8.9a1.25 1.25 0 1 1-.6-2.4 1.25 1.25 0 1 1 .6 2.4m2.7 9.7a1.3 1.3 0 1 1-.7-2.5 1.3 1.3 0 1 1 .7 2.5m2.8 9.8a1.3 1.3 0 1 1-.7-2.5 1.3 1.3 0 1 1 .7 2.5m2.8 9.8a1.3 1.3 0 1 1-.7-2.5 1.3 1.3 0 1 1 .7 2.5m2.8 9.8a1.3 1.3 0 1 1-.7-2.5 1.3 1.3 0 1 1 .7 2.5m-17.4-42.8a1.32 1.32 0 1 1-.4-2.6 1.32 1.32 0 1 1 .4 2.6m2.4 9.9a1.3 1.3 0 1 1-.7-2.5 1.3 1.3 0 1 1 .7 2.5m2.8 9.8a1.3 1.3 0 1 1-.7-2.5 1.3 1.3 0 1 1 .7 2.5m2.9 9.8a1.3 1.3 0 1 1-.7-2.5 1.3 1.3 0 1 1 .7 2.5m2.8 9.8a1.3 1.3 0 1 1-.7-2.5 1.3 1.3 0 1 1 .7 2.5m-16.8-44.1a1.42 1.42 0 0 1-1.4-1.6 1.48 1.48 0 0 1 1.4-1.6 1.46 1.46 0 0 1 1.3 1.6c0 .8-.4 1.6-1.3 1.6m1.8 11.1c-.746.193-1.507-.254-1.7-1s.254-1.507 1-1.7c1.8-.3 2.5 2.3.7 2.7"/><use xlink:href="#D"/><path d="M384.9 131.46a1.3 1.3 0 1 1-.7-2.5 1.3 1.3 0 1 1 .7 2.5m2.8 9.8a1.3 1.3 0 1 1-.7-2.5 1.3 1.3 0 1 1 .7 2.5"/><path d="M390.5 151.06a1.3 1.3 0 1 1-.7-2.5 1.3 1.3 0 1 1 .7 2.5m-17.7-43.8c-.9.2-1.5-.6-1.6-1.4s.2-1.8 1.1-1.8c1.9-.2 2.3 2.9.5 3.2m2.7 10.9a1.3 1.3 0 1 1-.7-2.5 1.3 1.3 0 1 1 .7 2.5m2.8 9.8a1.3 1.3 0 1 1-.7-2.5 1.3 1.3 0 1 1 .7 2.5m2.8 9.8a1.3 1.3 0 1 1-.7-2.5 1.3 1.3 0 1 1 .7 2.5m2.8 9.8a1.3 1.3 0 1 1-.7-2.5 1.3 1.3 0 1 1 .7 2.5m-17.2-46.5c-.9 0-1.4-1-1.4-2s.5-2.1 1.4-2.1 1.3 1.1 1.3 2.1a1.65 1.65 0 0 1-1.3 2m2.2 13.3a1.42 1.42 0 0 1-1.7-1.1 1.46 1.46 0 0 1 1-1.9c1.8-.4 2.5 2.6.7 3m2.8 10.1a1.3 1.3 0 1 1-.7-2.5 1.3 1.3 0 1 1 .7 2.5m2.9 9.8a1.3 1.3 0 1 1-.7-2.5 1.3 1.3 0 1 1 .7 2.5m2.8 9.9a1.3 1.3 0 1 1-.7-2.5 1.3 1.3 0 1 1 .7 2.5m2.8 9.8a1.3 1.3 0 1 1-.7-2.5 1.3 1.3 0 1 1 .7 2.5m-17.9-44.8c-.9.2-1.5-.7-1.7-1.7s.2-2.1 1.1-2.2 1.5.8 1.6 1.8-.1 2-1 2.1m2.9 11.8a1.35 1.35 0 1 1 .857-1.625 1.35 1.35 0 0 1-.857 1.625m2.8 9.8a1.3 1.3 0 1 1-.7-2.5 1.3 1.3 0 1 1 .7 2.5m2.8 9.9a1.3 1.3 0 1 1-.7-2.5 1.3 1.3 0 1 1 .7 2.5"/><path d="M373.6 150.56a1.3 1.3 0 1 1-.7-2.5 1.3 1.3 0 1 1 .7 2.5m-17.6-49.1c-.9 0-1.4-1.2-1.4-2.5s.5-2.7 1.4-2.6 1.3 1.4 1.3 2.6-.3 2.4-1.3 2.5m2.5 15.5c-.9.2-1.5-.4-1.7-1.3a1.52 1.52 0 0 1 .9-2c.9-.2 1.5.6 1.7 1.4a1.35 1.35 0 0 1-.9 1.9m2.9 10.3a1.3 1.3 0 1 1-.7-2.5 1.3 1.3 0 1 1 .7 2.5m2.8 9.9a1.3 1.3 0 1 1-.7-2.5 1.3 1.3 0 1 1 .7 2.5m2.8 9.9a1.3 1.3 0 1 1-.7-2.5 1.3 1.3 0 1 1 .7 2.5m2.9 9.9a1.3 1.3 0 1 1-.7-2.5c1.7-.6 2.4 2 .7 2.5m52.3-12.2a1.3 1.3 0 1 1-.7-2.5 1.3 1.3 0 1 1 .7 2.5m2.7 9.7a1.3 1.3 0 1 1-.7-2.5 1.3 1.3 0 1 1 .7 2.5m2.8 9.7a1.3 1.3 0 1 1-.7-2.5 1.3 1.3 0 1 1 .7 2.5m2.8 9.7a1.3 1.3 0 1 1-.7-2.5 1.3 1.3 0 1 1 .7 2.5m2.8 9.7a1.3 1.3 0 1 1-.7-2.5 1.3 1.3 0 1 1 .7 2.5"/><use xlink:href="#E"/><path d="M418.4 151.06a1.3 1.3 0 1 1-.7-2.5 1.3 1.3 0 1 1 .7 2.5m2.8 9.7a1.3 1.3 0 1 1-.7-2.5 1.3 1.3 0 1 1 .7 2.5"/><use xlink:href="#F"/><path d="M426.7 180.26a1.3 1.3 0 1 1-.7-2.5 1.3 1.3 0 1 1 .7 2.5m2.9 9.7a1.3 1.3 0 1 1-.7-2.5 1.3 1.3 0 1 1 .7 2.5m-17.8-42.3a1.3 1.3 0 1 1-.7-2.5 1.3 1.3 0 1 1 .7 2.5m2.8 9.8a1.3 1.3 0 1 1-.7-2.5 1.3 1.3 0 1 1 .7 2.5m2.8 9.7a1.3 1.3 0 1 1-.7-2.5 1.3 1.3 0 1 1 .7 2.5m2.8 9.8a1.3 1.3 0 1 1-.7-2.5 1.3 1.3 0 1 1 .7 2.5m2.8 9.7a1.3 1.3 0 1 1-.7-2.5 1.3 1.3 0 1 1 .7 2.5"/><use xlink:href="#G"/><path d="M408.1 154.06a1.3 1.3 0 1 1-.7-2.5 1.3 1.3 0 1 1 .7 2.5m2.8 9.7a1.3 1.3 0 1 1-.7-2.5 1.3 1.3 0 1 1 .7 2.5m2.8 9.8a1.3 1.3 0 1 1-.7-2.5 1.3 1.3 0 1 1 .7 2.5m2.8 9.8a1.3 1.3 0 1 1-.7-2.5c1.7-.6 2.4 1.9.7 2.5"/><use xlink:href="#H"/><path d="M401.5 150.66a1.3 1.3 0 1 1-.7-2.5 1.3 1.3 0 1 1 .7 2.5m2.8 9.7a1.3 1.3 0 1 1-.7-2.5 1.3 1.3 0 1 1 .7 2.5m2.8 9.8a1.3 1.3 0 1 1-.7-2.5 1.3 1.3 0 1 1 .7 2.5m2.8 9.8a1.3 1.3 0 1 1-.7-2.5 1.3 1.3 0 1 1 .7 2.5m2.8 9.8a1.3 1.3 0 1 1-.7-2.5 1.3 1.3 0 1 1 .7 2.5m3 9.7c-.69.221-1.429-.16-1.65-.85s.16-1.429.85-1.65 1.429.16 1.65.85-.16 1.429-.85 1.65m-17.9-42.5a1.3 1.3 0 1 1-.7-2.5 1.3 1.3 0 1 1 .7 2.5m2.8 9.8a1.3 1.3 0 1 1-.7-2.5 1.3 1.3 0 1 1 .7 2.5m2.8 9.8a1.3 1.3 0 1 1-.7-2.5 1.3 1.3 0 1 1 .7 2.5m2.8 9.8a1.3 1.3 0 1 1-.7-2.5 1.3 1.3 0 1 1 .7 2.5m2.9 9.8c-.69.221-1.429-.16-1.65-.85s.16-1.429.85-1.65 1.429.16 1.65.85-.16 1.429-.85 1.65m-17.9-42.6a1.3 1.3 0 1 1-.7-2.5 1.3 1.3 0 1 1 .7 2.5m2.8 9.8a1.3 1.3 0 1 1-.7-2.5 1.3 1.3 0 1 1 .7 2.5m2.8 9.8a1.3 1.3 0 1 1-.7-2.5 1.3 1.3 0 1 1 .7 2.5m2.8 9.9a1.3 1.3 0 1 1-.7-2.5 1.3 1.3 0 1 1 .7 2.5m2.9 9.8a1.3 1.3 0 1 1-.7-2.5c1.7-.6 2.4 1.9.7 2.5m2.9 9.8c-.69.221-1.429-.16-1.65-.85s.16-1.429.85-1.65 1.429.16 1.65.85-.16 1.429-.85 1.65m-17.9-42.7a1.3 1.3 0 1 1-.7-2.5 1.3 1.3 0 1 1 .7 2.5m2.8 9.8a1.3 1.3 0 1 1-.7-2.5 1.3 1.3 0 1 1 .7 2.5m2.8 9.9a1.3 1.3 0 1 1-.7-2.5 1.3 1.3 0 1 1 .7 2.5m2.8 9.8a1.3 1.3 0 1 1-.7-2.5 1.3 1.3 0 1 1 .7 2.5m2.9 9.8c-.69.221-1.429-.16-1.65-.85s.16-1.429.85-1.65 1.429.16 1.65.85-.16 1.429-.85 1.65m-17.9-42.7a1.3 1.3 0 1 1-.7-2.5 1.3 1.3 0 1 1 .7 2.5m2.8 9.8a1.3 1.3 0 1 1-.7-2.5 1.3 1.3 0 1 1 .7 2.5m2.8 9.9a1.3 1.3 0 1 1-.7-2.5 1.3 1.3 0 1 1 .7 2.5m2.9 9.8a1.3 1.3 0 1 1-.7-2.5 1.3 1.3 0 1 1 .7 2.5m2.8 9.8a1.3 1.3 0 1 1-.7-2.5 1.3 1.3 0 1 1 .7 2.5m3 10a1.36 1.36 0 1 1 .526-2.297 1.36 1.36 0 0 1-.526 2.296m-18-42.899a1.3 1.3 0 1 1-.7-2.5c1.7-.6 2.4 2 .7 2.5m2.8 9.8a1.3 1.3 0 1 1-.7-2.5 1.3 1.3 0 1 1 .7 2.5m2.8 9.9a1.3 1.3 0 1 1-.7-2.5 1.3 1.3 0 1 1 .7 2.5m2.8 9.9a1.3 1.3 0 1 1-.7-2.5 1.3 1.3 0 1 1 .7 2.5m2.9 9.8c-.69.221-1.429-.16-1.65-.85s.16-1.429.85-1.65 1.429.16 1.65.85-.16 1.429-.85 1.65m-17.9-42.9a1.3 1.3 0 1 1-.7-2.5 1.3 1.3 0 1 1 .7 2.5m2.8 9.9a1.3 1.3 0 1 1-.7-2.5 1.3 1.3 0 1 1 .7 2.5m2.9 9.9a1.3 1.3 0 1 1-.7-2.5 1.3 1.3 0 1 1 .7 2.5m2.8 9.8a1.3 1.3 0 1 1-.7-2.5 1.3 1.3 0 1 1 .7 2.5m2.8 9.9a1.3 1.3 0 1 1-.7-2.5 1.3 1.3 0 1 1 .7 2.5m3.1 10a1.36 1.36 0 1 1 .9-1.7 1.36 1.36 0 0 1-.9 1.7m51.9-13.5a1.26 1.26 0 1 1-.7-2.4 1.26 1.26 0 1 1 .7 2.4m2.9 8.9a1.18 1.18 0 1 1-.8-2.2c1.8-.7 2.6 1.5.8 2.2m3.2 8.3c-1.7.7-2.5-1.4-.8-2.1s2.5 1.4.8 2.1m3.4 7.7c-1.7.8-2.6-1.1-.9-1.9s2.5 1.1.9 1.9m3.7 6.9c-1.6 1-2.6-.8-1-1.7s2.5.8 1 1.7m4 5.9c-1.5 1.1-2.6-.4-1.1-1.4s2.5.3 1.1 1.4"/><use xlink:href="#I"/><path d="M436.4 210.46c-1.7.6-2.6-1.6-.8-2.2s2.5 1.5.8 2.2m3.3 8.3c-1.7.7-2.6-1.4-.9-2.1s2.6 1.4.9 2.1m3.8 7.7c-1.6.9-2.6-1.1-1-1.9s2.6 1.1 1 1.9m4.1 6.9c-1.5 1-2.7-.7-1.1-1.7s2.6.7 1.1 1.7"/><path d="M426.7 198.66a1.27 1.27 0 1 1-.8-2.4 1.27 1.27 0 1 1 .8 2.4m3 9.2a1.22 1.22 0 1 1-.8-2.3 1.22 1.22 0 1 1 .8 2.3m3.4 8.8a1.2 1.2 0 1 1-.9-2.2 1.2 1.2 0 1 1 .9 2.2m3.6 8.4c-1.7.8-2.7-1.3-1-2.1s2.7 1.3 1 2.1m4.2 7.7c-1.6 1-2.7-1-1.1-1.9s2.6 1 1.1 1.9m4.6 7c-1.5 1.1-2.8-.6-1.3-1.7s2.8.5 1.3 1.7m-22.4-34.8a1.27 1.27 0 1 1-.8-2.4 1.27 1.27 0 1 1 .8 2.4m3.2 9.3a1.24 1.24 0 1 1-.9-2.3 1.24 1.24 0 1 1 .9 2.3m3.6 8.9c-1.7.7-2.7-1.5-1-2.2s2.7 1.4 1 2.2m4.1 8.4a1.2 1.2 0 1 1-1.1-2.1 1.2 1.2 0 1 1 1.1 2.1m4.7 7.8c-1.5 1-2.8-1-1.3-1.9s2.8.9 1.3 1.9m-22.3-37.5c-.69.221-1.429-.16-1.65-.85s.16-1.429.85-1.65 1.429.16 1.65.85-.16 1.429-.85 1.65m3.2 9.6a1.27 1.27 0 1 1-.8-2.4 1.27 1.27 0 1 1 .8 2.4"/><use xlink:href="#J"/><use xlink:href="#K"/><path d="M431.7 238.26a1.23 1.23 0 1 1-1.2-2.1 1.21 1.21 0 1 1 1.2 2.1m5.3 8a1.26 1.26 0 1 1-1.5-2c1.6-1.1 3 .8 1.5 2m-24.1-37.9c-.69.221-1.429-.16-1.65-.85s.16-1.429.85-1.65 1.429.16 1.65.85-.16 1.429-.85 1.65"/><use xlink:href="#L"/><path d="M420.1 227.46a1.3 1.3 0 1 1 .289-2.233 1.3 1.3 0 0 1-.289 2.233m4.5 9.1a1.3 1.3 0 1 1-1.2-2.3 1.3 1.3 0 1 1 1.2 2.3"/><path d="M429.8 245.36a1.31 1.31 0 1 1-1.4-2.2 1.31 1.31 0 1 1 1.4 2.2m-23.6-40.2c-.69.221-1.429-.16-1.65-.85s.16-1.429.85-1.65 1.429.16 1.65.85-.16 1.429-.85 1.65m3.3 9.8a1.33 1.33 0 1 1-.9-2.5 1.33 1.33 0 1 1 .9 2.5m3.7 9.8a1.35 1.35 0 1 1-1-2.5 1.35 1.35 0 1 1 1 2.5m4.2 9.6a1.39 1.39 0 1 1 .871-1.154 1.39 1.39 0 0 1-.871 1.154m5.1 9.4a1.39 1.39 0 1 1 .461-1.877 1.39 1.39 0 0 1-.461 1.877m6 9c-1.5 1.1-3.2-1.2-1.7-2.2a1.39 1.39 0 0 1 1.7 2.2m-25.8-41a1.36 1.36 0 1 1 .526-2.297 1.36 1.36 0 0 1-.526 2.296m3.6 10.001a1.38 1.38 0 1 1 .751-1.716 1.38 1.38 0 0 1-.751 1.716m4 10a1.412 1.412 0 1 1-1.1-2.6 1.412 1.412 0 1 1 1.1 2.6m4.8 9.9c-1.6.9-3-1.7-1.3-2.5s2.9 1.6 1.3 2.5m5.8 9.7c-1.5 1-3.2-1.5-1.6-2.4a1.44 1.44 0 0 1 1.6 2.4m-24.9-43a1.36 1.36 0 1 1 .9-1.7 1.36 1.36 0 0 1-.9 1.7m3.4 10.2a1.38 1.38 0 0 1-.9-2.6 1.38 1.38 0 0 1 .9 2.6m3.8 10.2c-1.7.7-2.8-2-1-2.6.718-.276 1.524.082 1.8.8s-.082 1.524-.8 1.8m4.6 10.3c-1.7.8-2.9-1.9-1.2-2.6s2.8 1.8 1.2 2.6m5.5 10.2c-1.6 1-3.1-1.7-1.5-2.6s3 1.7 1.5 2.6m6.7 10c-1.5 1.1-3.4-1.4-1.9-2.5s3.3 1.4 1.9 2.5m-27.4-44.1c-1.7.6-2.6-2.1-.9-2.6a1.38 1.38 0 0 1 .9 2.6m3.6 10.4c-1.7.6-2.7-2.1-1-2.7a1.44 1.44 0 0 1 1 2.7m4.3 10.5c-1.7.7-2.9-2-1.2-2.7s2.9 2 1.2 2.7m5.1 10.7c-1.6.9-3.1-1.9-1.4-2.7s3 1.8 1.4 2.7m6.4 10.6c-1.5 1-3.3-1.7-1.8-2.7s3.3 1.6 1.8 2.7m-26.2-45.7a1.36 1.36 0 0 1-.8-2.6c1.7-.6 2.5 2 .8 2.6m3.5 10.4c-.746.249-1.551-.154-1.8-.9s.154-1.551.9-1.8c1.7-.6 2.6 2.1.9 2.7m4 10.7c-1.7.7-2.8-2.1-1.1-2.8s2.8 2.1 1.1 2.8m4.8 10.9c-1.7.8-3-2.1-1.3-2.8s2.9 2 1.3 2.8m6 11.1c-1.6.9-3.3-2-1.7-2.8s3.2 1.9 1.7 2.8m7.4 11c-1.5 1.1-3.6-1.7-2.1-2.8s3.5 1.7 2.1 2.8"/></g></g><g class="AF z"><g opacity=".2"><path d="M453.7 79.16c-1.7.7-2.5-1.3-.8-1.9s2.5 1.2.8 1.9m3.8 8.4a1.28 1.28 0 1 1-1.1-2.3 1.28 1.28 0 1 1 1.1 2.3"/><use xlink:href="#M"/><use xlink:href="#N"/><path d="M470.7 115.86a1.32 1.32 0 1 1 .214-2.277 1.32 1.32 0 0 1-.214 2.276m4.4 9.501a1.32 1.32 0 1 1 .214-2.277 1.32 1.32 0 0 1-.214 2.276M450.6 85.36a1.22 1.22 0 1 1-1-2.2 1.22 1.22 0 1 1 1 2.2m4.2 9.1a1.32 1.32 0 1 1 .214-2.277 1.32 1.32 0 0 1-.214 2.276m4.4 9.501a1.32 1.32 0 1 1 .214-2.277 1.32 1.32 0 0 1-.214 2.276m4.4 9.501a1.32 1.32 0 1 1 .214-2.277 1.32 1.32 0 0 1-.214 2.276m4.4 9.401a1.32 1.32 0 1 1 .214-2.277 1.32 1.32 0 0 1-.214 2.276M443.8 83.16a1.2 1.2 0 1 1-.9-2.2c1.8-.6 2.6 1.5.9 2.2m3.9 8.9a1.28 1.28 0 1 1-1.1-2.3 1.28 1.28 0 1 1 1.1 2.3m4.4 9.4a1.32 1.32 0 1 1 .214-2.277 1.32 1.32 0 0 1-.214 2.276m4.4 9.501a1.32 1.32 0 1 1 .214-2.277 1.32 1.32 0 0 1-.214 2.276m4.5 9.501a1.32 1.32 0 1 1 .214-2.277 1.32 1.32 0 0 1-.214 2.276m4.4 9.501a1.32 1.32 0 1 1 .214-2.277 1.32 1.32 0 0 1-.214 2.276M440.8 89.76a1.26 1.26 0 1 1-1-2.3 1.26 1.26 0 1 1 1 2.3m4.3 9.3a1.32 1.32 0 1 1-1.1-2.4c1.6-.9 2.7 1.6 1.1 2.4m4.4 9.4a1.32 1.32 0 1 1 .214-2.277 1.32 1.32 0 0 1-.214 2.276m4.4 9.501a1.32 1.32 0 1 1 .214-2.277 1.32 1.32 0 0 1-.214 2.276m4.4 9.501a1.32 1.32 0 1 1 .214-2.277 1.32 1.32 0 0 1-.214 2.276M433.9 87.26a1.29 1.29 0 1 1-.9-2.4 1.29 1.29 0 1 1 .9 2.4m4.1 9.3a1.32 1.32 0 1 1 .214-2.277A1.32 1.32 0 0 1 438 96.56m4.4 9.5a1.32 1.32 0 1 1 .214-2.277 1.32 1.32 0 0 1-.214 2.276m4.4 9.501a1.32 1.32 0 1 1 .214-2.277 1.32 1.32 0 0 1-.214 2.276m4.4 9.401a1.32 1.32 0 1 1 .214-2.277 1.32 1.32 0 0 1-.214 2.276m4.4 9.501a1.32 1.32 0 1 1 .214-2.277 1.32 1.32 0 0 1-.214 2.276M431 94.06a1.37 1.37 0 1 1-1.1-2.5 1.37 1.37 0 1 1 1.1 2.5m4.4 9.5a1.32 1.32 0 1 1 .214-2.277 1.32 1.32 0 0 1-.214 2.276m4.4 9.501a1.32 1.32 0 1 1 .214-2.277 1.32 1.32 0 0 1-.214 2.276m4.4 9.501a1.32 1.32 0 1 1 .214-2.277 1.32 1.32 0 0 1-.214 2.276"/><use xlink:href="#O"/><path d="M424 91.26c-1.7.7-2.8-2-1-2.6 1.6-.6 2.7 2 1 2.6m4.3 9.8a1.37 1.37 0 1 1-1.1-2.5c1.6-.7 2.8 1.8 1.1 2.5m4.4 9.5a1.32 1.32 0 1 1 .214-2.277 1.32 1.32 0 0 1-.214 2.276m4.4 9.501a1.32 1.32 0 1 1 .214-2.277 1.32 1.32 0 0 1-.214 2.276m4.4 9.501a1.32 1.32 0 1 1 .214-2.277 1.32 1.32 0 0 1-.214 2.276m4.4 9.501a1.32 1.32 0 1 1 .214-2.277 1.32 1.32 0 0 1-.214 2.276M421.2 98.46c-1.7.8-2.8-1.9-1.1-2.6a1.412 1.412 0 1 1 1.1 2.6m4.5 9.7a1.32 1.32 0 1 1 .214-2.277 1.32 1.32 0 0 1-.214 2.276m4.4 9.401a1.32 1.32 0 1 1 .214-2.277 1.32 1.32 0 0 1-.214 2.276m4.4 9.501a1.32 1.32 0 1 1 .214-2.277 1.32 1.32 0 0 1-.214 2.276m4.4 9.501a1.32 1.32 0 1 1 .214-2.277 1.32 1.32 0 0 1-.214 2.276M414 95.36c-1.7.7-2.8-2.2-1.1-2.8s2.8 2.1 1.1 2.8m4.6 10.3a1.39 1.39 0 0 1-1.2-2.5 1.39 1.39 0 0 1 1.2 2.5m4.4 9.5a1.32 1.32 0 1 1 .214-2.277 1.32 1.32 0 0 1-.214 2.276m4.4 9.501a1.32 1.32 0 1 1-1.1-2.4c1.6-.9 2.8 1.6 1.1 2.4m4.4 9.4a1.32 1.32 0 1 1 .214-2.277 1.32 1.32 0 0 1-.214 2.276m4.4 9.501a1.32 1.32 0 1 1 .214-2.277 1.32 1.32 0 0 1-.214 2.276m-24.8-40.699c-1.7.8-2.9-2-1.2-2.7s2.9 1.9 1.2 2.7m4.6 9.8a1.32 1.32 0 1 1 .214-2.277 1.32 1.32 0 0 1-.214 2.276m4.4 9.501a1.32 1.32 0 1 1 .214-2.277 1.32 1.32 0 0 1-.214 2.276m4.4 9.501a1.32 1.32 0 1 1 .214-2.277 1.32 1.32 0 0 1-.214 2.276m4.4 9.501a1.32 1.32 0 1 1-1.1-2.4c1.6-.9 2.7 1.6 1.1 2.4m-25.1-41.7c-1.7.7-2.9-2.4-1.2-3.1s2.9 2.4 1.2 3.1m4.8 10.7a1.432 1.432 0 1 1-1.2-2.6 1.432 1.432 0 1 1 1.2 2.6m4.4 9.5a1.32 1.32 0 1 1 .214-2.277 1.32 1.32 0 0 1-.214 2.276m4.4 9.501a1.32 1.32 0 1 1 .214-2.277 1.32 1.32 0 0 1-.214 2.276m4.4 9.501a1.32 1.32 0 1 1 .214-2.277 1.32 1.32 0 0 1-.214 2.276m4.4 9.501a1.32 1.32 0 1 1 .214-2.277 1.32 1.32 0 0 1-.214 2.276m49.7-20.399a1.32 1.32 0 1 1 .214-2.277 1.32 1.32 0 0 1-.214 2.276m4.4 9.501a1.32 1.32 0 1 1 .214-2.277 1.32 1.32 0 0 1-.214 2.276m4.4 9.501a1.32 1.32 0 1 1 .214-2.277 1.32 1.32 0 0 1-.214 2.276m4.4 9.501a1.32 1.32 0 1 1 .214-2.277 1.32 1.32 0 0 1-.214 2.276m4.4 9.501a1.32 1.32 0 1 1 .214-2.277 1.32 1.32 0 0 1-.214 2.276m4.4 9.401a1.32 1.32 0 1 1 .214-2.277 1.32 1.32 0 0 1-.214 2.276m-24.7-40.399a1.32 1.32 0 1 1 .214-2.277 1.32 1.32 0 0 1-.214 2.276m4.4 9.501a1.32 1.32 0 1 1 .214-2.277 1.32 1.32 0 0 1-.214 2.276m4.5 9.501a1.32 1.32 0 1 1 .214-2.277 1.32 1.32 0 0 1-.214 2.276m4.4 9.501a1.32 1.32 0 1 1 .214-2.277 1.32 1.32 0 0 1-.214 2.276m4.4 9.501a1.32 1.32 0 1 1 .214-2.277 1.32 1.32 0 0 1-.214 2.276m-24.7-40.399a1.32 1.32 0 1 1 .214-2.277 1.32 1.32 0 0 1-.214 2.276m4.4 9.401a1.32 1.32 0 1 1 .214-2.277 1.32 1.32 0 0 1-.214 2.276m4.4 9.501a1.32 1.32 0 1 1 .214-2.277 1.32 1.32 0 0 1-.214 2.276m4.4 9.501a1.32 1.32 0 1 1 .214-2.277 1.32 1.32 0 0 1-.214 2.276m4.4 9.501a1.32 1.32 0 1 1 .214-2.277 1.32 1.32 0 0 1-.214 2.276m4.4 9.501a1.32 1.32 0 1 1 .214-2.277 1.32 1.32 0 0 1-.214 2.276m-24.7-40.399a1.32 1.32 0 1 1 .214-2.277 1.32 1.32 0 0 1-.214 2.276m4.4 9.401a1.32 1.32 0 1 1 .214-2.277 1.32 1.32 0 0 1-.214 2.276m4.4 9.501a1.32 1.32 0 1 1 .214-2.277 1.32 1.32 0 0 1-.214 2.276m4.4 9.501a1.32 1.32 0 1 1 .214-2.277 1.32 1.32 0 0 1-.214 2.276m4.4 9.501a1.32 1.32 0 1 1 .214-2.277 1.32 1.32 0 0 1-.214 2.276m-24.7-40.399a1.32 1.32 0 1 1 .214-2.277 1.32 1.32 0 0 1-.214 2.276m4.5 9.501a1.32 1.32 0 1 1 .214-2.277 1.32 1.32 0 0 1-.214 2.276m4.4 9.401a1.32 1.32 0 1 1 .214-2.277 1.32 1.32 0 0 1-.214 2.276m4.4 9.501a1.32 1.32 0 1 1 .214-2.277 1.32 1.32 0 0 1-.214 2.276m4.4 9.501a1.32 1.32 0 1 1 .214-2.277 1.32 1.32 0 0 1-.214 2.276m4.4 9.501a1.32 1.32 0 1 1 .214-2.277 1.32 1.32 0 0 1-.214 2.276"/><path d="M454.1 143.86a1.32 1.32 0 1 1 .214-2.277 1.32 1.32 0 0 1-.214 2.276m4.4 9.501a1.32 1.32 0 1 1 .214-2.277 1.32 1.32 0 0 1-.214 2.276m4.4 9.401a1.32 1.32 0 1 1 .214-2.277 1.32 1.32 0 0 1-.214 2.276m4.4 9.501a1.32 1.32 0 1 1 .214-2.277 1.32 1.32 0 0 1-.214 2.276m4.4 9.501a1.32 1.32 0 1 1 .214-2.277 1.32 1.32 0 0 1-.214 2.276M447 141.36a1.32 1.32 0 1 1 .214-2.277 1.32 1.32 0 0 1-.214 2.276m4.4 9.501a1.32 1.32 0 1 1 .214-2.277 1.32 1.32 0 0 1-.214 2.276m4.4 9.501a1.32 1.32 0 1 1 .214-2.277 1.32 1.32 0 0 1-.214 2.276m4.4 9.401a1.32 1.32 0 1 1 .214-2.277 1.32 1.32 0 0 1-.214 2.276m4.5 9.501a1.32 1.32 0 1 1 .214-2.277 1.32 1.32 0 0 1-.214 2.276m4.4 9.501a1.32 1.32 0 1 1 .214-2.277 1.32 1.32 0 0 1-.214 2.276m-24.7-40.399a1.32 1.32 0 1 1 .214-2.277 1.32 1.32 0 0 1-.214 2.276m4.4 9.501a1.32 1.32 0 1 1 .214-2.277 1.32 1.32 0 0 1-.214 2.276m4.4 9.501a1.32 1.32 0 1 1 .214-2.277 1.32 1.32 0 0 1-.214 2.276m4.4 9.401a1.32 1.32 0 1 1 .214-2.277 1.32 1.32 0 0 1-.214 2.276m4.4 9.501a1.32 1.32 0 1 1 .214-2.277 1.32 1.32 0 0 1-.214 2.276m-24.7-40.399a1.32 1.32 0 1 1 .214-2.277 1.32 1.32 0 0 1-.214 2.276m4.4 9.501a1.32 1.32 0 1 1 .214-2.277 1.32 1.32 0 0 1-.214 2.276m4.4 9.501a1.32 1.32 0 1 1 .214-2.277 1.32 1.32 0 0 1-.214 2.276m4.4 9.501a1.32 1.32 0 1 1 .214-2.277 1.32 1.32 0 0 1-.214 2.276m4.4 9.401a1.32 1.32 0 1 1 .214-2.277 1.32 1.32 0 0 1-.214 2.276m4.4 9.501a1.32 1.32 0 1 1 .214-2.277 1.32 1.32 0 0 1-.214 2.276m-24.7-40.399a1.32 1.32 0 1 1 .214-2.277 1.32 1.32 0 0 1-.214 2.276m4.5 9.501a1.32 1.32 0 1 1 .214-2.277 1.32 1.32 0 0 1-.214 2.276m4.4 9.501a1.32 1.32 0 1 1 .214-2.277 1.32 1.32 0 0 1-.214 2.276m4.4 9.501a1.32 1.32 0 1 1 .214-2.277 1.32 1.32 0 0 1-.214 2.276m4.4 9.401a1.32 1.32 0 1 1 .214-2.277 1.32 1.32 0 0 1-.214 2.276m-24.7-40.399a1.32 1.32 0 1 1 .214-2.277 1.32 1.32 0 0 1-.214 2.276m4.4 9.501a1.32 1.32 0 1 1 .214-2.277 1.32 1.32 0 0 1-.214 2.276m4.4 9.501a1.32 1.32 0 1 1 .214-2.277 1.32 1.32 0 0 1-.214 2.276m4.4 9.501a1.32 1.32 0 1 1 .214-2.277 1.32 1.32 0 0 1-.214 2.276m4.4 9.501a1.32 1.32 0 1 1 .214-2.277 1.32 1.32 0 0 1-.214 2.276m4.4 9.401a1.32 1.32 0 1 1 .214-2.277 1.32 1.32 0 0 1-.214 2.276m49.8-20.099a1.32 1.32 0 1 1 .214-2.277 1.32 1.32 0 0 1-.214 2.276m4.4 9.501a1.32 1.32 0 1 1 .214-2.277 1.32 1.32 0 0 1-.214 2.276m4.4 9.401a1.32 1.32 0 1 1 .214-2.277 1.32 1.32 0 0 1-.214 2.276m4.4 9.501a1.32 1.32 0 1 1 .214-2.277 1.32 1.32 0 0 1-.214 2.276m4.4 9.501a1.32 1.32 0 1 1 .214-2.277 1.32 1.32 0 0 1-.214 2.276m4.4 9.501a1.32 1.32 0 1 1 .214-2.277 1.32 1.32 0 0 1-.214 2.276m-24.7-40.399a1.32 1.32 0 1 1 .214-2.277 1.32 1.32 0 0 1-.214 2.276m4.4 9.501a1.32 1.32 0 1 1 .214-2.277 1.32 1.32 0 0 1-.214 2.276m4.4 9.401a1.32 1.32 0 1 1 .214-2.277 1.32 1.32 0 0 1-.214 2.276m4.4 9.501a1.32 1.32 0 1 1 .214-2.277 1.32 1.32 0 0 1-.214 2.276m4.4 9.501a1.32 1.32 0 1 1 .214-2.277 1.32 1.32 0 0 1-.214 2.276m-24.7-40.399a1.32 1.32 0 1 1 .214-2.277 1.32 1.32 0 0 1-.214 2.276m4.4 9.501a1.32 1.32 0 1 1 .214-2.277 1.32 1.32 0 0 1-.214 2.276m4.5 9.501a1.32 1.32 0 1 1-1.1-2.4c1.6-.9 2.7 1.6 1.1 2.4m4.4 9.4a1.32 1.32 0 1 1 .214-2.277 1.32 1.32 0 0 1-.214 2.276m4.4 9.501a1.32 1.32 0 1 1 .214-2.277 1.32 1.32 0 0 1-.214 2.276m4.4 9.501a1.32 1.32 0 1 1 .214-2.277 1.32 1.32 0 0 1-.214 2.276"/><path d="M487 189.16a1.32 1.32 0 1 1 .214-2.277 1.32 1.32 0 0 1-.214 2.276m4.4 9.501a1.32 1.32 0 1 1 .214-2.277 1.32 1.32 0 0 1-.214 2.276m4.4 9.501a1.32 1.32 0 1 1-1.1-2.4c1.6-.9 2.8 1.6 1.1 2.4m4.4 9.4a1.32 1.32 0 1 1 .214-2.277 1.32 1.32 0 0 1-.214 2.276m4.4 9.501a1.32 1.32 0 1 1 .214-2.277 1.32 1.32 0 0 1-.214 2.276m-24.7-40.399a1.32 1.32 0 1 1 .214-2.277 1.32 1.32 0 0 1-.214 2.276m4.4 9.501a1.32 1.32 0 1 1 .214-2.277 1.32 1.32 0 0 1-.214 2.276m4.4 9.501a1.32 1.32 0 1 1 .214-2.277 1.32 1.32 0 0 1-.214 2.276m4.4 9.501a1.32 1.32 0 1 1 .214-2.277 1.32 1.32 0 0 1-.214 2.276m4.4 9.401a1.32 1.32 0 1 1 .214-2.277 1.32 1.32 0 0 1-.214 2.276m4.5 9.501a1.32 1.32 0 1 1 .214-2.277 1.32 1.32 0 0 1-.214 2.276m-24.7-40.399a1.32 1.32 0 1 1 .214-2.277 1.32 1.32 0 0 1-.214 2.276m4.4 9.501a1.32 1.32 0 1 1 .214-2.277 1.32 1.32 0 0 1-.214 2.276m4.4 9.501a1.32 1.32 0 1 1 .214-2.277 1.32 1.32 0 0 1-.214 2.276m4.4 9.501a1.32 1.32 0 1 1 .214-2.277 1.32 1.32 0 0 1-.214 2.276m4.4 9.401a1.32 1.32 0 1 1 .214-2.277 1.32 1.32 0 0 1-.214 2.276m-24.7-40.399a1.32 1.32 0 1 1 .214-2.277 1.32 1.32 0 0 1-.214 2.276m4.4 9.501a1.32 1.32 0 1 1 .214-2.277 1.32 1.32 0 0 1-.214 2.276m4.4 9.501a1.32 1.32 0 1 1 .214-2.277 1.32 1.32 0 0 1-.214 2.276m4.4 9.501a1.32 1.32 0 1 1 .214-2.277 1.32 1.32 0 0 1-.214 2.276m4.4 9.501a1.32 1.32 0 1 1 .214-2.277 1.32 1.32 0 0 1-.214 2.276m4.4 9.401a1.32 1.32 0 1 1 .214-2.277 1.32 1.32 0 0 1-.214 2.276m-24.7-40.399a1.32 1.32 0 1 1 .214-2.277 1.32 1.32 0 0 1-.214 2.276m4.4 9.501a1.32 1.32 0 1 1 .214-2.277 1.32 1.32 0 0 1-.214 2.276m4.4 9.501a1.32 1.32 0 1 1 .214-2.277 1.32 1.32 0 0 1-.214 2.276m4.5 9.501a1.32 1.32 0 1 1 .214-2.277 1.32 1.32 0 0 1-.214 2.276m4.4 9.501a1.32 1.32 0 1 1-1.1-2.4c1.6-.9 2.7 1.6 1.1 2.4m-24.7-40.4a1.32 1.32 0 1 1 .214-2.277 1.32 1.32 0 0 1-.214 2.276m4.4 9.401a1.32 1.32 0 1 1 .214-2.277 1.32 1.32 0 0 1-.214 2.276m4.4 9.501a1.32 1.32 0 1 1 .214-2.277 1.32 1.32 0 0 1-.214 2.276m4.4 9.501a1.32 1.32 0 1 1 .214-2.277 1.32 1.32 0 0 1-.214 2.276m4.4 9.501a1.32 1.32 0 1 1 .214-2.277 1.32 1.32 0 0 1-.214 2.276m4.4 9.501a1.32 1.32 0 1 1 .214-2.277 1.32 1.32 0 0 1-.214 2.276m-24.7-40.399a1.32 1.32 0 1 1 .214-2.277 1.32 1.32 0 0 1-.214 2.276m4.4 9.401a1.32 1.32 0 1 1 .214-2.277 1.32 1.32 0 0 1-.214 2.276m4.4 9.501a1.32 1.32 0 1 1 .214-2.277 1.32 1.32 0 0 1-.214 2.276m4.4 9.501a1.32 1.32 0 1 1 .214-2.277 1.32 1.32 0 0 1-.214 2.276m4.4 9.501a1.32 1.32 0 1 1 .214-2.277 1.32 1.32 0 0 1-.214 2.276m-24.7-40.399a1.32 1.32 0 1 1 .214-2.277 1.32 1.32 0 0 1-.214 2.276m4.5 9.501a1.32 1.32 0 1 1-1.1-2.4c1.6-.9 2.7 1.6 1.1 2.4m4.4 9.4a1.32 1.32 0 1 1 .214-2.277 1.32 1.32 0 0 1-.214 2.276m4.4 9.501a1.32 1.32 0 1 1 .214-2.277 1.32 1.32 0 0 1-.214 2.276m4.4 9.501a1.32 1.32 0 1 1 .214-2.277 1.32 1.32 0 0 1-.214 2.276m4.4 9.501a1.32 1.32 0 1 1 .214-2.277 1.32 1.32 0 0 1-.214 2.276"/></g></g><g class="AF z"><g opacity=".2"><use xlink:href="#P"/><path d="M364.6 150.06c-1.7.7-3-2.7-1.3-3.4s3 2.7 1.3 3.4"/><use xlink:href="#Q"/><path d="M374.9 175.66c-1.7.7-3-2.5-1.3-3.2s3 2.5 1.3 3.2m5.3 12.4c-1.7.7-3.1-2.4-1.4-3.1s3.1 2.4 1.4 3.1"/><path d="M385.6 199.86c-1.6.8-3.1-2.1-1.4-2.9s3.1 2 1.4 2.9m-28.7-54.4c-1.7.7-3.1-2.7-1.4-3.4s3.2 2.8 1.4 3.4m5.3 13.1c-1.7.7-3-2.6-1.3-3.3s3 2.6 1.3 3.3m5.2 12.8c-1.7.7-3-2.6-1.3-3.3s3 2.6 1.3 3.3m5.2 12.7c-1.7.7-3.1-2.5-1.4-3.2s3.1 2.5 1.4 3.2m5.4 12.2c-1.7.8-3.1-2.3-1.4-3.1s3.1 2.4 1.4 3.1m-28.7-55.3c-1.7.7-3.1-2.7-1.4-3.4s3.1 2.7 1.4 3.4m5.3 13.1c-1.7.7-3-2.7-1.3-3.3 1.7-.8 3 2.6 1.3 3.3m5.2 12.9c-1.7.7-3-2.6-1.3-3.3s3 2.6 1.3 3.3m5.2 12.8c-1.7.7-3-2.6-1.4-3.3 1.8-.6 3.1 2.6 1.4 3.3m5.4 12.6c-1.7.7-3.1-2.5-1.4-3.2s3.1 2.5 1.4 3.2m5.6 12.2c-1.6.8-3.1-2.3-1.5-3 1.7-.9 3.1 2.1 1.5 3m-29-55.1c-1.7.7-3.1-2.7-1.4-3.4s3.1 2.8 1.4 3.4m5.2 13.1c-1.7.7-3-2.6-1.3-3.3s3 2.6 1.3 3.3m5.2 12.9c-1.7.7-3-2.6-1.3-3.3s3 2.6 1.3 3.3m5.4 12.8c-1.7.7-3.1-2.6-1.4-3.3s3 2.6 1.4 3.3m5.5 12.5c-1.7.8-3.1-2.4-1.4-3.2s3 2.4 1.4 3.2"/><use xlink:href="#R"/><path d="M344.6 158.06c-1.7.7-3-2.7-1.3-3.3 1.7-.8 3 2.6 1.3 3.3m5.3 12.9c-1.7.7-3-2.6-1.3-3.3s3 2.7 1.3 3.3m5.2 13c-1.7.7-3.1-2.6-1.4-3.3s3.1 2.5 1.4 3.3m5.5 12.7c-1.7.7-3.1-2.5-1.4-3.3s3.1 2.6 1.4 3.3m5.7 12.6c-1.6.8-3.2-2.4-1.5-3.2s3.2 2.4 1.5 3.2m-29.2-55.7c-1.7.7-3-2.6-1.3-3.3s3 2.6 1.3 3.3m5.2 13c-1.7.7-3-2.7-1.3-3.3 1.6-.8 3 2.6 1.3 3.3m5.2 12.9c-1.7.7-3.1-2.6-1.4-3.3s3.1 2.6 1.4 3.3"/><path d="M352.9 192.46c-1.7.7-3.1-2.6-1.4-3.3s3.1 2.5 1.4 3.3m5.6 12.8c-1.7.8-3.2-2.5-1.5-3.3s3.2 2.5 1.5 3.3m-29-56.2c-1.7.7-3.1-2.6-1.4-3.3s3.1 2.6 1.4 3.3m5.2 12.9c-1.7.7-3-2.6-1.3-3.3s3 2.7 1.3 3.3"/><path d="M339.9 175.06c-1.7.7-3-2.7-1.3-3.3s3 2.6 1.3 3.3m5.3 13c-1.7.7-3.1-2.6-1.4-3.3s3.1 2.6 1.4 3.3m5.6 12.9c-1.7.7-3.1-2.6-1.5-3.3s3.1 2.6 1.5 3.3m5.9 13c-1.6.8-3.2-2.5-1.6-3.3s3.2 2.5 1.6 3.3"/><path d="M327.1 157.56c-1.7.7-3-2.6-1.3-3.3s3 2.6 1.3 3.3m5.2 12.9c-1.7.7-3-2.7-1.3-3.3s3 2.7 1.3 3.3m5.3 13.1c-1.7.7-3.1-2.7-1.4-3.4s3.1 2.7 1.4 3.4m5.4 13.1c-1.7.7-3.1-2.6-1.4-3.4s3.1 2.6 1.4 3.4m5.8 13.1c-1.7.8-3.2-2.6-1.5-3.4s3.1 2.6 1.5 3.4m-29.3-56.6c-1.7.7-3-2.6-1.3-3.3s3 2.6 1.3 3.3m5.2 12.8c-1.7.7-3-2.6-1.3-3.3s3 2.7 1.3 3.3m5.3 13.1c-1.7.7-3.1-2.7-1.4-3.4s3.1 2.7 1.4 3.4m5.3 13.1c-1.7.7-3.1-2.7-1.4-3.4s3.1 2.7 1.4 3.4m5.6 13.2c-1.7.7-3.2-2.7-1.5-3.4s3.2 2.6 1.5 3.4m6.2 13.3c-1.6.8-3.3-2.7-1.6-3.4s3.2 2.6 1.6 3.4m-29.9-57.1c-1.7.7-3-2.6-1.3-3.3s3 2.6 1.3 3.3m5.2 12.9c-1.7.7-3-2.7-1.3-3.3s3 2.7 1.3 3.3m5.3 13.1c-1.7.7-3.1-2.7-1.4-3.4s3.1 2.7 1.4 3.4m5.5 13.3c-1.7.7-3.1-2.7-1.4-3.4s3 2.6 1.4 3.4m5.8 13.3c-1.7.8-3.2-2.7-1.6-3.5s3.3 2.8 1.6 3.5m-29.4-57c-1.7.7-3-2.5-1.3-3.2s3 2.5 1.3 3.2m5.2 12.8c-1.7.7-3-2.6-1.3-3.3s3 2.6 1.3 3.3m5.2 13.1c-1.7.7-3.1-2.7-1.4-3.4s3.1 2.7 1.4 3.4m5.4 13.2c-1.7.7-3.1-2.7-1.4-3.4s3.1 2.7 1.4 3.4m5.7 13.4c-1.7.7-3.2-2.7-1.5-3.5s3.2 2.7 1.5 3.5m6.3 13.7c-1.6.8-3.4-2.8-1.7-3.6s3.4 2.8 1.7 3.6"/></g></g><path d="M384.3 69.06l-10.2-.2c-5.6 1-7.3-4.6-5.2-7.9 1-1.5.1-1.1.4-1.8.9-2.8 0-10.6-.7-11.2s-7.2-3.2-4-5.1 9.9-12.8 9.5-19.2 4.9-12.3 4.9-12.3 29.1-2.7 38.5-2.5c3.9.1 5.2 12.2 5.3 26.4 14 1.5 2.6 15.9-.3 20.3-6.5 9.8-1.4 24.5-1.4 24.5a52.3 52.3 0 0 1 .5 8.9c-.2 3.1 3.1 6.5 3.4 8.3.3 2.4-8.6 7.4-9.9 11.5-1.3 3.9-13.1 25.7-13.1 25.7a2.83 2.83 0 0 0-.5-.6c-.2-.3-1.3-4.1-2.3-7.9-.7-2.7-1.3-5.3-1.5-6.7a33 33 0 0 0-2.4-8.6c-.7-1.3-3.7-7.5-3.7-7.5l2.8-19h.1c0-2.7-4.6-14.3-4.8-14.8h0" class="AA"/><path d="M372.6 34.46c.4.4 1.8 1.6 2.9 1.4 0 0-.1 2.2 1 2.5l.9-.2c1.3-.3 3.6-1 3.7-1.7h0l-5.3-1.8s-2.2.7-3.2-.2z" class="AB"/><path d="M377.4 38.26c1.3-.3 3.6-1 3.7-1.7l-3.4-.2s.3 1.4-.3 1.9z" class="z"/><path d="M397.8 75.16c.5 4 2.8 5 2.5 10.1s-4.1 14.6-2.6 19.1 3.8 17.6 2.1 20.8c-.1.3-.4.4-.7.5-.7-2.7-1.3-5.3-1.5-6.7a33 33 0 0 0-2.4-8.6c-.7-1.3-3.7-7.5-3.7-7.5l2.8-19h.1c0-2.7-4.6-14.3-4.8-14.8a35.83 35.83 0 0 0 14.6-4.3c0 .1-6.9 6.4-6.4 10.4z" fill="#ffad83"/><path d="M385.1 35.36s-3.6-5-5.4-5.9-4.3.9-4.3 1.3-.4 1.6.2 1.5 2.1-1.9 4.2-.5l5.3 3.6z" class="AB"/><path d="M383.3 3.26s-9 5.1-8 9.6 6.3 4 8.6 4.6 8.7 4.9 8.1 10.7-2.5 13 2.2 16.7 3.7 7.8 1.4 12.3-2.4 10.8 3.7 13.8c0 0-5.5-4.4-3.6-9.1s6.3-10.7 3.7-14.7-6.8-5.6-4.2-16.7c0 0 1.7 16 10.1 8.2 2.5-.7 6.2-1.2 7.9 2.2s.8 8.2-7.1 13a5.67 5.67 0 0 0 .4 6c2 2.6 3.7 5.3 3.4 7.4s-2.7 7.1 1.3 9.3 7.8 4.1 9.4 8 3.4 10.2 6.9 9.6c3.5-4 13 1.1 15.2 1.3s6.9-2.6 8.8-11.2-2.2-10.2-2.2-10.2a6.19 6.19 0 0 0 4.5-7.5c-1.2-6.1-8.3-6.1-8.2-9.8s5.1-7.2 4.3-10-6-3-6.2-5.7 3.2-9.2-.5-11.5-9.3-1.6-9.5-7.2-2-15.3-14.1-13.5c-3.9-3.2-15.9-14.3-36.3-5.6z" fill="#3c2843"/><path d="M391.5 102.86s4.7 8.3 5.5 12.9 3.6 18.2 4.8 18.4c0 0 12.8-27 19.1-32.3 6.5-5.5 2.6-8.3 2.6-8.3" stroke="#364bcc" stroke-width=".99" class="x AC"/><path d="M394.3 83.96s-11.5 2.5-11.7 7.9-3 12.2.3 17.2c0 0 1.1-8 3.1-8.1s5.5 2 5.5 2 3.2-17.7 2.8-19zm24.4-1.9s3.9 12.4 5.2 13.3 4.2.1 6.8 2.4 7.7 9.8 7.7 9.8 5.9-30.6-19.7-25.5z" fill="#4c63ed"/><path d="M369 169.46c-3 .4-7.4 11.9-11.3 19.8-3.5 7.1-11.1 9.5-12.6 6.3 5.2-10.9 13.1-28.3 12.4-32.2-1-5.8.6-15.9 2.6-18.4s8.2-25.1 8.2-25.1-.7 15.1-4.4 24-1.8 16.2 5.1 25.6z" fill="#2639d1"/><path d="M374.8 56.06l-.3.1-5.4 3c-2.6-2.3-.1-3.8-.1-3.8h0c-2.2-1.3.1-4.7.6-3.9a57.41 57.41 0 0 0 5.2 4.6z" class="AA"/><path d="M375.2 55.76a25.15 25.15 0 0 1-4.1-2.9 9.57 9.57 0 0 0-1.7-1.4.31.31 0 0 1-.2.1c-2.2 2.5-.1 3.9-.1 3.9" class="AG"/><path d="M419.5 140.56s4.9-.8 6.9 2.5 6.1 8.8 6.9 12.3 1.4 9.6 3.3 8.8 2.2-5.9 2-8.8-.3-6.9 5.2-7.6c0 0-1.1 1.7-.8 6s.5 12.3-1.3 15.7-2.2 14.4 11.7 20 22.8 8.8 22.8 8.8l-6.6-8.5 23-.6 1.6 4.2 2.5 15.4c.7 5.2 1.7 20-4.3 23.3s-16.4-.5-26.6-8.5-30.9-28.5-32.5-30.7-12.6-10.8-14-13-4.8-6.8-6.5-8-11.6-8.2-10.3-11.3 6.8 3.1 10.3 4.5 6.2 1.5 1.1-5.1-7.9-11.7-6.1-13.1 2.4-.6 3.6 1.5 6.5 7.8 6.5 7.8-9-14.2-7.9-15.7 2.2-2.4 3.9.5 10.4 14 10.4 14a7.59 7.59 0 0 0-1.3-7.4c-2.6-3.7-6.6-7.1-3.5-7z" class="AA"/><path d="M236.6 557.76s8.1 18.9 8.6 31.2l22.2 30.8 16.8-.9s-5.4-11-6.6-14.3-11.7-20.2-12.6-25.2-2.2-25.3-2.2-25.3z" fill="#9d4645"/><path d="M158 554.16s10.9 24.6 6.2 41.3c0 0-.3 6.9 1.2 10.3s18.6 33.8 18.6 33.8l20.4-1.3s-10.1-26.6-11.5-32.7-6-43.7-6.7-48.2-28.2-3.2-28.2-3.2z" class="AD"/><path d="M166.5 595.66s-8.7 5.7-8.5 11 4.8 13.1 4.8 20.5.9 17.4.9 17.4h9.6v-13.4s4.7 7.2 5.2 9.8 6 8.1 20.2 8.3 22.4-2.8 20.3-4.3-17.8-9.4-17.6-11.7c0 0-4.7 6.9-16.4 2.4l-15.8-29.1c-1.7-3.4-4.2-8.6-2.7-10.9zm77.8-9.4s-7.4 7.4-5.3 15.3 6.2 18.1 7.4 21.7a33.87 33.87 0 0 1 1.2 8.8h10.7l-4.7-21.7s9 13.8 9.3 15.8 2.2 5.7 10.2 5.9 31.3-2.9 31.3-2.9-1.2-7.8-5.9-7.6-14.6-.7-15.8-4.3l-7.4.7s-8.3-6.7-10.7-10.9-15.8-21.2-20.3-20.8z" fill="#541b1b"/><path d="M173.8 276.96s5.7-7.3 5.7-9.2 55.2 23.2 55.2 23.2-.3 6 0 7.2-11.4 5.3-11.4 5.3z" class="AD"/><path d="M267.3 556.16s-16.9 3.2-30.3 4.3c-6.1.5-11.4.6-14-.2-8.4-2.5-5.3-21.1-5.1-35.9s.7-39.6-.7-45.9c-1.3-5.9-14.9-54.7-16.5-60.4a2.81 2.81 0 0 1-.1-.5s-4.1 52.5-3.5 63 3.8 38.3 4 47.3 2.3 26.8-.2 30.4-55.5 4.4-59-4.2c0 0 .8-28.7 0-43.8s.4-29.1 3.1-45.6 9.4-47.1 8.6-59.2-31.4-108.9 23-132.1c0 0 16.8 9.4 24.9 14.9s17.8 13 33.2 10c0 0 6 10.2 6 32.5s-.2 15.5 4 38.2 11.8 76 11.8 76z" fill="#fd5923"/><path d="M237.1 560.46c-6.1.5-11.4.6-14-.2-8.4-2.5-5.3-21.1-5.1-35.9s.7-39.6-.7-45.9c-1.3-5.9-14.9-54.7-16.5-60.4.1-8.6.1-27.9-.3-33.5-.5-7.2 1.5-20.4 1.9-26.5.5-7 19.2-38.2 19.2-38.2l-14 39.7c-4 27.2 27 115.8 28.6 123.4 1.3 6.3 1 58.7.9 77.5z" fill="#ea4e24"/><path d="M159.1 559.86s5.3-42.4 4.5-58.8-.4-54.4.1-67.8-.9-46.9-.9-55.7 2.7-59 3.8-60.7m5.8-11.7s14.6-2.7 12.6-20.6" stroke="#ff7b57" stroke-width="2" class="x AC AI"/><path d="M322.7 247.66l2.4 4.9 28.1-37.2s4.2-5.6 2-8.8l-34.6-50.7s-2.5-3.4-6.5 0-26 38.6-26 38.6z" fill="#ffd295"/><path d="M285.4 190.06l37.1 61.2 25.5-41.4s3.1-5.2 1.1-7.7-32.4-47.4-32.4-47.4-3.6-3.8-6.8 0-24.5 35.3-24.5 35.3z" fill="#ffeed5"/><path d="M142.5 287.46s7.1 4.2 8 5.4-3 6.8-1.3 11.3 1.7 9.2.8 8.8-7.1-4.1-7.9-3.1.5 2.7 4.3 5.6 9.3 5.4 15 0c0 0 8.2-.1 8.2-5.7 0 0 6.4-7.8 3.3-15.3s-17.7-18.1-17.7-18.1l-7.1-1.2z" class="AD"/><path d="M282.6 233.26s9.6-8 10.3-14.6-.9-13 3-14.4 11.7-3.8 12.9-4.9 2.5 1.2-1 3.9-4.3 4.3-4.3 4.3l-.7 9.8 6.5 10.9a13.35 13.35 0 0 1-5.3.1s-8.4 10.5-8.9 15.9-1.7 2.8-1.7 2.8l-12.1-11.4z" fill="#9b4444"/><path d="M298 263.96c-4.3 4.8-10.3 12.8-16.1 18.3s-16 14.9-25.3 11.1a21.76 21.76 0 0 1-7.3-4.9 26.06 26.06 0 0 1-5.5-8l14.8-42.2s2 5.9 5.8 4.2 7.9-13.3 18.2-9.2l13.7 12.5s.8 1.8 1.7 4.4c1.3 4.3 2.8 10.8 0 13.8z" fill="#ffc40e"/><path d="M297.9 250.16c-5.4-3.9-16.4-10.8-21.4-6-6.4 6.2-20.3 40.5-27.2 44.3a26.06 26.06 0 0 1-5.5-8l14.8-42.2s2 5.9 5.8 4.2 7.9-13.3 18.2-9.2l13.7 12.5c-.1 0 .7 1.8 1.6 4.4z" fill="#edb20c"/><path d="M261.3 239.76c-3.1 4.9-5.2 11.3-5.7 21.2s-7.5 20.1-10.5 24.8-6.4 7.1-12.2 7.1-21.4-7.8-32.1-12.4c-6.1-2.7-13.5-5.5-19.2-8.1-4.3-2-7.6-3.9-8.6-5.5-2.3-3.8 2.4-11.9 2.4-16.5 0-4.1-2-10-4.3-15.3-.3-.7-.6-1.3-.9-1.9-2.4-5.1-2.5-7.3-2.5-7.7v-.1s-15.5 19.9-20.4 25.3-6.2 6.5-6.2 7.4c0 .1 0 .1.1.2.6.6 3.2 1.8 5.6 3.1a13.8 13.8 0 0 1 4 3c1.6 2.5-1 8.7-1 8.7l5.2 3.2c-8.1 1.9-9.3 14.2-9.3 14.2l-4.6-.8s-8.7 6.8-14.5 6.8-15.2-6.8-28-14.7-16.3-21-13.3-30.8 20.5-20.4 26.7-26.5 24.2-34.4 34.4-50.1 24.5-8.8 26.2-8.7a1.27 1.27 0 0 0 .6-.1h.1a5.07 5.07 0 0 0 .9-.2 6.89 6.89 0 0 1 .8-.3 73.23 73.23 0 0 0 7.3-3.4l38-3.1 14.2 7.5s.8 9.6 3.9 14.4 25 27.8 28.9 34.7c4.2 7.1-2.9 19.7-6 24.6z" fill="#ffc40e"/><g fill="#edb20c"><path d="M173.6 165.66c27.2 40.7-5.8 59.8-5.8 59.8v.1c0 .4.1 2.6 2.5 7.7 2.7 5.7 5.2 12.6 5.2 17.2s-4.8 12.7-2.4 16.5c1 1.6 4.3 3.5 8.6 5.5a40.14 40.14 0 0 0 1-8.3c.2-9.5 6.8-27.2 22.2-24.2 15 2.9 28.4-7.6 29.2-8.2-.6.4-8.2 5.3-24.9.6-17.5-4.9-16.5-31.4-19.4-47.6a26.8 26.8 0 0 0-14.6-19.5"/><path d="M174.4 165.46c22 23.6 8.5 60.7 3.5 58.6 0 0-2.7 4.9-6.8 11.2-.3-.7-.6-1.3-.9-1.9-2.4-5.1-2.5-7.3-2.5-7.7v-.1s-15.5 19.9-20.4 25.3-6.2 6.5-6.2 7.4c-8-16.7-24.5-8.6-25-8.4 3.6-10.6 24.1-.2 23.9-5.7s-12.7-5.7-12.7-5.7 18.6-3 31.5-12.1 20.5-33.4 20.9-41.2c.3-5.6-3.9-14.7-6.4-19.4"/></g><path d="M247.4 132.66a5.26 5.26 0 0 0 1.5-2.6c-.2-2.5-4.4-7.6-.9-10.3 5.6-7.9-6.9-8.8-8.5-14.7-.4-2.3 0-10.7 0-10.7-28.7-25.5-53.8.8-53.2 31.1 0 1.8 4.9 6.8 4.9 6.8 6.4 8.2 4.2 13 2 21.3l16.4 9.6c2.7 1.4 1.7 4.3 1.6 5.5 4.3 10.9 27.2 35 35.1 42.4-.6-15.3-19.5-32.5-23.8-45.3 0-2.5 3.6-13.7 3.6-13.7 13.6 2.7 25.5-5 20.7-16.1.8-.7 2.9-2.4.6-3.3z" class="AD"/><path d="M247.4 132.66h0l-4.7.6a28.43 28.43 0 0 0 4.1-3 9.57 9.57 0 0 1 1.7-1.4l.2.2c1.1 1.5-1.3 3.6-1.3 3.6z" fill="#3a1021"/><path d="M225.2 109.16s3.6-5.1 5.4-6 4.3.9 4.3 1.3.4 1.6-.2 1.6-2.1-1.9-4.2-.5l-5.3 3.6zm11.7-.9c-.3.5-1.5 1.9-2.5 2 0 0 .5 2.2-.6 2.7h-.9c-1.3-.1-3.7-.3-4-1h0l4.9-2.8c-.1-.1 2.2.2 3.1-.9z" class="AB"/><path d="M232.9 112.96c-1.3-.1-3.7-.3-4-1l3.3-.8s0 1.4.7 1.8z" class="z"/><path d="M186.3 144.46s-11.9 16.1-9.4 17.7 7.4.3 12.8 7.7 15.3 15.5 15.3 15.5l6.2-20.4c.2-1.4-10.8-7.5-14.4-9.2-4-1.9 0-12.1 0-12.1l-2.1-7.1z" fill="#d89e0e"/><path d="M147.7 69.06c-3.5 6.9-1 15.5-1 15.5s-11.4 1.6-12.2 10.6 9.8 12.2 9.8 12.2-9.8 5.1-6.7 14.9 13.3 16.1 21.8 16.7c0 0 1.8 18.4 22.4 8.8 0 0 10.4 5.7 12.4-5.3 0 0-5-.5-4.2-1.4s6-4.7 4.9-5.9-5.9-6.6-5-8.2 5.4-.6 6-6.2c0 0 11.6.1 7.9-11 0 0 1.6-5.7 3.4-5.9s13.5-1.2 10.7-11.2c0 0 3.7-2.7 6-.9s5.8 6.8 15.1 4.7 9.5-18.5 9.5-18.5 6-1.1 5.2-5.8-8.1-19.8-20.8-16.6c0 0 2.5-17.7-11.3-17.5s-12.9 5-12.9 5-8.5-6.3-17.1-4.4-24.9 6.2-25.5 23.6c0 .2-14.7-.6-18.4 6.8z" fill="#3a1021"/><path d="M613 543.26l-5.9 52.7c-.1 4.6-13.3 25.5-13.3 25.5l-5.1 2.5h-26.3l22.6-18.1 3.6-24.7 3.5-44.8c0 .2 13.2 8.9 20.9 6.9z" class="AG"/><g fill="#1a1972"><path d="M593.7 621.56l-21.6-1s15.1-12.3 15.1-15.9-.4-16.1-.4-16.1-1.4 14.6-4 16.5-10.4 10.4-15.6 11.7-16.5 2.9-16.1 6.3 8.1 8.2 16.9 7.1 23.6-1.3 23.6-1.3z"/><path d="M607.8 592.36s8.2 13.8 10.4 15.3 4.4 11.3-6.1 15.7a68.89 68.89 0 0 0-5.4 11.7c-1.7 5.6-10.7 11.5-18.6 11.7s-21.7-2.1-19.7-3.6 8.6-4.4 10.7-8.4 12.5-25.3 12.5-27.2 4-8.2 4-8.2z"/></g><path d="M585 631.16s5.4 5.4 10.7 0 15.9-25.3 15.9-25.3-4.8-14-5-22.8-5.9-44.9-8.3-48.9c0 0-10.6 11.1-22.5 10.9 0 0 20.1 56.2 20.5 60.2s-11.3 25.9-11.3 25.9z" class="AE"/><path d="M612.1 550.06s20.7-62.3-1.2-110.6-3.9-99.7-3.9-99.7l-55.1 15 24.3 82.2c2.9 6.6 5 10.3 5 19.5s12.3 84.8 12.3 84.8z" fill="#2e38af"/><path d="M599.7 534.16s-9.2-45.5-18.9-62.4-28.5-30.5-21.8-46.4 68.2-83.9 68.2-106.3-4-64.2-17.5-73.5c0 0-52 1.8-59.6-4 0 0-10.1 71.6 1.7 93.5l-19.6 79.8c-2.9 13.8-4.6 22-5.8 24.7s.9 20 7.8 28.6 42.4 78.4 42.4 78.4 20.5-2.2 23.1-12.4z" fill="#3d4ede"/><g stroke-width="2" stroke="#566def" stroke-linejoin="round" class="x AI"><path d="M551.9 334.96s14-41.5 19.9-47.8"/><path d="M563.8 245.56s-6 29.7-5.7 34.3 8.3 17 8.3 17m37.1 17.4s-9.9 36.2-26.1 61.7-35.4 59.7-32.4 69.4 19.4 28.5 27.4 44.5 21.1 51.4 21.1 51.4"/></g><path d="M552.2 73.36a103 103 0 0 1 7.3 9.4 24.16 24.16 0 0 1 2.1 3.7c1.9 4.5 4.1 9.2 5.9 12.8s2.9 31.1 2.9 31.1l26-27.3 4.8-5s-9.4-10.9-9.2-23.1l.2-13.7z" class="AE"/><path d="M552.2 73.36a103 103 0 0 1 7.3 9.4c8.3-.3 17.7 3.3 22.6 6.7 3.8 2.7 4.8 13.9 10.4 18.5l8.6-10s-9.4-10.9-9.2-23.1l.2-13.7z" fill="#f29e8c"/><path d="M592.4 79.26s2.9-9.3 9.3-12.5 23.4-11.1 9.4-33.3c0 0-5.4-20.8-26.5-17.7 0 0-3.7-4.9-9.3-4.5s-41 10.4-29.3 39.2l37.3 16.3a5.53 5.53 0 0 0 7.4-.6s-2.7 4.8-5.1 4.5c-.1-.1-1.1 4.8 6.8 8.6z" class="AB"/><path d="M545 60.06c.8 1.8-.9 2.9-1.5 3.2a.31.31 0 0 1-.2.1c-1 1.5 1.3 3.8 1.3 3.8h-.1c-1.8.7-1.2 2.9-.3 3.6s-.1 2.7-.1 2.7c-3.4 9.4 9.6 7.5 13.7 7.2 15.7-.6 17.2-6.4 17.2-9s.7-2.1.7-2.1c12.7-.7 15.2-11 12-16.6 0 0-4.1-4.5-8.8-3.2s-4.1 9-4.1 9c-5-1-4.9-4.6-4.4-8.5s-.2-3.5-3.5-7.8c-10.2-11.2-.4-20.3-.2-20.5-12.7 4-16 15.1-15.6 20.8s-9.2 10.2-9.4 12.9 3.3 4.4 3.3 4.4z" class="AE"/><path d="M544.6 67.06h-.1l4.9.5a28.43 28.43 0 0 1-4.1-3 9.57 9.57 0 0 0-1.7-1.4.31.31 0 0 1-.2.1c-1.1 1.6 1.2 3.8 1.2 3.8z" class="AG"/><path d="M561.8 46.26s-3.6-5.1-5.4-6-4.3.9-4.3 1.3-.4 1.6.2 1.6 2.1-1.9 4.2-.5l5.3 3.6zm-11.7-.8c.3.5 1.5 1.9 2.5 2 0 0-.5 2.2.6 2.7h.9c1.3-.1 3.7-.3 4-1h0l-4.9-2.8c0-.1-2.2.1-3.1-.9z" class="AB"/><path d="M554.1 50.06c1.3-.1 3.7-.3 4-1l-3.3-.8s-.1 1.5-.7 1.8z" class="z"/><path d="M609.8 99.06a17.93 17.93 0 0 1-4.7-1.9c-2-1.2-5.9-.5-7.3 1.9s-20.6 22.3-21.9 23.2c-1.6 1.1-6.3 2-6-5s-1.4-15.9-2.6-17.9-4.3 3.1-7.3 8.1-13.5 31.9-14.2 38.5-1.2 33.9 0 40.8 4.1 31.1 3.3 38.3-.7 16.2 6 18.1 26.5 2.5 26.5 2.5-2.8-42-1.6-47.3 3-39.8 6.5-49.2 12-38.6 16-41.6a32 32 0 0 0 7.3-8.5z" fill="#e1f3ff"/><path d="M579.1 249.86c.9 6.4 15.4 61.8 19.8 71.3s24 16.7 35.6 17.8 8.9-15.1 8.6-21.3c-.2-4.7-3.9-21.1-7.4-34-1.1-4.3-2.2-8.2-3.2-11.1-3.9-12-3.7-30.7-3.7-30.7 12.6 3.7 14.2-12.3 14.6-12.3a13.15 13.15 0 0 0 5-2c1.2-1.1-2.2-12.5 1.4-13.4s2.8-6.5-.9-14-2.8-24.6-1.9-35.3-3.1-29-6.1-37.8-8.9-20.4-11.5-23.8c-1.3-1.7-8.1-1-11.2-1s-9.6-2.5-11.5-4.8c-1.3-1.7-4.7-1.5-6.3-1.2s-13.2 29-15.1 35.6-8.1 37.5-9 50.5c-.9 12.7 1.9 61.1 2.8 67.5z" fill="#fe5b06"/><path d="M621 106.46a2.69 2.69 0 0 0-1.3.4l1.3-.4zm-23.1 69.3c7.2-2.8 13.2 1.5 11.3 10.3s1.7 15 2.8 15.7-1.8 35.4 5 44.4 12 29.9 18.6 37.2l.3.3c-1.1-4.3-2.2-8.2-3.2-11.1-3.9-12-3.7-30.7-3.7-30.7s-18.2-37.1-7.2-40.4c0 0-9.8-7.4-7.6-12.4s5.6-7.3 2.7-17.3-8.8-32.2-9.9-36.7c-2.7-10.3 8.2-25.5 12.9-28.1-3.2 1.1-11.3 4.4-14.3 11.5-3.7 8.9-5.5 30.5-4 40.7s-13 15.8-17.5 14.6c-4.7-1.1 6.6 4.7 13.8 2z" fill="#dd5112"/><path d="M535.6 240.86s-24.5-16.5-35.5-40.8-20.8-29.9-26.1-32.6-18.1-18.3-20.5-25c0 0 .4-2.8 2.4-1.7l-4.2-9.4s.6-5.1 3-3.4a2.44 2.44 0 0 1 3.6-.3 2.07 2.07 0 0 1 3.3.3c1.5 2.1 6 12.8 8.2 15.3s13.1 10.6 13.1 10.6l-4.6-9.3c-1.9-3.8-3.3-9.5-1.8-9.3s3.8 4 6.5 7.4 7.2 8.4 7.3 12.7.1 9.9 2.8 13.7 27.5 30.5 30.4 32.2 19.3 12.8 19.3 12.8-4.1 25.6-7.2 26.8z" fill="#fe9c87"/><path d="M567.8 100.26s-3.6 2.4-6 9.7-10.9 30.5-10.9 36.3l.7 68.1c-.3 6.5-.7 25.1-2 32.5s-3.7 36.4-3.3 43.9l1.2 28.2s-14.9-7.4-17.8-23.6.3-47.3 2.9-54.3 12.8-41.8 11.3-54.9-12.1-59.3-2.3-72.6c0 0 13.4-10.2 18.9-13.4 4.7-2.5 7.1-1.5 7.3.1z" fill="#fe5b06"/><path d="M540.5 140.86l25.9 91.7s-41.1-21.2-43.8-21.2-28.6-84.4-35.5-87.9z" fill="#ffeed5"/><path d="M637.6 224.96s-15.6-10.5-19.2-13.9-10.5-6.5-19.4-6.3-30.3-3-34.4-10.2-2.2-11.4-5.3-15.7-10.2-10.1-10.2-10.1l2.6 9.4s-.7 4.7-2.6 2.7-10.6-12.7-17.7-14.7 0 5.1 0 5.1l3.3 2.5s-4.2-.4-4.2 1.8 3.1 4.9 3.1 4.9-2.2-.5-.9 2.7 4.9 6.2 4.9 6.2-2.2-.9-.4 3.4 10.7 9.4 14.3 9.4c0 0 16.3 7.1 24.5 11.2s42 23 46.6 24.1 17.9 4.7 15-12.5z" class="AE"/></svg>